{"glyphs":{"0":{"ha":1014,"x_min":71,"x_max":944,"o":"m 510 176 q 420 199 461 176 q 350 264 379 222 q 305 364 321 306 q 289 492 289 422 l 289 494 q 305 622 289 564 q 350 720 321 679 q 419 784 379 761 q 507 807 458 807 q 592 785 553 807 q 660 726 631 764 q 706 633 689 688 q 726 514 724 579 l 711 514 q 692 626 708 575 q 648 715 675 678 q 585 772 621 751 q 507 792 549 792 q 425 770 463 792 q 360 709 388 749 q 319 615 333 669 q 304 494 304 560 l 304 492 q 319 370 304 425 q 362 276 335 315 q 426 214 389 236 q 510 192 464 192 q 649 265 594 192 q 711 460 704 338 l 726 458 q 705 344 722 396 q 659 254 688 292 q 592 197 631 217 q 510 176 554 176 m 510 999 q 684 961 604 999 q 822 856 764 924 q 912 697 879 789 q 944 494 944 604 l 944 492 q 912 288 944 381 q 821 128 879 196 q 683 22 763 60 q 507 -15 603 -15 q 338 19 415 -15 q 202 117 260 54 q 110 267 144 179 q 72 458 76 354 l 88 460 q 124 274 92 358 q 213 128 157 189 q 343 34 268 68 q 507 0 418 0 q 676 37 599 0 q 809 139 753 74 q 897 294 865 204 q 929 492 929 385 l 929 494 q 898 690 929 600 q 810 845 867 781 q 678 947 754 910 q 510 983 601 983 q 344 949 419 983 q 212 852 268 914 q 123 704 156 790 q 86 514 90 618 l 71 514 q 108 703 75 615 q 199 858 140 792 q 338 964 260 929 q 510 999 417 999 m 872 492 q 848 322 872 400 q 779 185 824 243 q 673 90 735 126 q 538 49 611 54 l 536 64 q 666 104 607 69 q 767 195 725 139 q 833 327 810 251 q 857 492 857 403 l 857 494 q 831 666 857 588 q 759 801 806 744 q 649 890 713 858 q 510 922 585 922 q 369 890 433 922 q 259 800 306 857 q 186 664 213 743 q 160 492 160 585 l 160 489 q 183 324 160 400 q 249 192 207 249 q 351 102 292 136 q 481 63 410 68 l 479 47 q 344 88 406 53 q 238 182 282 124 q 169 319 193 240 q 144 489 144 397 l 144 492 q 172 670 144 589 q 247 811 199 751 q 363 904 296 871 q 510 938 431 938 q 655 904 589 938 q 769 812 721 871 q 845 672 818 753 q 872 494 872 590 l 872 492 m 481 865 q 379 831 425 860 q 301 753 333 801 q 250 639 268 704 q 232 496 232 574 l 232 492 q 252 340 232 408 q 309 222 272 271 q 397 144 346 172 q 510 117 449 117 q 622 143 571 117 q 708 219 672 169 q 765 337 744 268 q 785 489 785 406 l 785 492 q 767 633 785 568 q 715 748 749 699 q 636 828 682 797 q 535 865 590 858 l 538 881 q 644 842 596 874 q 726 758 692 810 q 781 639 761 707 q 800 492 800 571 l 800 489 q 780 335 800 406 q 722 213 760 265 q 510 101 642 101 q 391 130 444 101 q 299 210 338 158 q 238 334 260 263 q 217 492 217 406 l 217 496 q 235 644 217 576 q 289 763 254 713 q 372 844 324 814 q 479 881 421 875 l 481 865 z "},"1":{"ha":586,"x_min":33,"x_max":465,"o":"m 256 7 l 240 7 l 240 756 l 74 715 l 40 849 l 313 921 l 397 921 l 397 68 l 382 68 l 382 906 l 314 906 l 58 838 l 85 733 l 256 775 l 256 7 m 465 0 l 310 0 l 310 838 l 150 797 l 147 813 l 325 857 l 325 15 l 450 15 l 450 974 l 314 974 l 38 890 l 33 906 l 313 989 l 465 989 l 465 0 z "},"2":{"ha":865,"x_min":63,"x_max":793,"o":"m 793 61 l 139 61 l 139 76 l 778 76 l 778 183 l 342 183 l 517 318 q 628 410 581 368 q 706 493 675 451 q 753 581 738 535 q 768 686 768 628 l 768 689 q 745 809 768 756 q 680 901 722 863 q 577 960 638 939 q 443 981 517 981 q 326 967 378 981 q 233 927 275 953 q 157 865 192 901 q 89 783 122 829 l 76 792 q 147 876 111 839 q 226 940 183 914 q 322 981 269 967 q 443 996 375 996 q 689 913 594 996 q 783 689 783 829 l 783 686 q 768 577 783 625 q 721 486 753 529 q 640 400 689 443 q 526 307 592 357 l 386 199 l 793 199 l 793 61 m 785 0 l 63 0 l 63 179 l 388 446 q 462 510 431 482 q 513 565 493 539 q 542 617 532 592 q 551 671 551 642 q 519 758 551 726 q 429 789 486 789 q 330 757 372 789 q 238 663 288 725 l 233 657 l 119 747 l 124 753 q 187 830 154 796 q 257 888 219 864 q 340 924 294 911 q 443 936 386 936 q 647 869 575 936 q 718 676 718 801 l 718 674 q 701 579 718 621 q 653 500 685 538 q 579 427 622 463 q 482 350 536 392 l 471 340 l 268 188 l 258 199 l 472 361 q 569 438 526 403 q 642 509 613 474 q 687 584 671 544 q 703 674 703 624 l 703 676 q 636 858 703 796 q 443 921 569 921 q 346 909 389 921 q 267 875 303 897 q 201 821 232 853 q 140 750 169 789 l 231 678 q 326 772 282 740 q 429 804 369 804 q 530 769 493 804 q 567 671 567 733 q 557 613 567 639 q 526 558 547 586 q 474 501 506 531 q 397 433 442 471 l 78 172 l 78 15 l 785 15 l 785 0 m 724 122 l 139 122 l 139 158 l 443 407 q 533 484 494 450 q 594 551 571 518 q 628 623 618 585 q 632 713 638 661 q 594 798 628 760 q 507 853 560 836 q 356 848 432 876 q 215 744 279 819 l 204 754 q 351 862 271 832 q 511 867 432 892 q 606 808 569 849 q 647 714 642 767 q 643 619 653 660 q 608 544 633 579 q 544 474 583 508 q 453 396 504 439 l 442 388 l 154 151 l 154 138 l 724 138 l 724 122 z "},"3":{"ha":863,"x_min":43,"x_max":786,"o":"m 431 -15 q 47 154 192 -15 l 43 160 l 147 258 l 153 254 q 290 156 219 188 q 446 125 360 125 q 583 172 531 125 q 635 293 635 218 l 635 297 q 566 428 635 382 q 369 474 497 474 l 347 474 l 326 556 l 594 825 l 594 853 l 164 853 l 164 868 l 610 868 l 610 818 l 344 550 l 358 489 l 369 489 q 577 439 504 489 q 650 297 650 389 l 650 293 q 594 160 650 210 q 446 110 538 110 q 287 140 358 110 q 147 238 215 171 l 64 158 q 431 0 201 0 q 569 22 507 0 q 676 85 632 44 q 746 182 721 125 q 771 308 771 239 l 771 311 q 747 426 771 379 q 688 503 724 474 q 606 550 651 533 q 518 574 561 567 l 503 576 l 756 818 l 756 967 l 110 967 l 110 982 l 771 982 l 771 811 l 535 586 q 624 560 579 578 q 704 509 668 542 q 763 428 740 476 q 786 311 786 381 l 786 308 q 760 176 786 235 q 688 74 735 117 q 576 8 642 31 q 431 -15 510 -15 m 424 44 q 283 74 356 44 q 143 156 211 103 l 151 168 q 288 88 218 115 q 424 60 358 60 q 628 126 553 60 q 704 304 704 192 l 704 307 q 685 400 704 363 q 637 463 667 438 q 570 501 607 488 q 499 521 533 514 l 403 531 l 397 557 l 679 826 l 679 906 l 118 906 l 118 800 l 508 800 l 268 558 l 299 433 l 381 433 q 526 399 475 433 q 578 303 578 365 l 578 300 q 538 209 578 243 q 433 175 499 175 q 306 203 363 175 q 194 293 250 231 l 206 304 q 313 217 258 243 q 433 190 367 190 q 527 221 492 190 q 563 300 563 251 l 563 303 q 515 388 563 358 q 381 418 468 418 l 286 418 l 251 563 l 471 785 l 103 785 l 103 921 l 694 921 l 694 819 l 414 551 l 415 546 l 501 536 q 578 515 539 529 q 648 474 617 500 q 699 407 679 447 q 719 307 719 367 l 719 304 q 698 198 719 246 q 638 116 676 150 q 545 63 600 82 q 424 44 490 44 z "},"4":{"ha":957,"x_min":39,"x_max":894,"o":"m 563 381 l 281 381 l 563 710 l 563 381 m 314 396 l 547 396 l 547 668 l 314 396 m 765 7 l 750 7 l 750 224 l 879 224 l 879 322 l 681 322 l 681 908 l 603 908 l 132 364 l 151 285 l 558 285 l 558 269 l 139 269 l 115 368 l 596 924 l 696 924 l 696 338 l 894 338 l 894 208 l 765 208 l 765 7 m 696 0 l 547 0 l 547 208 l 76 208 l 39 368 l 575 989 l 765 989 l 765 396 l 888 396 l 888 381 l 750 381 l 750 974 l 582 974 l 56 364 l 89 224 l 563 224 l 563 15 l 681 15 l 681 285 l 833 285 l 833 269 l 696 269 l 696 0 m 628 68 l 613 68 l 613 832 l 208 364 l 215 338 l 558 338 l 558 322 l 203 322 l 192 368 l 628 872 l 628 68 z "},"5":{"ha":875,"x_min":54,"x_max":801,"o":"m 251 408 l 122 494 l 150 982 l 750 982 l 750 967 l 164 967 l 138 503 l 253 426 q 414 461 336 461 q 544 424 496 461 q 593 322 593 386 l 593 319 q 548 215 593 253 q 424 178 503 178 q 306 203 361 178 q 188 285 250 229 l 199 296 q 311 218 257 243 q 424 193 365 193 q 538 226 497 193 q 578 319 578 258 l 578 322 q 534 413 578 381 q 414 446 490 446 q 256 410 340 446 l 251 408 m 442 588 q 547 574 494 588 q 640 529 599 560 q 708 449 682 499 q 733 326 733 399 l 733 324 q 712 208 733 260 q 650 120 690 157 q 553 64 610 83 q 426 44 496 44 q 276 69 346 44 q 140 144 207 93 l 149 157 q 281 83 214 107 q 426 60 349 60 q 547 78 493 60 q 638 132 600 97 q 697 215 676 167 q 718 324 718 264 l 718 326 q 645 508 718 443 q 442 572 572 572 q 407 570 426 572 q 367 565 388 568 q 326 560 346 563 q 294 554 307 557 l 290 553 l 256 576 l 272 860 l 689 860 l 689 844 l 288 844 l 272 583 l 293 569 q 327 576 307 572 q 367 582 347 579 q 407 586 388 585 q 442 588 426 588 m 700 571 q 801 329 801 489 l 801 326 q 775 185 801 249 q 699 78 749 122 q 581 9 650 33 q 426 -15 511 -15 q 228 20 317 -15 q 60 132 139 56 l 54 136 l 147 247 l 153 243 q 288 156 225 182 q 419 129 351 129 q 588 181 528 129 q 649 324 649 232 l 649 328 q 585 464 649 415 q 410 513 522 513 q 343 508 376 513 q 269 492 310 503 q 265 490 267 490 q 263 489 264 490 q 260 488 261 489 q 257 488 260 488 l 254 486 l 192 529 l 215 921 l 758 921 l 758 781 l 346 781 l 336 632 q 389 642 361 638 q 456 646 417 646 q 700 571 608 646 m 786 329 q 700 552 786 474 q 456 631 614 631 q 385 626 414 631 q 331 614 357 621 l 319 611 l 332 796 l 743 796 l 743 906 l 229 906 l 208 538 l 257 503 l 257 504 q 261 505 260 504 q 265 506 263 506 q 410 528 344 528 q 597 476 529 528 q 664 328 664 424 l 664 324 q 599 169 664 224 q 419 114 535 114 q 285 140 349 114 q 149 226 222 167 l 75 138 q 236 33 150 67 q 426 0 322 0 q 575 23 508 0 q 688 89 642 46 q 760 192 735 132 q 786 326 786 251 l 786 329 z "},"6":{"ha":919,"x_min":67,"x_max":844,"o":"m 492 850 q 367 821 417 850 q 286 745 317 792 q 241 642 256 699 q 221 529 226 585 q 217 440 217 488 q 224 344 217 392 q 248 255 232 297 q 293 181 264 213 q 463 114 353 114 q 568 134 525 114 q 638 186 611 154 q 676 258 664 218 q 688 335 688 297 q 672 406 688 374 q 631 461 657 438 q 567 498 604 485 q 486 511 529 511 q 406 501 442 511 q 343 478 369 492 q 299 449 317 464 q 275 426 282 435 l 263 436 q 289 461 271 446 q 335 491 307 476 q 402 516 364 506 q 486 526 440 526 q 573 512 533 526 q 642 472 613 497 q 687 412 671 447 q 703 335 703 376 q 689 248 703 290 q 645 172 675 206 q 570 119 615 139 q 463 99 525 99 q 282 171 347 99 q 234 249 251 204 q 209 341 217 293 q 201 438 201 389 q 206 531 201 488 q 294 780 221 694 q 492 865 367 865 q 590 853 544 865 q 685 813 636 840 l 676 799 q 587 838 632 826 q 492 850 542 850 m 460 167 q 332 208 381 167 q 283 318 283 250 l 283 321 q 331 428 283 388 q 457 468 378 468 q 585 427 536 468 q 633 319 633 386 l 633 317 q 586 207 633 247 q 460 167 539 167 m 299 318 q 343 219 299 256 q 460 182 388 182 q 575 218 532 182 q 618 317 618 254 l 618 319 q 575 417 618 381 q 457 453 532 453 q 342 417 385 453 q 299 321 299 381 l 299 318 m 499 983 q 204 861 313 983 q 83 514 96 739 l 68 515 q 104 710 75 622 q 185 860 133 797 q 499 999 299 999 q 660 974 589 999 q 806 892 732 949 l 796 879 q 657 959 726 935 q 499 983 588 983 m 497 644 q 640 622 576 644 q 750 559 704 600 q 820 460 796 518 q 844 329 844 401 l 844 326 q 816 189 844 251 q 738 81 788 126 q 619 10 688 36 q 468 -15 550 -15 q 308 10 376 -15 q 185 90 239 36 q 96 240 124 151 q 67 460 68 328 l 82 460 q 110 245 83 331 q 194 101 136 160 q 314 24 247 49 q 468 0 381 0 q 613 24 547 0 q 727 92 679 49 q 802 196 775 136 q 829 326 829 256 l 829 329 q 806 453 829 397 q 739 547 782 508 q 634 608 696 586 q 497 629 572 629 q 380 610 425 629 q 301 568 335 590 l 288 560 l 290 575 q 354 746 301 686 q 492 806 407 806 q 596 787 553 806 q 688 732 639 768 l 754 831 q 652 890 714 863 q 499 918 590 918 q 317 871 386 918 q 212 754 249 824 q 163 606 175 685 q 151 464 151 528 l 151 461 q 242 146 151 240 q 432 58 313 69 l 431 43 q 231 135 306 54 q 136 461 136 235 l 136 464 q 157 651 136 567 q 218 794 178 735 q 499 933 311 933 q 589 925 549 933 q 663 903 629 917 q 722 872 696 889 q 769 839 749 856 l 775 833 l 692 710 l 685 715 q 594 771 636 751 q 492 790 551 790 q 408 771 442 790 q 353 722 375 751 q 322 656 332 692 q 307 590 311 621 q 385 628 340 611 q 497 644 429 644 m 499 572 q 364 548 419 572 q 276 499 308 524 l 268 510 q 358 563 301 538 q 499 588 415 588 q 612 567 560 588 q 703 507 664 547 q 756 428 738 472 q 772 335 774 383 q 697 126 772 203 q 488 42 622 49 l 486 57 q 685 136 614 64 q 757 335 757 208 q 741 422 758 381 q 692 496 724 464 q 606 553 656 533 q 499 572 557 572 z "},"7":{"ha":860,"x_min":89,"x_max":800,"o":"m 364 0 l 186 0 l 625 796 l 625 843 l 158 843 l 158 858 l 640 858 l 640 792 l 639 790 l 213 15 l 356 15 l 785 815 l 785 967 l 97 967 l 97 982 l 800 982 l 800 811 l 364 0 m 126 4 l 113 11 l 539 782 l 89 782 l 89 921 l 724 921 l 724 811 l 318 57 l 304 64 l 708 815 l 708 906 l 104 906 l 104 797 l 564 797 l 126 4 z "},"8":{"ha":875,"x_min":57,"x_max":817,"o":"m 438 569 q 332 605 372 569 q 292 696 292 640 l 292 699 q 301 742 292 721 q 328 781 310 764 q 374 808 347 797 q 438 818 401 818 q 529 793 490 818 q 579 726 568 768 l 564 722 q 519 781 553 758 q 438 803 486 803 q 340 770 372 803 q 307 699 307 738 l 307 696 q 343 616 307 647 q 438 585 379 585 q 522 608 488 585 q 565 671 556 631 l 579 668 q 531 596 569 622 q 438 569 493 569 m 438 160 q 310 195 358 160 q 263 288 263 231 l 263 290 q 310 382 263 347 q 438 417 358 417 q 564 382 517 417 q 611 290 611 347 l 611 288 q 564 194 611 229 q 438 160 517 160 m 438 401 q 321 372 364 401 q 278 290 278 342 l 278 288 q 322 206 278 238 q 438 175 367 175 q 552 206 508 175 q 596 288 596 238 l 596 290 q 553 372 596 342 q 438 401 510 401 m 438 -15 q 290 3 357 -15 q 172 57 222 22 q 92 140 122 92 q 57 247 63 189 l 72 249 q 106 147 78 193 q 183 69 135 101 q 295 18 231 36 q 438 0 360 0 q 588 19 521 0 q 702 75 654 39 q 776 163 750 111 q 801 276 801 214 l 801 279 q 767 407 801 356 q 650 500 732 458 l 638 507 l 650 514 q 741 600 713 551 q 769 718 769 649 l 769 721 q 744 824 769 776 q 675 905 719 871 q 570 958 631 939 q 438 978 510 978 q 304 958 365 978 q 199 905 243 939 q 129 824 154 871 q 104 721 104 776 l 104 718 q 133 600 104 649 q 224 514 161 551 l 236 506 l 224 500 q 115 419 151 467 q 74 303 79 372 l 58 304 q 204 508 68 440 q 117 598 146 547 q 89 718 89 649 l 89 721 q 115 831 89 781 q 188 917 142 881 q 299 973 235 953 q 438 993 363 993 q 576 973 513 993 q 686 917 640 953 q 758 831 732 881 q 785 721 785 781 l 785 718 q 756 598 785 649 q 668 507 728 547 q 782 410 747 464 q 817 279 817 357 l 817 276 q 708 61 817 140 q 588 4 657 24 q 438 -15 519 -15 m 438 101 q 333 115 381 101 q 253 153 286 129 q 201 212 219 178 q 182 288 182 246 l 182 292 q 252 425 182 375 q 438 475 322 475 q 541 462 494 475 q 621 424 588 449 q 673 367 654 400 q 692 292 692 333 l 692 288 q 673 212 692 246 q 621 153 654 178 q 541 115 588 128 q 438 101 494 101 m 438 460 q 262 414 326 460 q 197 292 197 368 l 197 288 q 215 218 197 250 q 264 164 232 186 q 340 129 296 142 q 438 117 385 117 q 611 163 546 117 q 676 288 676 210 l 676 292 q 612 414 676 368 q 438 460 547 460 m 438 517 q 285 567 343 517 q 226 700 226 618 l 226 704 q 240 769 226 739 q 280 823 254 800 q 342 859 306 846 q 421 875 378 872 l 421 860 q 348 846 381 858 q 292 813 315 833 q 255 764 268 792 q 242 704 242 736 l 242 700 q 296 578 242 625 q 438 532 350 532 q 578 577 525 532 q 632 697 632 622 l 632 701 q 590 805 632 763 q 476 858 547 847 l 478 874 q 601 815 554 863 q 647 701 647 768 l 647 697 q 632 624 647 657 q 589 567 617 592 q 522 530 561 543 q 438 517 483 517 m 421 36 q 299 56 354 38 q 205 108 244 75 q 144 185 165 140 q 122 282 122 229 l 122 283 q 256 490 122 425 q 304 508 276 500 q 261 525 283 514 q 226 551 244 535 q 194 591 208 568 q 170 643 179 614 q 161 707 161 672 l 161 708 q 182 800 161 758 q 239 872 203 842 q 326 919 275 901 q 438 936 376 936 q 548 919 497 936 q 635 872 599 901 q 692 800 671 842 q 713 708 713 758 l 713 707 q 703 643 713 672 q 680 591 694 614 q 647 551 665 568 q 611 525 629 535 q 567 508 592 515 q 593 501 581 506 q 618 490 606 496 q 716 406 681 458 q 751 289 751 353 l 751 286 q 732 190 751 233 q 677 115 713 147 q 591 63 642 82 q 478 38 540 43 l 476 53 q 667 125 597 63 q 736 286 736 188 l 736 289 q 703 398 736 349 q 611 476 669 447 q 522 500 569 496 l 522 515 q 604 539 569 522 q 637 563 621 547 q 667 599 653 578 q 689 648 681 621 q 697 707 697 675 l 697 708 q 678 794 697 754 q 624 861 658 833 q 541 905 589 889 q 438 921 493 921 q 333 905 381 921 q 250 861 285 889 q 196 794 215 833 q 176 708 176 754 l 176 707 q 185 648 176 675 q 207 600 193 621 q 237 563 221 579 q 269 539 253 547 q 353 515 303 519 l 353 500 q 263 476 299 496 q 138 283 138 415 l 138 282 q 158 191 138 232 q 215 119 178 150 q 305 71 253 89 q 421 51 357 53 l 421 36 z "},"9":{"ha":919,"x_min":72,"x_max":850,"o":"m 426 133 q 551 163 501 133 q 631 240 600 193 q 676 343 661 286 q 696 454 692 400 q 700 544 700 496 q 692 639 700 592 q 669 728 685 686 q 624 803 653 771 q 456 869 563 869 q 350 849 393 869 q 280 797 307 829 q 241 726 253 765 q 229 649 229 688 q 244 578 229 611 q 287 522 260 546 q 351 485 314 499 q 432 472 388 472 q 511 482 475 472 q 574 506 547 492 q 619 534 601 519 q 643 557 636 549 l 656 547 q 629 522 647 538 q 583 492 611 507 q 516 467 554 478 q 432 457 478 457 q 344 472 385 457 q 275 511 304 486 q 230 572 246 536 q 214 649 214 607 q 228 735 214 693 q 272 811 243 778 q 347 865 301 844 q 456 885 393 885 q 636 814 569 885 q 683 736 667 781 q 708 643 700 692 q 715 545 715 594 q 711 453 715 496 q 623 204 696 290 q 426 118 550 118 q 327 131 374 118 q 233 171 281 143 l 240 185 q 331 145 286 157 q 426 133 375 133 m 457 817 q 585 775 536 817 q 633 665 633 733 l 633 663 q 586 556 633 596 q 460 515 539 515 q 333 556 381 515 q 285 664 285 597 l 285 667 q 331 776 285 736 q 457 817 378 817 m 618 665 q 574 765 618 728 q 457 801 531 801 q 342 765 385 801 q 300 667 300 729 l 300 664 q 343 567 300 603 q 460 531 386 531 q 575 567 532 531 q 618 663 618 603 l 618 665 m 418 0 q 714 122 606 0 q 833 469 822 244 l 849 469 q 732 124 838 251 q 418 -15 619 -15 q 256 10 328 -15 q 111 92 183 35 l 121 104 q 261 24 192 49 q 418 0 331 0 m 419 339 q 276 361 340 339 q 167 424 213 383 q 97 524 122 465 q 72 654 72 582 l 72 657 q 101 794 72 732 q 179 902 129 857 q 298 973 229 947 q 449 999 367 999 q 610 973 540 999 q 733 893 679 947 q 822 744 794 832 q 850 525 850 656 l 835 524 q 808 738 835 653 q 722 882 781 824 q 603 959 669 935 q 449 983 538 983 q 304 959 371 983 q 190 892 238 935 q 115 788 142 849 q 88 657 88 728 l 88 654 q 111 531 88 586 q 178 436 135 475 q 283 376 221 397 q 419 354 344 354 q 537 374 492 354 q 617 415 582 393 l 629 424 l 628 408 q 564 238 617 297 q 425 178 511 178 q 322 197 365 178 q 231 251 279 215 l 163 153 q 265 93 204 121 q 418 65 326 65 q 549 88 493 65 q 642 146 604 110 q 705 229 681 182 q 742 327 729 276 q 760 428 756 378 q 765 521 765 478 l 765 522 q 676 838 765 743 q 486 925 604 914 l 488 940 q 688 849 610 929 q 758 717 735 797 q 781 522 781 638 l 781 521 q 760 333 781 417 q 699 189 739 249 q 418 50 604 50 q 329 59 369 50 q 256 81 289 68 q 196 112 222 94 q 147 146 169 129 l 142 150 l 226 274 l 233 268 q 324 213 282 232 q 425 193 367 193 q 508 213 475 193 q 563 263 542 233 q 596 328 585 293 q 611 393 607 363 q 533 356 578 372 q 419 339 488 339 m 419 411 q 553 435 499 411 q 640 486 608 460 l 650 474 q 560 421 617 446 q 419 396 503 396 q 306 417 358 396 q 214 476 253 438 q 163 556 181 513 q 146 649 144 600 q 221 858 146 781 q 431 942 296 935 l 431 926 q 232 847 303 919 q 161 649 161 775 q 225 488 158 554 q 311 431 261 451 q 419 411 361 411 z "}," ":{"ha":417,"x_min":0,"x_max":0,"o":""},"%":{"ha":1194,"x_min":54,"x_max":1133,"o":"m 244 -7 l 161 -7 l 875 975 l 886 967 l 192 8 l 236 8 l 940 979 l 1031 979 l 318 -3 l 306 6 l 1000 964 l 949 964 l 244 -7 m 296 476 q 203 494 246 476 q 128 542 160 511 q 76 617 96 574 q 56 711 57 660 l 71 713 q 90 623 72 664 q 138 553 108 582 q 208 508 168 524 q 296 492 249 492 q 388 510 346 492 q 459 559 429 528 q 506 633 489 590 q 524 728 524 676 l 524 729 q 507 824 524 781 q 460 898 490 867 q 388 947 429 929 q 297 964 347 964 q 208 947 249 964 q 137 901 167 931 q 89 830 107 871 q 69 739 71 789 l 54 739 q 75 835 56 790 q 127 911 94 879 q 203 961 160 943 q 297 979 247 979 q 394 960 350 979 q 471 908 439 942 q 521 829 503 875 q 539 729 539 783 l 539 728 q 521 627 539 674 q 470 547 503 581 q 393 495 438 514 q 296 476 349 476 m 299 514 q 225 530 258 514 q 168 574 192 546 q 131 642 144 603 q 118 728 118 681 l 118 729 q 163 876 118 818 q 279 940 207 933 l 281 925 q 174 865 214 918 q 133 729 133 813 l 133 728 q 145 647 133 683 q 179 585 157 611 q 232 544 201 558 q 299 529 263 529 q 415 583 371 529 q 460 726 460 638 l 460 728 q 419 864 460 810 q 313 925 379 918 l 315 940 q 380 919 350 936 q 431 873 410 901 q 463 808 451 844 q 475 728 475 771 l 475 726 q 426 573 475 632 q 299 514 378 514 m 297 569 q 208 613 243 569 q 174 728 174 657 l 174 729 q 208 842 174 799 q 296 885 242 885 q 383 844 349 885 q 419 739 417 804 l 404 738 q 372 833 401 796 q 296 869 342 869 q 218 831 247 869 q 189 729 189 793 l 189 728 q 219 625 189 665 q 297 585 249 585 q 372 619 343 585 q 404 713 401 654 l 419 711 q 382 608 415 647 q 297 569 349 569 m 890 -7 q 796 10 839 -7 q 721 59 753 28 q 670 133 689 90 q 649 228 651 176 l 664 229 q 684 140 667 181 q 731 71 701 100 q 801 25 761 42 q 890 8 842 8 q 982 26 940 8 q 1053 76 1024 44 q 1101 150 1083 107 q 1118 244 1118 193 l 1118 246 q 1101 340 1118 297 q 1053 415 1083 383 q 982 463 1024 446 q 892 481 940 481 q 802 464 843 481 q 731 417 761 447 q 683 347 700 388 q 664 256 665 306 l 649 256 q 669 351 650 307 q 721 428 689 396 q 797 478 753 460 q 892 496 840 496 q 989 477 944 496 q 1065 425 1033 458 q 1115 346 1097 392 q 1133 246 1133 300 l 1133 244 q 1115 144 1133 190 q 1065 64 1097 97 q 988 12 1032 31 q 890 -7 943 -7 m 892 32 q 819 47 851 32 q 763 91 786 63 q 726 158 739 119 q 713 244 713 197 l 713 246 q 756 392 713 335 q 874 457 800 450 l 875 442 q 768 383 808 436 q 728 246 728 329 l 728 244 q 773 102 728 157 q 892 47 818 47 q 1010 101 965 47 q 1054 243 1054 154 l 1054 244 q 1014 381 1054 326 q 907 442 974 435 l 908 457 q 973 435 943 453 q 1024 390 1003 418 q 1058 325 1046 363 q 1069 244 1069 288 l 1069 243 q 1020 90 1069 149 q 892 32 971 32 m 892 88 q 802 131 836 88 q 768 244 768 174 l 768 246 q 802 359 768 315 q 890 403 836 403 q 976 362 942 403 q 1014 256 1011 321 l 999 256 q 965 351 996 314 q 890 388 935 388 q 813 349 842 388 q 783 246 783 310 l 783 244 q 813 142 783 182 q 892 103 843 103 q 965 137 936 103 q 999 229 994 171 l 1014 228 q 976 126 1010 165 q 892 88 943 88 z "},"&":{"ha":967,"x_min":36,"x_max":936,"o":"m 936 99 l 821 18 l 663 179 q 631 149 646 163 q 617 135 617 136 q 376 44 506 44 q 264 62 315 44 q 176 110 213 79 q 119 186 139 142 q 99 283 99 231 l 99 286 q 275 510 99 431 l 331 532 l 394 558 q 558 642 510 599 q 606 746 606 685 l 606 751 q 566 849 606 813 q 460 885 526 885 q 350 844 392 885 q 308 738 308 804 l 308 733 q 321 665 308 697 q 361 596 333 632 q 367 588 364 592 q 374 581 371 585 l 361 571 q 349 586 353 582 q 306 659 319 625 q 293 733 293 693 l 293 738 q 339 856 293 811 q 460 900 385 900 q 576 859 532 900 q 621 751 621 818 l 621 746 q 606 678 621 707 q 562 624 590 649 q 492 581 533 600 q 400 543 451 561 l 336 518 l 282 496 q 114 286 114 421 l 114 283 q 133 192 114 233 q 188 122 153 151 q 270 76 222 93 q 376 60 318 60 q 606 147 501 60 q 622 163 614 154 q 638 178 629 169 q 657 196 647 186 l 663 201 l 822 39 l 913 101 l 771 242 l 775 247 q 841 346 811 296 q 899 444 871 396 l 853 469 l 811 493 q 758 401 788 449 q 694 307 729 353 l 661 264 l 454 471 l 464 482 l 660 286 l 683 317 q 748 413 718 364 q 801 507 778 463 l 806 514 l 861 483 l 857 476 l 861 483 l 919 451 l 915 444 q 858 343 888 394 q 792 243 828 292 l 936 99 m 656 114 l 772 -4 l 761 -15 l 654 93 q 371 -12 524 -12 q 235 9 297 -12 q 129 69 174 31 q 60 160 85 107 q 36 276 36 213 l 36 279 q 222 549 36 461 q 157 739 157 643 l 157 742 q 176 838 157 790 q 234 922 196 885 q 328 983 272 960 q 460 1006 385 1006 q 572 987 521 1006 q 661 934 624 968 q 719 853 699 900 q 740 753 740 807 l 740 750 q 542 494 740 575 l 656 379 q 744 538 701 450 l 758 531 q 711 442 735 483 q 664 364 688 400 l 658 356 l 515 500 l 526 504 q 725 750 725 581 l 725 753 q 705 848 725 804 q 649 923 685 892 q 565 972 614 954 q 460 990 517 990 q 335 969 389 990 q 245 913 282 947 q 190 833 208 878 q 172 742 172 788 l 172 739 q 189 644 172 690 q 239 550 206 599 l 244 542 l 236 538 q 51 279 51 454 l 51 276 q 75 165 51 215 q 141 80 99 115 q 242 24 183 44 q 371 4 300 4 q 650 110 519 4 l 656 114 m 432 500 l 378 476 l 315 449 q 221 374 253 418 q 189 276 189 329 l 189 272 q 242 163 189 206 q 378 121 294 121 q 575 197 476 121 q 588 207 582 201 q 599 217 593 211 q 613 231 606 224 l 397 450 l 408 460 l 633 231 l 629 225 q 600 198 614 210 q 585 185 586 186 q 378 106 481 106 q 231 151 288 106 q 174 272 174 197 l 174 276 q 208 382 174 335 q 308 463 243 429 l 372 490 l 426 514 l 510 550 q 665 750 665 611 l 665 753 q 650 829 665 794 q 607 889 635 864 q 541 928 579 914 q 458 943 503 943 q 361 926 403 943 q 291 881 319 908 q 248 817 263 853 q 233 743 233 781 l 233 740 q 286 586 233 664 l 307 557 l 294 549 l 274 578 q 218 740 218 660 l 218 743 q 233 822 218 783 q 279 892 249 861 q 355 941 310 922 q 458 960 400 960 q 548 944 507 960 q 618 901 589 929 q 664 835 647 874 q 681 753 681 797 l 681 750 q 515 536 681 603 l 432 500 m 839 429 q 789 346 813 383 q 742 276 765 308 l 710 236 l 839 108 l 828 97 l 689 235 l 729 286 q 776 355 753 318 q 826 438 799 392 l 839 429 m 447 824 q 390 797 411 821 q 368 732 368 772 l 368 729 q 380 676 368 701 q 419 618 392 651 q 511 671 483 643 q 539 738 539 699 l 539 740 q 524 792 539 771 q 481 819 508 813 l 485 835 q 535 801 517 826 q 554 740 554 776 l 554 738 q 523 661 554 693 q 421 601 492 629 l 415 600 l 411 604 q 366 669 379 640 q 353 729 353 697 l 353 732 q 378 806 353 776 q 447 839 404 836 l 447 824 m 272 253 q 317 198 283 218 q 396 178 350 178 q 524 226 458 178 l 349 406 q 267 288 267 360 l 267 286 l 251 286 l 251 288 q 346 422 251 372 l 351 424 l 547 225 l 540 219 q 396 163 467 163 q 308 185 344 163 q 257 249 271 208 l 272 253 z "},"*":{"ha":597,"x_min":72,"x_max":528,"o":"m 261 761 l 94 858 l 124 907 l 250 833 l 250 972 l 265 972 l 265 807 l 129 886 l 115 864 l 269 775 l 261 761 m 103 622 l 72 671 l 200 746 l 79 815 l 88 829 l 231 746 l 94 665 l 108 643 l 246 724 l 254 710 l 103 622 m 351 519 l 336 519 l 336 683 l 472 604 l 486 628 l 340 713 l 347 725 l 507 632 l 476 583 l 351 657 l 351 519 m 514 663 l 371 746 l 507 825 l 492 851 l 296 738 l 296 979 l 351 979 l 351 833 l 471 904 l 478 890 l 336 807 l 336 964 l 311 964 l 311 764 l 497 874 l 528 819 l 401 746 l 522 675 l 514 663 m 311 511 l 250 511 l 250 657 l 131 588 l 124 600 l 265 683 l 265 526 l 296 526 l 296 713 l 311 713 l 311 511 z "},"+":{"ha":889,"x_min":94,"x_max":797,"o":"m 488 522 l 146 522 l 146 538 l 472 538 l 472 796 l 488 796 l 488 522 m 789 586 l 535 586 l 535 832 l 419 832 l 419 593 l 404 593 l 404 847 l 550 847 l 550 601 l 789 601 l 789 586 m 550 153 l 535 153 l 535 407 l 782 407 l 782 522 l 543 522 l 543 538 l 797 538 l 797 392 l 550 392 l 550 153 m 488 144 l 342 144 l 342 392 l 101 392 l 101 407 l 357 407 l 357 160 l 472 160 l 472 469 l 746 469 l 746 454 l 488 454 l 488 144 m 419 196 l 404 196 l 404 454 l 94 454 l 94 601 l 342 601 l 342 840 l 357 840 l 357 586 l 110 586 l 110 469 l 419 469 l 419 196 z "},",":{"ha":397,"x_min":36,"x_max":318,"o":"m 224 94 l 172 94 l 172 146 l 224 146 l 224 94 m 188 110 l 208 110 l 208 131 l 188 131 l 188 110 m 38 -135 l 36 -119 q 83 -111 58 -118 q 126 -90 107 -104 q 156 -54 144 -76 q 165 1 167 -32 l 79 1 l 79 238 l 181 238 l 181 222 l 94 222 l 94 17 l 179 17 l 179 10 q 149 -90 186 -53 q 38 -135 113 -128 m 92 -171 l 89 -156 q 151 -138 124 -150 q 197 -104 179 -126 q 225 -47 215 -82 q 235 44 235 -11 l 235 50 l 128 50 l 128 189 l 268 189 l 268 86 l 253 86 l 253 174 l 143 174 l 143 65 l 250 65 l 250 44 q 240 -53 250 -14 q 208 -115 229 -92 q 158 -151 188 -139 q 92 -171 129 -164 m 49 -222 l 36 -161 l 51 -158 l 61 -207 q 244 -142 186 -203 q 303 44 303 -82 l 303 222 l 224 222 l 224 238 l 318 238 l 318 44 q 56 -222 318 -218 l 49 -222 z "},"-":{"ha":567,"x_min":63,"x_max":503,"o":"m 468 390 l 63 390 l 63 533 l 496 533 l 496 518 l 78 518 l 78 406 l 468 406 l 468 390 m 503 328 l 69 328 l 69 343 l 488 343 l 488 457 l 97 457 l 97 472 l 503 472 l 503 328 z "},".":{"ha":397,"x_min":69,"x_max":308,"o":"m 260 49 l 119 49 l 119 188 l 260 188 l 260 146 l 244 146 l 244 172 l 135 172 l 135 64 l 244 64 l 244 90 l 260 90 l 260 49 m 308 0 l 215 0 l 215 15 l 293 15 l 293 221 l 85 221 l 85 15 l 167 15 l 167 0 l 69 0 l 69 236 l 308 236 l 308 0 m 215 92 l 164 92 l 164 143 l 215 143 l 215 92 m 179 107 l 200 107 l 200 128 l 179 128 l 179 107 z "},"/":{"ha":736,"x_min":-47,"x_max":767,"o":"m 88 -176 l -47 -176 l 569 1114 l 583 1107 l -24 -161 l 78 -161 l 661 1057 l 675 1051 l 88 -176 m 150 -172 l 136 -165 l 743 1103 l 642 1103 l 61 -112 l 47 -106 l 633 1118 l 767 1118 l 150 -172 z "},":":{"ha":411,"x_min":88,"x_max":326,"o":"m 278 49 l 138 49 l 138 188 l 278 188 l 278 146 l 263 146 l 263 172 l 153 172 l 153 64 l 263 64 l 263 90 l 278 90 l 278 49 m 326 0 l 233 0 l 233 15 l 311 15 l 311 221 l 103 221 l 103 15 l 185 15 l 185 0 l 88 0 l 88 236 l 326 236 l 326 0 m 233 92 l 182 92 l 182 143 l 233 143 l 233 92 m 197 107 l 218 107 l 218 128 l 197 128 l 197 107 m 278 568 l 138 568 l 138 610 l 153 610 l 153 583 l 263 583 l 263 692 l 153 692 l 153 665 l 138 665 l 138 707 l 278 707 l 278 568 m 326 519 l 88 519 l 88 756 l 182 756 l 182 740 l 103 740 l 103 535 l 311 535 l 311 740 l 231 740 l 231 756 l 326 756 l 326 519 m 233 611 l 182 611 l 182 663 l 233 663 l 233 611 m 197 626 l 218 626 l 218 647 l 197 647 l 197 626 z "},";":{"ha":411,"x_min":44,"x_max":326,"o":"m 232 94 l 181 94 l 181 146 l 232 146 l 232 94 m 196 110 l 217 110 l 217 131 l 196 131 l 196 110 m 276 569 l 136 569 l 136 613 l 151 613 l 151 585 l 261 585 l 261 693 l 151 693 l 151 667 l 136 667 l 136 708 l 276 708 l 276 569 m 326 521 l 88 521 l 88 757 l 181 757 l 181 742 l 103 742 l 103 536 l 311 536 l 311 742 l 229 742 l 229 757 l 326 757 l 326 521 m 232 614 l 181 614 l 181 665 l 232 665 l 232 614 m 196 629 l 217 629 l 217 650 l 196 650 l 196 629 m 46 -135 l 44 -119 q 91 -111 67 -118 q 134 -90 115 -104 q 164 -54 153 -76 q 174 1 175 -32 l 88 1 l 88 238 l 189 238 l 189 222 l 103 222 l 103 17 l 188 17 l 188 10 q 158 -90 194 -53 q 46 -135 121 -128 m 100 -171 l 97 -156 q 160 -138 132 -150 q 206 -104 188 -126 q 233 -47 224 -82 q 243 44 243 -11 l 243 50 l 136 50 l 136 189 l 276 189 l 276 86 l 261 86 l 261 174 l 151 174 l 151 65 l 258 65 l 258 44 q 248 -53 258 -14 q 217 -115 238 -92 q 167 -151 196 -139 q 100 -171 138 -164 m 57 -222 l 44 -161 l 60 -158 l 69 -207 q 253 -142 194 -203 q 311 44 311 -82 l 311 222 l 232 222 l 232 238 l 326 238 l 326 44 q 64 -222 326 -218 l 57 -222 z "},"=":{"ha":889,"x_min":107,"x_max":776,"o":"m 728 635 l 107 635 l 107 779 l 769 779 l 769 764 l 122 764 l 122 650 l 728 650 l 728 635 m 776 574 l 114 574 l 114 589 l 761 589 l 761 701 l 156 701 l 156 717 l 776 717 l 776 574 m 728 275 l 107 275 l 107 419 l 769 419 l 769 404 l 122 404 l 122 290 l 728 290 l 728 275 m 776 214 l 114 214 l 114 229 l 761 229 l 761 343 l 156 343 l 156 358 l 776 358 l 776 214 z "},"?":{"ha":756,"x_min":22,"x_max":708,"o":"m 406 49 l 364 49 l 364 64 l 390 64 l 390 174 l 282 174 l 282 64 l 308 64 l 308 49 l 267 49 l 267 189 l 406 189 l 406 49 m 454 0 l 218 0 l 218 93 l 233 93 l 233 15 l 439 15 l 439 224 l 233 224 l 233 142 l 218 142 l 218 239 l 454 239 l 454 0 m 361 93 l 311 93 l 311 144 l 361 144 l 361 93 m 326 108 l 346 108 l 346 129 l 326 129 l 326 108 m 265 336 l 232 564 l 244 575 l 247 575 q 482 693 482 585 l 482 696 q 451 763 482 740 q 363 786 419 786 q 257 764 306 786 q 160 693 208 742 l 154 688 l 60 793 l 64 797 q 204 901 131 868 q 365 933 278 933 q 569 870 494 933 q 643 697 643 807 q 622 596 643 636 q 569 531 601 556 q 497 492 538 506 q 418 471 457 478 l 381 463 l 381 424 l 365 424 l 365 475 l 415 485 q 577 558 526 507 q 628 697 628 608 q 558 859 628 800 q 365 918 488 918 q 213 888 282 918 q 81 792 143 857 l 156 710 q 363 801 249 801 q 461 774 425 801 q 497 696 497 746 l 497 693 q 250 560 497 569 l 249 558 l 279 339 l 265 336 m 419 329 l 326 329 l 300 517 l 308 518 q 556 696 556 551 l 556 700 q 507 812 556 771 q 375 853 458 853 q 153 776 256 853 l 143 789 q 375 868 251 868 q 519 824 467 868 q 571 700 571 779 l 571 696 q 317 504 571 539 l 340 344 l 407 344 l 422 428 l 426 429 q 628 522 564 457 q 693 699 693 588 l 693 701 q 670 817 693 765 q 605 906 647 869 q 502 961 563 942 q 367 981 442 981 q 33 833 167 981 l 22 843 q 367 996 161 996 q 509 976 446 996 q 617 917 572 956 q 685 824 661 879 q 708 701 708 769 l 708 699 q 435 415 708 471 l 419 329 z "},"@":{"ha":1361,"x_min":69,"x_max":1292,"o":"m 642 231 q 542 269 579 231 q 504 372 504 307 q 518 451 504 414 q 556 515 532 488 q 610 558 579 542 q 678 574 642 574 q 776 536 739 574 q 814 438 814 499 q 800 357 814 394 q 763 291 786 319 q 708 247 740 263 q 642 231 676 231 m 678 558 q 616 544 644 558 q 566 504 588 529 q 532 445 544 479 q 519 372 519 411 q 552 280 519 314 q 642 246 585 246 q 702 261 674 246 q 752 302 731 276 q 786 363 774 328 q 799 438 799 397 q 765 525 799 492 q 678 558 732 558 m 693 -225 q 448 -178 561 -225 q 250 -49 335 -131 q 117 145 165 33 q 69 385 69 257 q 117 623 69 511 q 249 818 165 735 q 444 949 332 901 q 682 997 556 997 q 916 953 804 997 q 1115 828 1028 910 q 1245 648 1199 749 q 1292 443 1292 547 q 1272 297 1292 363 q 1215 185 1251 232 q 1125 114 1178 139 q 1008 89 1072 89 q 874 115 924 89 q 797 168 824 140 q 593 89 706 89 q 488 109 536 89 q 406 165 440 129 q 352 251 371 201 q 333 363 333 301 q 358 499 333 435 q 427 611 383 563 q 528 688 471 660 q 650 717 585 717 q 836 632 765 717 l 850 697 l 1028 668 l 961 289 q 958 267 958 279 q 957 247 957 256 q 982 190 957 211 q 1050 168 1007 168 q 1173 242 1128 168 q 1218 443 1218 317 q 1175 628 1218 540 q 1059 783 1132 717 q 888 888 986 849 q 682 926 790 926 q 470 885 568 926 q 299 770 372 843 q 185 598 226 697 q 143 385 143 499 q 185 171 143 269 q 300 0 226 72 q 474 -113 374 -72 q 693 -154 575 -154 q 866 -133 788 -154 q 1028 -64 944 -112 l 1035 -76 q 870 -148 950 -126 q 693 -169 790 -169 q 469 -127 572 -169 q 290 -11 365 -85 q 171 164 214 63 q 128 385 128 265 q 171 603 128 501 q 288 781 214 706 q 464 899 363 856 q 682 942 565 942 q 895 903 794 942 q 1075 789 996 864 q 1192 628 1151 718 q 1233 443 1233 539 q 1220 323 1233 376 q 1183 232 1207 269 q 1126 174 1160 194 q 1050 153 1092 153 q 972 179 1001 153 q 942 247 942 206 q 942 268 942 256 q 946 292 943 281 l 1010 656 l 861 679 l 844 597 l 835 610 q 650 701 768 701 q 534 674 589 701 q 438 601 479 647 q 373 492 397 554 q 349 363 349 431 q 367 258 349 306 q 417 176 385 210 q 494 123 449 142 q 593 104 539 104 q 793 185 704 104 l 799 190 l 803 183 q 833 156 815 169 q 875 130 850 142 q 933 111 900 118 q 1008 104 967 104 q 1119 128 1069 104 q 1203 196 1168 151 q 1258 303 1239 240 q 1276 443 1276 365 q 1228 651 1276 553 q 1099 822 1181 749 q 910 939 1018 896 q 682 982 803 982 q 450 935 558 982 q 260 806 342 888 q 132 617 179 725 q 85 385 85 508 q 132 151 85 260 q 261 -37 179 43 q 454 -164 343 -118 q 693 -210 565 -210 q 881 -185 793 -210 q 1054 -107 968 -160 l 1063 -121 q 885 -199 975 -174 q 693 -225 794 -225 m 896 247 q 897 260 896 254 q 897 274 897 267 l 958 622 l 901 632 l 893 633 l 892 625 l 836 310 q 815 283 832 304 q 778 242 799 261 q 713 199 754 218 q 619 181 671 181 q 540 195 576 181 q 478 235 504 210 q 439 297 453 261 q 425 378 425 333 q 444 477 425 431 q 497 559 464 524 q 572 615 529 594 q 664 636 615 636 q 811 567 758 636 l 822 576 q 664 651 765 651 q 566 630 613 651 q 485 571 519 608 q 430 483 450 533 q 410 378 410 433 q 425 292 410 331 q 468 224 440 253 q 535 181 496 196 q 619 165 574 165 q 718 186 674 165 q 788 231 763 207 q 811 254 800 242 q 831 278 822 267 q 849 303 840 290 l 850 304 l 906 615 l 940 610 l 882 275 q 881 261 882 268 q 881 247 881 254 q 884 213 881 231 q 899 177 888 194 q 931 146 910 160 q 988 126 951 132 l 990 142 q 940 158 958 147 q 912 184 922 169 q 899 215 901 199 q 896 247 896 232 z "},"A":{"ha":1097,"x_min":26,"x_max":1069,"o":"m 408 404 l 549 746 l 688 404 l 408 404 m 549 706 l 431 419 l 665 419 l 549 706 m 600 928 l 994 0 l 836 0 l 747 217 l 349 217 l 263 4 l 249 10 l 339 232 l 757 232 l 846 15 l 972 15 l 590 913 l 508 913 l 149 65 l 133 71 l 499 928 l 600 928 m 1069 10 l 1056 4 l 643 974 l 458 974 l 50 15 l 179 15 l 547 881 l 892 71 l 878 65 l 786 279 l 358 279 l 358 294 l 779 294 l 547 842 l 340 354 l 706 354 l 706 339 l 333 339 l 189 0 l 26 0 l 447 989 l 654 989 l 1069 10 z "},"B":{"ha":1003,"x_min":108,"x_max":944,"o":"m 681 685 q 674 646 681 665 q 649 611 667 626 q 601 585 632 596 q 519 575 569 575 l 315 575 l 315 794 l 533 794 q 642 767 604 794 q 681 688 681 739 l 681 685 m 331 590 l 519 590 q 665 685 665 590 l 665 688 q 631 756 665 732 q 533 779 597 779 l 331 779 l 331 590 m 774 514 q 903 420 863 478 q 944 275 944 363 l 944 272 q 849 71 944 142 q 575 0 753 0 l 108 0 l 108 974 l 124 974 l 124 15 l 575 15 q 837 82 744 15 q 929 272 929 149 l 929 275 q 888 415 929 361 q 754 506 846 469 l 739 511 l 753 519 q 876 721 876 588 l 876 724 q 813 883 876 819 q 564 967 726 967 l 185 967 l 185 982 l 564 982 q 822 893 736 982 q 892 724 892 824 l 892 721 q 774 514 892 586 m 733 299 q 727 259 733 279 q 703 223 721 239 q 656 197 686 207 q 575 186 625 186 l 315 186 l 315 414 l 568 414 q 652 403 619 414 q 703 377 685 393 q 727 341 721 361 q 733 301 733 321 l 733 299 m 331 201 l 575 201 q 718 299 718 201 l 718 301 q 568 399 718 399 l 331 399 l 331 201 m 760 685 q 747 603 760 636 q 706 551 735 571 q 628 523 676 532 q 511 514 581 514 l 176 514 l 176 919 l 575 919 q 772 851 704 919 q 825 722 825 799 l 825 719 l 810 719 l 810 722 q 761 840 810 792 q 575 904 697 904 l 192 904 l 192 529 l 511 529 q 632 539 586 529 q 703 567 678 549 q 736 615 728 586 q 744 685 744 644 l 744 690 q 690 809 744 768 q 533 850 636 850 l 261 850 l 261 575 l 246 575 l 246 865 l 533 865 q 701 819 642 865 q 760 690 760 774 l 760 685 m 876 282 q 804 121 876 178 q 597 64 732 64 l 176 64 l 176 469 l 522 469 q 657 460 601 469 q 747 431 713 451 q 798 380 782 411 q 814 303 814 349 l 814 297 q 744 167 814 211 q 535 124 674 124 l 246 124 l 246 408 l 261 408 l 261 139 l 535 139 q 627 145 581 139 q 712 169 674 151 q 774 217 750 186 q 799 297 799 249 l 799 303 q 788 367 799 339 q 747 414 778 394 q 663 444 717 433 q 522 454 610 454 l 192 454 l 192 79 l 597 79 q 792 132 724 79 q 861 282 861 185 l 861 283 l 876 283 l 876 282 z "},"C":{"ha":1025,"x_min":69,"x_max":979,"o":"m 581 985 q 388 949 476 985 q 233 851 299 914 q 128 701 167 788 q 85 511 89 614 l 69 511 q 111 700 72 611 q 218 857 150 789 q 382 963 289 926 q 581 1000 475 1000 q 795 964 703 1000 q 967 849 888 928 l 957 838 q 789 950 878 915 q 581 985 700 985 m 600 867 q 722 842 668 864 q 824 781 776 821 l 814 769 q 600 851 726 846 l 600 867 m 979 165 l 975 160 q 886 79 931 113 q 793 25 842 46 q 690 -6 744 4 q 572 -15 636 -15 q 380 21 469 -15 q 223 122 290 57 q 115 273 156 186 q 69 463 75 360 l 85 463 q 130 279 90 364 q 235 133 169 194 q 386 35 300 71 q 572 0 472 0 q 785 38 694 0 q 958 164 875 76 l 875 249 q 824 202 853 225 q 756 160 794 179 q 672 128 718 140 q 569 117 625 117 q 428 145 494 117 q 313 226 363 174 q 238 346 264 278 q 211 490 211 414 l 211 492 q 211 507 211 499 q 213 524 211 515 q 244 653 218 593 q 315 759 271 714 q 417 832 358 804 q 543 865 475 860 l 544 850 q 424 818 479 844 q 326 748 368 792 q 258 647 283 704 q 228 522 232 589 q 226 506 226 514 q 226 492 226 499 l 226 490 q 253 348 226 414 q 325 234 279 282 q 433 159 371 186 q 569 132 496 132 q 671 144 625 132 q 754 176 717 157 q 819 218 792 194 q 868 265 847 242 l 874 271 l 979 165 m 892 175 q 759 83 829 113 q 600 49 689 53 l 600 64 q 753 97 686 68 q 881 186 819 126 l 892 175 m 579 788 q 471 765 521 788 q 385 704 421 743 q 328 611 349 665 q 307 494 307 557 l 307 492 q 328 375 307 429 q 385 281 349 321 q 471 219 421 242 q 579 196 521 196 q 715 225 658 196 q 828 307 771 254 l 839 296 q 780 247 808 268 q 721 210 751 225 q 656 188 690 196 q 579 181 621 181 q 465 204 518 181 q 374 269 413 228 q 313 368 335 311 q 292 492 292 425 l 292 494 q 313 617 292 561 q 374 715 335 674 q 465 779 413 756 q 579 803 518 803 q 705 778 646 803 q 826 697 764 753 l 906 789 q 756 889 835 857 q 578 921 678 921 q 408 888 486 921 q 274 798 331 856 q 185 662 217 740 q 153 492 153 583 l 153 489 q 183 328 153 403 q 265 196 213 253 q 389 104 317 139 q 544 64 461 69 l 543 49 q 381 90 456 54 q 253 185 307 126 q 168 322 199 244 q 138 489 138 400 l 138 492 q 171 667 138 586 q 263 808 204 749 q 403 902 322 868 q 578 936 483 936 q 921 794 781 936 l 926 790 l 921 785 l 828 676 l 821 681 q 702 763 760 738 q 579 788 644 788 z "},"D":{"ha":1086,"x_min":108,"x_max":1014,"o":"m 493 207 q 609 227 557 207 q 699 285 661 247 q 756 374 736 322 q 776 490 776 426 l 776 493 q 758 603 776 553 q 706 689 740 653 q 624 747 672 725 q 518 774 576 769 l 493 774 l 336 774 l 336 199 l 321 199 l 321 789 l 493 789 l 519 789 q 631 761 581 785 q 717 699 681 738 q 772 608 753 660 q 792 493 792 556 l 792 490 q 770 369 792 424 q 709 274 749 314 q 615 213 669 235 q 493 192 560 192 l 390 192 l 390 207 l 493 207 m 268 849 l 268 135 l 478 135 q 631 160 561 135 q 751 233 701 186 q 829 346 801 281 q 857 489 857 411 l 857 492 q 830 635 857 571 q 753 746 803 700 q 633 817 703 792 q 478 842 563 842 l 329 842 l 329 857 l 478 857 q 639 831 567 857 q 763 756 711 804 q 844 641 815 708 q 872 492 872 574 l 872 489 q 843 339 872 407 q 762 222 814 271 q 638 147 710 174 q 478 119 565 119 l 253 119 l 253 849 l 268 849 m 493 15 q 689 48 599 15 q 846 139 779 81 q 952 278 913 197 q 997 458 992 360 l 1013 457 q 968 277 1007 361 q 858 131 929 193 q 694 33 786 65 q 493 0 601 0 l 185 0 l 185 919 l 461 919 q 656 890 568 919 q 811 801 744 860 q 911 665 878 743 q 944 494 944 588 l 944 490 q 909 317 944 396 q 810 181 874 238 q 657 92 746 124 q 461 61 568 61 l 261 61 l 261 76 l 461 76 q 651 107 565 76 q 799 192 738 138 q 895 323 861 247 q 929 490 929 399 l 929 494 q 895 662 929 586 q 800 792 861 738 q 653 875 739 846 q 461 904 567 904 l 200 904 l 200 15 l 493 15 m 999 513 q 955 694 994 611 q 848 838 915 778 q 690 933 781 899 q 493 967 599 967 l 124 967 l 124 7 l 108 7 l 108 982 l 493 982 q 696 947 601 982 q 861 847 790 913 q 971 697 932 782 q 1014 514 1010 611 l 999 513 z "},"E":{"ha":931,"x_min":111,"x_max":863,"o":"m 799 63 l 175 63 l 175 917 l 856 917 l 856 778 l 338 778 l 338 596 l 793 596 l 793 392 l 338 392 l 338 204 l 854 204 l 854 189 l 322 189 l 322 407 l 778 407 l 778 581 l 322 581 l 322 793 l 840 793 l 840 901 l 190 901 l 190 78 l 799 78 l 799 63 m 863 0 l 111 0 l 111 982 l 847 982 l 847 967 l 126 967 l 126 15 l 847 15 l 847 125 l 251 125 l 251 471 l 713 471 l 713 515 l 251 515 l 251 857 l 792 857 l 792 842 l 267 842 l 267 531 l 728 531 l 728 456 l 267 456 l 267 140 l 863 140 l 863 0 z "},"F":{"ha":911,"x_min":111,"x_max":863,"o":"m 339 7 l 324 7 l 324 389 l 785 389 l 785 567 l 324 567 l 324 788 l 847 788 l 847 906 l 203 906 l 203 68 l 188 68 l 188 921 l 863 921 l 863 772 l 339 772 l 339 582 l 800 582 l 800 374 l 339 374 l 339 7 m 271 0 l 111 0 l 111 982 l 854 982 l 854 967 l 126 967 l 126 15 l 256 15 l 256 453 l 724 453 l 724 499 l 256 499 l 256 857 l 794 857 l 794 842 l 271 842 l 271 514 l 739 514 l 739 438 l 271 438 l 271 0 z "},"G":{"ha":1089,"x_min":69,"x_max":983,"o":"m 582 985 q 388 949 478 985 q 233 851 299 914 q 128 701 167 788 q 85 511 89 614 l 69 511 q 112 700 74 611 q 219 857 150 789 q 383 963 290 926 q 582 1000 476 1000 q 795 964 703 1000 q 968 849 888 928 l 957 838 q 790 949 879 914 q 582 985 700 985 m 600 867 q 722 842 668 864 q 824 781 776 821 l 814 769 q 600 851 726 846 l 600 867 m 836 213 q 569 117 721 117 q 429 145 494 117 q 314 226 364 174 q 238 346 264 278 q 211 490 211 414 l 211 492 q 211 507 211 499 q 213 524 211 515 q 244 653 218 593 q 315 759 271 714 q 417 832 358 804 q 543 865 475 860 l 544 850 q 424 818 479 844 q 326 748 368 792 q 259 647 285 704 q 228 522 233 589 q 226 506 226 514 q 226 492 226 499 l 226 490 q 253 348 226 414 q 325 234 279 282 q 433 159 371 186 q 569 132 496 132 q 706 155 642 132 q 824 222 771 178 l 824 386 l 839 386 l 839 214 l 836 213 m 564 557 l 564 450 l 922 450 l 922 204 l 892 175 q 759 83 829 113 q 600 49 689 53 l 600 64 q 753 97 686 68 q 882 186 821 126 l 907 211 l 907 435 l 549 435 l 549 572 l 976 572 l 976 557 l 564 557 m 581 788 q 472 765 522 788 q 385 704 422 743 q 328 611 349 665 q 307 494 307 557 l 307 492 q 328 375 307 429 q 385 281 349 321 q 472 219 422 242 q 581 196 522 196 q 763 253 679 196 l 763 374 l 556 374 l 556 389 l 778 389 l 778 243 l 774 243 l 775 243 q 683 196 729 211 q 581 181 636 181 q 465 204 518 181 q 374 269 413 228 q 314 368 336 311 q 292 492 292 425 l 292 494 q 314 617 292 561 q 374 715 336 674 q 465 779 413 756 q 581 803 518 803 q 706 778 647 803 q 826 697 764 753 l 906 789 q 757 889 836 857 q 579 921 678 921 q 410 888 488 921 q 275 798 332 856 q 185 662 218 740 q 153 492 153 583 l 153 489 q 183 328 153 403 q 265 196 213 253 q 389 104 317 139 q 544 64 461 69 l 544 49 q 383 90 457 54 q 254 185 308 126 q 169 322 200 244 q 138 489 138 400 l 138 492 q 171 667 138 586 q 264 808 204 749 q 404 902 324 868 q 579 936 485 936 q 921 794 781 936 l 926 790 l 922 785 l 828 676 l 822 681 q 702 763 760 738 q 581 788 644 788 m 983 511 l 983 142 l 981 140 q 574 -15 801 -12 q 381 21 471 -15 q 224 122 292 57 q 116 273 157 186 q 71 463 75 360 l 86 463 q 129 281 90 365 q 232 135 168 197 q 381 38 296 74 q 563 0 465 1 q 968 149 790 0 l 968 496 l 617 496 l 617 511 l 983 511 z "},"H":{"ha":1056,"x_min":108,"x_max":940,"o":"m 192 83 l 176 83 l 176 982 l 336 982 l 336 599 l 713 599 l 713 974 l 728 974 l 728 583 l 321 583 l 321 967 l 192 967 l 192 83 m 940 7 l 925 7 l 925 967 l 797 967 l 797 515 l 253 515 l 253 897 l 268 897 l 268 531 l 782 531 l 782 982 l 940 982 l 940 7 m 872 0 l 713 0 l 713 388 l 336 388 l 336 7 l 321 7 l 321 403 l 728 403 l 728 15 l 857 15 l 857 897 l 872 897 l 872 0 m 268 0 l 108 0 l 108 974 l 124 974 l 124 15 l 253 15 l 253 472 l 797 472 l 797 83 l 782 83 l 782 457 l 268 457 l 268 0 z "},"I":{"ha":467,"x_min":118,"x_max":346,"o":"m 278 0 l 118 0 l 118 974 l 133 974 l 133 15 l 263 15 l 263 913 l 278 913 l 278 0 m 346 7 l 331 7 l 331 967 l 201 967 l 201 68 l 186 68 l 186 982 l 346 982 l 346 7 z "},"J":{"ha":783,"x_min":11,"x_max":688,"o":"m 338 -15 q 17 132 140 -15 l 11 138 l 117 254 l 122 243 q 171 188 140 213 q 241 150 197 167 q 351 133 285 133 q 471 181 426 133 q 504 233 493 204 q 519 288 515 261 q 524 349 525 318 l 524 896 l 539 896 l 539 350 q 539 330 539 349 q 534 284 539 311 q 517 226 529 257 q 482 171 506 196 q 351 118 433 118 q 251 131 293 118 q 180 162 208 144 q 135 198 151 179 q 113 228 119 217 l 32 138 q 338 0 150 0 q 583 88 496 0 q 672 340 672 175 l 672 972 l 688 972 l 688 340 q 594 76 688 169 q 338 -15 503 -15 m 351 50 q 261 58 301 50 q 190 80 221 67 q 135 109 158 93 q 94 140 111 125 l 106 151 q 196 94 136 122 q 351 65 256 65 q 531 133 467 65 q 575 201 560 164 q 597 270 590 238 q 603 325 603 303 q 604 347 604 347 l 604 965 l 469 965 l 469 350 q 457 265 469 297 q 424 214 444 232 q 380 189 404 196 q 332 182 356 182 q 240 206 283 182 q 150 281 197 229 l 161 292 q 247 219 206 242 q 332 197 288 197 q 454 350 454 197 l 454 981 l 619 981 l 619 347 q 619 322 619 344 q 612 265 618 299 q 589 194 606 232 q 542 122 572 156 q 351 50 474 50 z "},"K":{"ha":1014,"x_min":110,"x_max":1003,"o":"m 193 69 l 178 69 l 178 982 l 338 982 l 338 571 l 717 979 l 728 968 l 322 532 l 322 967 l 193 967 l 193 69 m 990 3 l 575 564 l 961 967 l 801 967 l 254 372 l 254 913 l 269 913 l 269 413 l 794 982 l 996 982 l 594 563 l 1003 13 l 990 3 m 269 0 l 110 0 l 110 974 l 125 974 l 125 15 l 254 15 l 254 317 l 451 531 l 789 74 l 776 64 l 450 506 l 269 311 l 269 0 m 919 0 l 738 0 l 440 407 l 338 300 l 338 8 l 322 8 l 322 306 l 442 431 l 744 15 l 890 15 l 483 564 l 813 918 l 824 908 l 503 564 l 919 0 z "},"L":{"ha":860,"x_min":111,"x_max":824,"o":"m 824 61 l 188 61 l 188 913 l 203 913 l 203 76 l 808 76 l 808 193 l 324 193 l 324 974 l 339 974 l 339 208 l 824 208 l 824 61 m 817 0 l 111 0 l 111 982 l 271 982 l 271 139 l 764 139 l 764 124 l 256 124 l 256 967 l 126 967 l 126 15 l 817 15 l 817 0 z "},"M":{"ha":1206,"x_min":111,"x_max":1093,"o":"m 601 231 l 883 647 l 883 0 l 868 0 l 868 597 l 601 203 l 336 597 l 336 0 l 321 0 l 321 647 l 601 231 m 1093 982 l 1093 0 l 936 0 l 936 804 l 601 324 l 268 804 l 268 0 l 111 0 l 111 982 l 126 982 l 126 15 l 253 15 l 253 853 l 601 350 l 951 853 l 951 15 l 1078 15 l 1078 982 l 1093 982 m 203 68 l 188 68 l 188 982 l 350 982 l 601 589 l 854 982 l 1017 982 l 1017 68 l 1001 68 l 1001 967 l 961 967 l 601 442 l 242 967 l 203 967 l 203 68 m 342 967 l 261 967 l 601 469 l 943 967 l 863 967 l 601 561 l 342 967 z "},"N":{"ha":1097,"x_min":111,"x_max":985,"o":"m 901 913 l 917 913 l 917 0 l 793 0 l 336 599 l 336 0 l 321 0 l 321 644 l 800 15 l 865 15 l 268 790 l 268 0 l 111 0 l 111 982 l 126 982 l 126 15 l 253 15 l 253 835 l 885 15 l 901 15 l 901 913 m 985 982 l 985 0 l 969 0 l 969 967 l 844 967 l 844 165 l 211 967 l 203 967 l 203 68 l 188 68 l 188 982 l 318 982 l 760 401 l 760 982 l 775 982 l 775 356 l 311 967 l 231 967 l 829 210 l 829 982 l 985 982 z "},"O":{"ha":1181,"x_min":68,"x_max":1110,"o":"m 588 -15 q 390 20 483 -15 q 225 122 296 56 q 115 275 154 189 q 68 458 75 361 l 83 460 q 130 276 89 360 q 238 130 171 192 q 394 34 304 68 q 588 0 483 0 q 787 38 694 0 q 948 142 879 76 q 1056 298 1017 208 q 1094 492 1094 388 l 1094 494 q 1056 689 1094 599 q 950 844 1018 779 q 790 947 882 910 q 590 985 699 985 q 395 949 486 985 q 237 849 304 913 q 128 700 169 786 q 83 514 88 614 l 68 515 q 115 708 72 619 q 226 861 157 796 q 390 963 296 926 q 590 1000 483 1000 q 797 961 701 1000 q 961 855 892 922 q 1070 695 1031 788 q 1110 494 1110 603 l 1110 492 q 1072 297 1110 389 q 963 133 1035 204 q 792 23 889 61 q 588 -15 696 -15 m 590 181 q 473 205 528 181 q 377 271 418 229 q 313 369 336 313 q 290 492 290 426 l 290 494 q 313 617 290 561 q 376 715 336 674 q 469 779 415 756 q 588 803 524 803 q 701 781 649 803 q 794 722 754 760 q 859 631 835 683 q 888 515 883 578 l 872 514 q 844 624 868 574 q 783 710 821 674 q 696 767 746 746 q 588 788 646 788 q 475 765 526 788 q 386 704 424 743 q 327 611 349 665 q 306 494 306 557 l 306 492 q 327 375 306 429 q 387 281 349 321 q 477 219 425 242 q 590 196 529 196 q 697 215 647 196 q 783 269 746 235 q 843 353 819 304 q 871 460 867 401 l 886 458 q 856 347 881 397 q 792 259 832 296 q 701 201 753 222 q 590 181 649 181 m 590 104 q 442 133 511 104 q 322 219 374 163 q 244 343 271 274 q 217 492 217 413 l 217 496 q 242 641 217 574 q 313 759 268 708 q 421 842 358 810 q 557 879 483 874 l 558 864 q 428 828 488 858 q 324 749 368 797 q 256 635 281 700 q 232 496 232 571 l 232 492 q 259 344 232 413 q 334 226 286 276 q 448 148 382 176 q 590 119 514 119 q 731 147 667 119 q 844 225 796 175 q 919 342 892 275 q 946 489 946 410 l 946 492 q 921 632 946 567 q 851 747 896 697 q 745 828 806 797 q 614 864 685 858 l 614 879 q 752 842 689 874 q 862 758 815 810 q 935 638 908 706 q 961 492 961 569 l 961 489 q 933 336 961 407 q 855 214 904 265 q 738 133 806 163 q 590 104 669 104 m 614 43 l 614 58 q 777 98 701 63 q 908 192 853 133 q 994 327 963 250 q 1025 492 1025 404 l 1025 494 q 992 665 1025 586 q 900 803 958 744 q 763 894 842 861 q 590 926 683 926 q 419 893 499 926 q 280 801 339 860 q 187 663 221 742 q 153 492 153 583 l 153 489 q 183 325 153 401 q 268 191 214 249 q 397 99 322 133 q 558 58 471 64 l 557 43 q 391 85 468 49 q 256 183 314 121 q 167 324 197 246 q 138 489 138 401 l 138 492 q 170 665 138 583 q 265 810 203 747 q 413 908 329 874 q 590 942 496 942 q 769 908 686 942 q 912 814 851 874 q 1006 672 972 754 q 1040 494 1040 590 l 1040 492 q 1008 321 1040 400 q 918 181 975 242 q 783 84 861 121 q 614 43 706 47 z "},"P":{"ha":928,"x_min":110,"x_max":890,"o":"m 338 0 l 174 0 l 174 926 l 488 926 q 736 851 649 926 q 824 638 824 776 l 824 632 q 800 513 824 567 q 733 422 776 460 q 629 363 690 383 q 494 342 568 342 l 264 342 l 264 68 l 249 68 l 249 357 l 494 357 q 623 377 565 357 q 722 433 681 397 q 785 520 763 469 q 808 632 808 571 l 808 638 q 725 840 808 768 q 488 911 642 911 l 189 911 l 189 15 l 322 15 l 322 306 l 492 306 q 650 329 579 306 q 771 396 721 353 q 848 500 821 439 q 875 638 875 561 l 875 640 q 849 774 875 714 q 776 877 824 835 q 662 943 729 919 q 513 967 594 967 l 125 967 l 125 7 l 110 7 l 110 982 l 513 982 q 668 958 599 982 q 787 889 738 933 q 863 781 836 844 q 890 640 890 718 l 890 638 q 862 494 890 558 q 781 385 833 431 q 656 315 729 339 q 492 290 582 290 l 338 290 l 338 0 m 494 408 l 249 408 l 249 853 l 264 853 l 264 424 l 494 424 q 668 481 603 424 q 733 632 733 538 l 733 636 q 670 790 733 736 q 489 844 607 844 l 331 844 l 331 860 l 489 860 q 681 801 614 860 q 749 636 749 743 l 749 632 q 730 541 749 582 q 678 470 711 500 q 598 424 644 440 q 494 408 551 408 m 499 479 l 392 479 l 392 494 l 499 494 q 615 533 571 494 q 660 633 660 571 l 660 636 q 617 739 660 703 q 494 775 574 775 l 338 775 l 338 486 l 322 486 l 322 790 l 494 790 q 627 749 579 790 q 675 636 675 708 l 675 633 q 626 521 675 563 q 499 479 578 479 z "},"Q":{"ha":1181,"x_min":72,"x_max":1124,"o":"m 965 489 q 892 254 965 356 l 1086 83 l 985 -31 l 879 64 q 743 5 815 25 q 592 -15 671 -15 q 394 20 488 -15 q 228 122 300 56 q 117 275 157 189 q 72 458 78 361 l 88 460 q 133 276 93 360 q 241 130 174 192 q 398 34 308 68 q 592 0 488 0 q 741 20 669 0 q 875 81 813 40 l 881 83 l 983 -8 l 1064 82 l 689 414 l 699 425 l 881 264 q 950 489 950 361 l 950 492 q 925 632 950 567 q 855 747 900 697 q 749 828 810 797 q 617 864 688 858 l 618 879 q 756 842 692 874 q 866 758 819 810 q 939 638 913 706 q 965 492 965 569 l 965 489 m 563 864 q 432 828 492 858 q 328 749 372 797 q 260 635 285 700 q 236 496 236 571 l 236 492 q 263 344 236 413 q 338 226 290 276 q 452 148 386 176 q 594 119 518 119 q 779 169 697 119 l 788 157 q 594 104 701 104 q 447 133 515 104 q 325 219 378 163 q 248 343 275 274 q 221 492 221 413 l 221 496 q 247 641 221 574 q 317 759 272 708 q 425 842 363 810 q 561 879 488 874 l 563 864 m 964 261 q 1013 371 996 313 q 1029 492 1029 429 l 1029 494 q 996 665 1029 586 q 904 803 963 744 q 767 894 846 861 q 594 926 688 926 q 423 893 503 926 q 284 801 343 860 q 191 663 225 742 q 157 492 157 583 l 157 489 q 187 325 157 401 q 271 191 217 249 q 399 99 325 133 q 563 58 474 64 l 561 43 q 394 85 472 49 q 258 183 317 121 q 172 324 201 246 q 142 489 142 401 l 142 492 q 174 665 142 583 q 269 810 207 747 q 415 908 332 874 q 594 942 499 942 q 772 908 690 942 q 915 814 854 874 q 1010 672 975 754 q 1044 494 1044 590 l 1044 492 q 1027 367 1044 428 q 978 253 1010 306 l 964 261 m 888 149 q 618 43 774 51 l 617 58 q 876 158 765 67 l 597 399 l 697 511 l 854 369 q 875 460 871 413 l 890 458 q 864 354 886 406 l 860 344 l 699 490 l 619 400 l 1003 68 l 993 57 l 888 149 m 1124 136 l 1114 125 l 1013 211 l 1015 217 q 1099 492 1099 340 l 1099 494 q 1060 689 1099 599 q 954 844 1022 779 q 794 947 886 910 q 594 985 703 985 q 399 949 490 985 q 241 849 308 913 q 133 700 174 786 q 88 514 92 614 l 72 515 q 118 708 76 619 q 230 861 160 796 q 394 963 300 926 q 594 1000 488 1000 q 801 961 706 1000 q 965 855 896 922 q 1074 695 1035 788 q 1114 494 1114 603 l 1114 492 q 1093 347 1114 417 q 1032 214 1072 276 l 1124 136 m 592 803 q 706 781 653 803 q 798 722 758 760 q 862 631 838 683 q 890 515 886 578 l 875 514 q 848 624 871 574 q 788 710 825 674 q 700 767 750 746 q 592 788 650 788 q 479 765 531 788 q 390 704 428 743 q 330 611 351 665 q 308 494 308 557 l 308 492 q 330 375 308 429 q 390 281 351 321 q 481 219 429 242 q 594 196 533 196 q 706 218 656 196 l 558 343 l 568 354 l 733 214 l 722 208 q 594 181 663 181 q 476 205 531 181 q 380 271 421 229 q 316 369 339 313 q 293 492 293 426 l 293 494 q 316 617 293 561 q 379 715 339 674 q 474 779 419 756 q 592 803 528 803 z "},"R":{"ha":1004,"x_min":111,"x_max":960,"o":"m 542 424 l 250 424 l 250 853 l 265 853 l 265 439 l 542 439 q 715 494 650 439 q 781 640 781 549 l 781 644 q 717 793 781 742 q 536 844 654 844 l 332 844 l 332 860 l 536 860 q 729 804 663 860 q 796 644 796 749 l 796 640 q 727 482 796 540 q 542 424 658 424 m 546 494 l 393 494 l 393 510 l 546 510 q 664 544 621 510 q 707 640 707 579 l 707 643 q 692 709 707 683 q 652 749 676 735 q 599 769 628 764 q 542 775 569 775 l 339 775 l 339 501 l 324 501 l 324 790 l 542 790 q 676 752 629 790 q 722 643 722 714 l 722 640 q 674 534 722 574 q 546 494 626 494 m 947 3 l 713 347 l 721 351 q 870 463 818 388 q 922 644 922 539 l 922 647 q 897 780 922 721 q 825 881 872 839 q 710 944 778 922 q 560 967 643 967 l 126 967 l 126 7 l 111 7 l 111 982 l 560 982 q 836 890 733 982 q 912 784 886 846 q 938 647 938 722 l 938 644 q 885 458 938 536 q 736 340 833 381 l 960 11 l 947 3 m 339 0 l 175 0 l 175 926 l 535 926 q 785 854 699 926 q 871 644 871 782 l 871 639 q 847 523 871 575 q 781 434 824 471 q 678 377 739 397 q 542 357 617 357 l 265 357 l 265 68 l 250 68 l 250 372 l 542 372 q 671 391 613 372 q 770 445 729 410 q 833 529 811 481 q 856 639 856 578 l 856 644 q 773 843 856 775 q 535 911 690 911 l 190 911 l 190 15 l 324 15 l 324 321 l 504 321 l 507 317 l 710 15 l 858 15 l 653 315 q 626 311 639 313 q 597 308 613 310 l 763 64 l 750 56 l 571 321 l 583 322 q 620 326 603 324 q 654 332 638 328 l 660 333 l 886 0 l 701 0 l 497 306 l 339 306 l 339 0 z "},"S":{"ha":889,"x_min":46,"x_max":829,"o":"m 471 174 q 324 202 394 174 q 178 293 253 231 l 188 304 q 328 217 260 246 q 471 189 397 189 q 568 211 533 189 q 603 272 603 233 l 603 275 q 596 307 603 293 q 569 335 589 321 q 512 362 549 349 q 414 390 475 375 q 285 429 344 408 q 181 483 225 450 q 113 567 138 517 q 88 693 88 617 l 88 696 q 113 817 88 763 q 185 912 139 872 q 294 974 231 951 q 433 996 357 996 q 797 871 640 996 l 788 858 q 433 981 636 981 q 299 960 360 981 q 194 903 238 940 q 126 813 150 865 q 103 696 103 760 l 103 693 q 126 574 103 621 q 192 495 150 526 q 291 444 233 464 q 418 406 349 424 q 515 377 476 390 q 577 349 554 364 q 609 316 600 333 q 618 275 618 299 l 618 272 q 579 200 618 226 q 471 174 540 174 m 467 -14 q 244 26 350 -14 q 51 143 138 67 l 46 147 l 138 256 l 143 253 q 326 157 244 186 q 486 128 407 128 q 572 140 535 128 q 635 171 610 151 q 672 215 660 190 q 685 265 685 240 l 685 269 q 675 330 685 304 q 635 378 665 356 q 551 420 606 400 q 404 465 496 440 l 399 467 q 317 493 357 478 q 245 531 278 508 q 191 584 213 553 q 163 660 169 615 l 176 663 q 240 554 188 596 q 403 481 292 513 l 408 479 q 553 435 497 456 q 642 390 610 414 q 688 338 675 367 q 700 269 700 310 l 700 265 q 686 209 700 236 q 645 160 672 182 q 578 126 618 139 q 486 113 539 113 q 324 142 406 113 q 140 236 242 171 l 68 149 q 253 40 151 78 q 467 1 354 1 q 611 22 547 1 q 720 79 675 42 q 790 171 765 117 q 814 293 814 225 l 814 296 q 793 406 814 360 q 733 483 772 451 q 639 538 694 515 q 514 579 583 561 q 408 608 450 596 q 342 635 367 621 q 308 668 318 650 q 299 713 299 686 l 299 715 q 335 782 299 757 q 431 807 371 807 q 681 715 546 807 l 749 814 q 587 892 669 864 q 436 919 504 919 q 253 863 325 919 q 175 715 182 807 l 160 717 q 185 806 164 765 q 243 874 207 846 q 328 919 279 903 q 436 935 378 935 q 594 906 508 935 q 764 824 681 876 l 771 818 l 685 694 l 678 699 q 431 792 543 792 q 346 772 378 792 q 314 715 314 751 l 314 713 q 322 676 314 692 q 353 648 331 661 q 415 622 375 635 q 517 593 454 610 q 645 551 588 575 q 744 493 703 528 q 807 410 785 458 q 829 296 829 363 l 829 293 q 804 165 829 222 q 732 69 779 108 q 617 8 685 29 q 467 -14 550 -14 m 750 300 q 728 380 747 347 q 677 436 708 413 q 606 475 646 460 q 524 503 567 490 l 518 504 q 372 549 429 528 q 283 593 315 569 q 239 646 251 617 q 226 715 226 675 l 226 719 q 240 775 226 747 q 281 824 254 803 q 347 859 307 846 q 439 872 386 872 q 562 855 503 872 q 689 799 621 838 l 681 785 q 558 840 614 822 q 439 857 501 857 q 353 845 390 857 q 292 814 317 833 q 254 769 267 794 q 242 719 242 744 l 242 715 q 251 655 242 681 q 290 607 261 629 q 374 565 319 585 q 521 519 429 544 l 528 518 q 614 489 572 506 q 688 447 656 472 q 742 387 721 422 q 765 301 763 351 l 750 300 m 489 49 q 429 53 465 49 q 347 69 393 57 q 245 105 300 82 q 129 167 190 128 l 138 179 q 251 119 197 142 q 349 84 304 96 q 430 68 394 72 q 489 64 465 64 q 663 114 593 64 q 747 247 733 164 l 763 244 q 674 101 747 154 q 489 49 600 49 z "},"T":{"ha":900,"x_min":40,"x_max":857,"o":"m 486 0 l 335 0 l 335 771 l 40 771 l 40 913 l 781 913 l 781 897 l 56 897 l 56 786 l 350 786 l 350 15 l 486 15 l 486 0 m 563 7 l 547 7 l 547 786 l 842 786 l 842 967 l 49 967 l 49 982 l 857 982 l 857 771 l 563 771 l 563 7 m 486 8 l 471 8 l 471 782 l 486 782 l 486 8 m 419 68 l 404 68 l 404 832 l 110 832 l 110 847 l 850 847 l 850 832 l 419 832 l 419 68 z "},"U":{"ha":1050,"x_min":94,"x_max":951,"o":"m 521 -15 q 208 94 318 -15 q 94 421 94 208 l 94 974 l 110 974 l 110 421 q 215 108 110 217 q 521 0 321 0 q 830 110 724 0 q 936 428 936 219 l 936 967 l 808 967 l 808 426 q 734 192 808 275 q 524 110 660 110 q 313 194 386 110 q 239 435 239 279 l 239 913 l 254 913 l 254 435 q 323 204 254 283 q 524 125 392 125 q 724 202 654 125 q 793 426 793 279 l 793 982 l 951 982 l 951 428 q 835 94 951 208 q 521 -15 722 -15 m 521 44 q 258 136 351 44 q 163 411 163 235 l 163 982 l 322 982 l 322 426 q 374 255 322 314 q 524 196 425 196 q 672 253 621 196 q 724 419 724 311 l 724 974 l 739 974 l 739 419 q 683 243 739 306 q 524 181 626 181 q 363 244 419 181 q 307 426 307 308 l 307 967 l 178 967 l 178 411 q 266 149 178 239 q 521 60 354 60 q 778 151 689 60 q 868 417 868 243 l 868 913 l 883 913 l 883 417 q 785 136 883 235 q 521 44 690 44 z "},"V":{"ha":1042,"x_min":26,"x_max":1014,"o":"m 469 60 l 99 981 l 274 981 l 521 314 l 767 975 l 781 971 l 521 271 l 264 965 l 122 965 l 479 75 l 565 75 l 901 915 l 917 910 l 575 60 l 469 60 m 618 -8 l 419 -8 l 26 969 l 42 976 l 431 7 l 607 7 l 992 965 l 863 965 l 522 110 l 204 910 l 218 915 l 522 151 l 851 981 l 1014 981 l 618 -8 z "},"W":{"ha":1558,"x_min":43,"x_max":1518,"o":"m 419 65 l 108 981 l 265 981 l 469 347 l 679 975 l 694 971 l 469 299 l 254 965 l 129 965 l 432 75 l 500 75 l 781 860 l 789 842 l 1064 75 l 1131 75 l 1415 914 l 1431 910 l 1142 60 l 1053 60 l 782 817 l 510 60 l 421 60 l 419 65 m 1518 981 l 1179 -8 l 1008 -8 l 779 635 l 549 -8 l 378 -8 l 43 971 l 57 975 l 389 7 l 538 7 l 779 681 l 1019 7 l 1168 7 l 1496 965 l 1382 965 l 1093 115 l 796 965 l 767 965 l 469 115 l 199 910 l 213 914 l 469 161 l 756 981 l 881 981 l 1093 354 l 1294 975 l 1310 971 l 1093 307 l 869 965 l 811 965 l 1093 161 l 1371 981 l 1518 981 z "},"X":{"ha":1017,"x_min":32,"x_max":978,"o":"m 208 0 l 32 0 l 374 499 l 54 969 l 67 978 l 393 499 l 61 15 l 200 15 l 506 467 l 772 72 l 760 64 l 506 440 l 208 0 m 965 3 l 625 501 l 943 967 l 804 967 l 511 540 l 260 908 l 272 917 l 511 567 l 796 982 l 972 982 l 643 501 l 978 11 l 965 3 m 179 64 l 165 72 l 458 499 l 129 982 l 313 982 l 511 675 l 710 978 l 722 969 l 511 646 l 304 967 l 158 967 l 476 499 l 179 64 m 901 0 l 718 0 l 506 325 l 294 3 l 282 11 l 506 353 l 726 15 l 872 15 l 542 501 l 825 917 l 838 908 l 560 501 l 901 0 z "},"Y":{"ha":994,"x_min":13,"x_max":989,"o":"m 611 7 l 596 7 l 596 394 l 597 397 l 961 967 l 819 967 l 497 453 l 215 908 l 229 917 l 497 482 l 811 982 l 989 982 l 611 390 l 611 7 m 471 68 l 456 68 l 456 399 l 86 982 l 272 982 l 499 600 l 726 978 l 740 969 l 499 571 l 264 967 l 114 967 l 471 403 l 471 68 m 539 0 l 383 0 l 383 386 l 13 969 l 26 978 l 399 390 l 399 15 l 524 15 l 524 407 l 525 408 l 849 917 l 863 908 l 539 403 l 539 0 z "},"Z":{"ha":983,"x_min":83,"x_max":903,"o":"m 903 61 l 160 61 l 160 171 l 736 840 l 168 840 l 168 856 l 769 856 l 175 164 l 175 76 l 888 76 l 888 186 l 347 186 l 888 815 l 888 967 l 107 967 l 107 982 l 903 982 l 903 810 l 381 201 l 903 201 l 903 61 m 896 0 l 83 0 l 83 172 l 606 779 l 100 779 l 100 921 l 826 921 l 826 819 l 243 140 l 835 140 l 835 125 l 210 125 l 811 825 l 811 906 l 115 906 l 115 794 l 639 794 l 99 167 l 99 15 l 896 15 l 896 0 z "},"[":{"ha":646,"x_min":108,"x_max":569,"o":"m 569 -185 l 108 -185 l 108 976 l 561 976 l 561 961 l 124 961 l 124 -169 l 554 -169 l 554 -74 l 242 -74 l 242 865 l 500 865 l 500 850 l 257 850 l 257 -58 l 569 -58 l 569 -185 m 500 -131 l 176 -131 l 176 924 l 569 924 l 569 797 l 325 797 l 325 -4 l 561 -4 l 561 -19 l 310 -19 l 310 813 l 554 813 l 554 908 l 192 908 l 192 -115 l 500 -115 l 500 -131 z "},"\\":{"ha":736,"x_min":-35,"x_max":779,"o":"m 688 -110 l 674 -115 l 90 1103 l -11 1103 l 596 -165 l 582 -172 l -35 1118 l 100 1118 l 688 -110 m 779 -176 l 646 -176 l 60 1047 l 74 1054 l 654 -161 l 756 -161 l 149 1107 l 163 1114 l 779 -176 z "},"]":{"ha":646,"x_min":78,"x_max":539,"o":"m 539 -183 l 85 -183 l 85 -168 l 524 -168 l 524 963 l 93 963 l 93 867 l 406 867 l 406 -72 l 146 -72 l 146 -57 l 390 -57 l 390 851 l 78 851 l 78 978 l 539 978 l 539 -183 m 469 -129 l 78 -129 l 78 -3 l 322 -3 l 322 799 l 85 799 l 85 814 l 338 814 l 338 -18 l 93 -18 l 93 -114 l 454 -114 l 454 910 l 146 910 l 146 925 l 469 925 l 469 -129 z "},"^":{"ha":694,"x_min":64,"x_max":638,"o":"m 638 676 l 524 676 l 524 692 l 608 692 l 415 963 l 279 963 l 76 679 l 64 689 l 271 978 l 422 978 l 638 676 m 224 676 l 132 676 l 315 932 l 382 932 l 532 722 l 519 714 l 375 917 l 322 917 l 163 692 l 215 692 l 346 867 l 478 689 l 465 679 l 346 842 l 224 676 z "},"a":{"ha":1097,"x_min":26,"x_max":1069,"o":"m 408 404 l 549 746 l 688 404 l 408 404 m 549 706 l 431 419 l 665 419 l 549 706 m 600 928 l 994 0 l 836 0 l 747 217 l 349 217 l 263 4 l 249 10 l 339 232 l 757 232 l 846 15 l 972 15 l 590 913 l 508 913 l 149 65 l 133 71 l 499 928 l 600 928 m 1069 10 l 1056 4 l 643 974 l 458 974 l 50 15 l 179 15 l 547 881 l 892 71 l 878 65 l 786 279 l 358 279 l 358 294 l 779 294 l 547 842 l 340 354 l 706 354 l 706 339 l 333 339 l 189 0 l 26 0 l 447 989 l 654 989 l 1069 10 z "},"b":{"ha":1003,"x_min":108,"x_max":944,"o":"m 681 685 q 674 646 681 665 q 649 611 667 626 q 601 585 632 596 q 519 575 569 575 l 315 575 l 315 794 l 533 794 q 642 767 604 794 q 681 688 681 739 l 681 685 m 331 590 l 519 590 q 665 685 665 590 l 665 688 q 631 756 665 732 q 533 779 597 779 l 331 779 l 331 590 m 774 514 q 903 420 863 478 q 944 275 944 363 l 944 272 q 849 71 944 142 q 575 0 753 0 l 108 0 l 108 974 l 124 974 l 124 15 l 575 15 q 837 82 744 15 q 929 272 929 149 l 929 275 q 888 415 929 361 q 754 506 846 469 l 739 511 l 753 519 q 876 721 876 588 l 876 724 q 813 883 876 819 q 564 967 726 967 l 185 967 l 185 982 l 564 982 q 822 893 736 982 q 892 724 892 824 l 892 721 q 774 514 892 586 m 733 299 q 727 259 733 279 q 703 223 721 239 q 656 197 686 207 q 575 186 625 186 l 315 186 l 315 414 l 568 414 q 652 403 619 414 q 703 377 685 393 q 727 341 721 361 q 733 301 733 321 l 733 299 m 331 201 l 575 201 q 718 299 718 201 l 718 301 q 568 399 718 399 l 331 399 l 331 201 m 760 685 q 747 603 760 636 q 706 551 735 571 q 628 523 676 532 q 511 514 581 514 l 176 514 l 176 919 l 575 919 q 772 851 704 919 q 825 722 825 799 l 825 719 l 810 719 l 810 722 q 761 840 810 792 q 575 904 697 904 l 192 904 l 192 529 l 511 529 q 632 539 586 529 q 703 567 678 549 q 736 615 728 586 q 744 685 744 644 l 744 690 q 690 809 744 768 q 533 850 636 850 l 261 850 l 261 575 l 246 575 l 246 865 l 533 865 q 701 819 642 865 q 760 690 760 774 l 760 685 m 876 282 q 804 121 876 178 q 597 64 732 64 l 176 64 l 176 469 l 522 469 q 657 460 601 469 q 747 431 713 451 q 798 380 782 411 q 814 303 814 349 l 814 297 q 744 167 814 211 q 535 124 674 124 l 246 124 l 246 408 l 261 408 l 261 139 l 535 139 q 627 145 581 139 q 712 169 674 151 q 774 217 750 186 q 799 297 799 249 l 799 303 q 788 367 799 339 q 747 414 778 394 q 663 444 717 433 q 522 454 610 454 l 192 454 l 192 79 l 597 79 q 792 132 724 79 q 861 282 861 185 l 861 283 l 876 283 l 876 282 z "},"c":{"ha":1025,"x_min":69,"x_max":979,"o":"m 581 985 q 388 949 476 985 q 233 851 299 914 q 128 701 167 788 q 85 511 89 614 l 69 511 q 111 700 72 611 q 218 857 150 789 q 382 963 289 926 q 581 1000 475 1000 q 795 964 703 1000 q 967 849 888 928 l 957 838 q 789 950 878 915 q 581 985 700 985 m 600 867 q 722 842 668 864 q 824 781 776 821 l 814 769 q 600 851 726 846 l 600 867 m 979 165 l 975 160 q 886 79 931 113 q 793 25 842 46 q 690 -6 744 4 q 572 -15 636 -15 q 380 21 469 -15 q 223 122 290 57 q 115 273 156 186 q 69 463 75 360 l 85 463 q 130 279 90 364 q 235 133 169 194 q 386 35 300 71 q 572 0 472 0 q 785 38 694 0 q 958 164 875 76 l 875 249 q 824 202 853 225 q 756 160 794 179 q 672 128 718 140 q 569 117 625 117 q 428 145 494 117 q 313 226 363 174 q 238 346 264 278 q 211 490 211 414 l 211 492 q 211 507 211 499 q 213 524 211 515 q 244 653 218 593 q 315 759 271 714 q 417 832 358 804 q 543 865 475 860 l 544 850 q 424 818 479 844 q 326 748 368 792 q 258 647 283 704 q 228 522 232 589 q 226 506 226 514 q 226 492 226 499 l 226 490 q 253 348 226 414 q 325 234 279 282 q 433 159 371 186 q 569 132 496 132 q 671 144 625 132 q 754 176 717 157 q 819 218 792 194 q 868 265 847 242 l 874 271 l 979 165 m 892 175 q 759 83 829 113 q 600 49 689 53 l 600 64 q 753 97 686 68 q 881 186 819 126 l 892 175 m 579 788 q 471 765 521 788 q 385 704 421 743 q 328 611 349 665 q 307 494 307 557 l 307 492 q 328 375 307 429 q 385 281 349 321 q 471 219 421 242 q 579 196 521 196 q 715 225 658 196 q 828 307 771 254 l 839 296 q 780 247 808 268 q 721 210 751 225 q 656 188 690 196 q 579 181 621 181 q 465 204 518 181 q 374 269 413 228 q 313 368 335 311 q 292 492 292 425 l 292 494 q 313 617 292 561 q 374 715 335 674 q 465 779 413 756 q 579 803 518 803 q 705 778 646 803 q 826 697 764 753 l 906 789 q 756 889 835 857 q 578 921 678 921 q 408 888 486 921 q 274 798 331 856 q 185 662 217 740 q 153 492 153 583 l 153 489 q 183 328 153 403 q 265 196 213 253 q 389 104 317 139 q 544 64 461 69 l 543 49 q 381 90 456 54 q 253 185 307 126 q 168 322 199 244 q 138 489 138 400 l 138 492 q 171 667 138 586 q 263 808 204 749 q 403 902 322 868 q 578 936 483 936 q 921 794 781 936 l 926 790 l 921 785 l 828 676 l 821 681 q 702 763 760 738 q 579 788 644 788 z "},"d":{"ha":1086,"x_min":108,"x_max":1014,"o":"m 493 207 q 609 227 557 207 q 699 285 661 247 q 756 374 736 322 q 776 490 776 426 l 776 493 q 758 603 776 553 q 706 689 740 653 q 624 747 672 725 q 518 774 576 769 l 493 774 l 336 774 l 336 199 l 321 199 l 321 789 l 493 789 l 519 789 q 631 761 581 785 q 717 699 681 738 q 772 608 753 660 q 792 493 792 556 l 792 490 q 770 369 792 424 q 709 274 749 314 q 615 213 669 235 q 493 192 560 192 l 390 192 l 390 207 l 493 207 m 268 849 l 268 135 l 478 135 q 631 160 561 135 q 751 233 701 186 q 829 346 801 281 q 857 489 857 411 l 857 492 q 830 635 857 571 q 753 746 803 700 q 633 817 703 792 q 478 842 563 842 l 329 842 l 329 857 l 478 857 q 639 831 567 857 q 763 756 711 804 q 844 641 815 708 q 872 492 872 574 l 872 489 q 843 339 872 407 q 762 222 814 271 q 638 147 710 174 q 478 119 565 119 l 253 119 l 253 849 l 268 849 m 493 15 q 689 48 599 15 q 846 139 779 81 q 952 278 913 197 q 997 458 992 360 l 1013 457 q 968 277 1007 361 q 858 131 929 193 q 694 33 786 65 q 493 0 601 0 l 185 0 l 185 919 l 461 919 q 656 890 568 919 q 811 801 744 860 q 911 665 878 743 q 944 494 944 588 l 944 490 q 909 317 944 396 q 810 181 874 238 q 657 92 746 124 q 461 61 568 61 l 261 61 l 261 76 l 461 76 q 651 107 565 76 q 799 192 738 138 q 895 323 861 247 q 929 490 929 399 l 929 494 q 895 662 929 586 q 800 792 861 738 q 653 875 739 846 q 461 904 567 904 l 200 904 l 200 15 l 493 15 m 999 513 q 955 694 994 611 q 848 838 915 778 q 690 933 781 899 q 493 967 599 967 l 124 967 l 124 7 l 108 7 l 108 982 l 493 982 q 696 947 601 982 q 861 847 790 913 q 971 697 932 782 q 1014 514 1010 611 l 999 513 z "},"e":{"ha":931,"x_min":111,"x_max":863,"o":"m 799 63 l 175 63 l 175 917 l 856 917 l 856 778 l 338 778 l 338 596 l 793 596 l 793 392 l 338 392 l 338 204 l 854 204 l 854 189 l 322 189 l 322 407 l 778 407 l 778 581 l 322 581 l 322 793 l 840 793 l 840 901 l 190 901 l 190 78 l 799 78 l 799 63 m 863 0 l 111 0 l 111 982 l 847 982 l 847 967 l 126 967 l 126 15 l 847 15 l 847 125 l 251 125 l 251 471 l 713 471 l 713 515 l 251 515 l 251 857 l 792 857 l 792 842 l 267 842 l 267 531 l 728 531 l 728 456 l 267 456 l 267 140 l 863 140 l 863 0 z "},"f":{"ha":911,"x_min":111,"x_max":863,"o":"m 339 7 l 324 7 l 324 389 l 785 389 l 785 567 l 324 567 l 324 788 l 847 788 l 847 906 l 203 906 l 203 68 l 188 68 l 188 921 l 863 921 l 863 772 l 339 772 l 339 582 l 800 582 l 800 374 l 339 374 l 339 7 m 271 0 l 111 0 l 111 982 l 854 982 l 854 967 l 126 967 l 126 15 l 256 15 l 256 453 l 724 453 l 724 499 l 256 499 l 256 857 l 794 857 l 794 842 l 271 842 l 271 514 l 739 514 l 739 438 l 271 438 l 271 0 z "},"g":{"ha":1089,"x_min":69,"x_max":983,"o":"m 582 985 q 388 949 478 985 q 233 851 299 914 q 128 701 167 788 q 85 511 89 614 l 69 511 q 112 700 74 611 q 219 857 150 789 q 383 963 290 926 q 582 1000 476 1000 q 795 964 703 1000 q 968 849 888 928 l 957 838 q 790 949 879 914 q 582 985 700 985 m 600 867 q 722 842 668 864 q 824 781 776 821 l 814 769 q 600 851 726 846 l 600 867 m 836 213 q 569 117 721 117 q 429 145 494 117 q 314 226 364 174 q 238 346 264 278 q 211 490 211 414 l 211 492 q 211 507 211 499 q 213 524 211 515 q 244 653 218 593 q 315 759 271 714 q 417 832 358 804 q 543 865 475 860 l 544 850 q 424 818 479 844 q 326 748 368 792 q 259 647 285 704 q 228 522 233 589 q 226 506 226 514 q 226 492 226 499 l 226 490 q 253 348 226 414 q 325 234 279 282 q 433 159 371 186 q 569 132 496 132 q 706 155 642 132 q 824 222 771 178 l 824 386 l 839 386 l 839 214 l 836 213 m 564 557 l 564 450 l 922 450 l 922 204 l 892 175 q 759 83 829 113 q 600 49 689 53 l 600 64 q 753 97 686 68 q 882 186 821 126 l 907 211 l 907 435 l 549 435 l 549 572 l 976 572 l 976 557 l 564 557 m 581 788 q 472 765 522 788 q 385 704 422 743 q 328 611 349 665 q 307 494 307 557 l 307 492 q 328 375 307 429 q 385 281 349 321 q 472 219 422 242 q 581 196 522 196 q 763 253 679 196 l 763 374 l 556 374 l 556 389 l 778 389 l 778 243 l 774 243 l 775 243 q 683 196 729 211 q 581 181 636 181 q 465 204 518 181 q 374 269 413 228 q 314 368 336 311 q 292 492 292 425 l 292 494 q 314 617 292 561 q 374 715 336 674 q 465 779 413 756 q 581 803 518 803 q 706 778 647 803 q 826 697 764 753 l 906 789 q 757 889 836 857 q 579 921 678 921 q 410 888 488 921 q 275 798 332 856 q 185 662 218 740 q 153 492 153 583 l 153 489 q 183 328 153 403 q 265 196 213 253 q 389 104 317 139 q 544 64 461 69 l 544 49 q 383 90 457 54 q 254 185 308 126 q 169 322 200 244 q 138 489 138 400 l 138 492 q 171 667 138 586 q 264 808 204 749 q 404 902 324 868 q 579 936 485 936 q 921 794 781 936 l 926 790 l 922 785 l 828 676 l 822 681 q 702 763 760 738 q 581 788 644 788 m 983 511 l 983 142 l 981 140 q 574 -15 801 -12 q 381 21 471 -15 q 224 122 292 57 q 116 273 157 186 q 71 463 75 360 l 86 463 q 129 281 90 365 q 232 135 168 197 q 381 38 296 74 q 563 0 465 1 q 968 149 790 0 l 968 496 l 617 496 l 617 511 l 983 511 z "},"h":{"ha":1056,"x_min":108,"x_max":940,"o":"m 192 83 l 176 83 l 176 982 l 336 982 l 336 599 l 713 599 l 713 974 l 728 974 l 728 583 l 321 583 l 321 967 l 192 967 l 192 83 m 940 7 l 925 7 l 925 967 l 797 967 l 797 515 l 253 515 l 253 897 l 268 897 l 268 531 l 782 531 l 782 982 l 940 982 l 940 7 m 872 0 l 713 0 l 713 388 l 336 388 l 336 7 l 321 7 l 321 403 l 728 403 l 728 15 l 857 15 l 857 897 l 872 897 l 872 0 m 268 0 l 108 0 l 108 974 l 124 974 l 124 15 l 253 15 l 253 472 l 797 472 l 797 83 l 782 83 l 782 457 l 268 457 l 268 0 z "},"i":{"ha":467,"x_min":118,"x_max":346,"o":"m 278 0 l 118 0 l 118 974 l 133 974 l 133 15 l 263 15 l 263 913 l 278 913 l 278 0 m 346 7 l 331 7 l 331 967 l 201 967 l 201 68 l 186 68 l 186 982 l 346 982 l 346 7 z "},"j":{"ha":783,"x_min":11,"x_max":688,"o":"m 338 -15 q 17 132 140 -15 l 11 138 l 117 254 l 122 243 q 171 188 140 213 q 241 150 197 167 q 351 133 285 133 q 471 181 426 133 q 504 233 493 204 q 519 288 515 261 q 524 349 525 318 l 524 896 l 539 896 l 539 350 q 539 330 539 349 q 534 284 539 311 q 517 226 529 257 q 482 171 506 196 q 351 118 433 118 q 251 131 293 118 q 180 162 208 144 q 135 198 151 179 q 113 228 119 217 l 32 138 q 338 0 150 0 q 583 88 496 0 q 672 340 672 175 l 672 972 l 688 972 l 688 340 q 594 76 688 169 q 338 -15 503 -15 m 351 50 q 261 58 301 50 q 190 80 221 67 q 135 109 158 93 q 94 140 111 125 l 106 151 q 196 94 136 122 q 351 65 256 65 q 531 133 467 65 q 575 201 560 164 q 597 270 590 238 q 603 325 603 303 q 604 347 604 347 l 604 965 l 469 965 l 469 350 q 457 265 469 297 q 424 214 444 232 q 380 189 404 196 q 332 182 356 182 q 240 206 283 182 q 150 281 197 229 l 161 292 q 247 219 206 242 q 332 197 288 197 q 454 350 454 197 l 454 981 l 619 981 l 619 347 q 619 322 619 344 q 612 265 618 299 q 589 194 606 232 q 542 122 572 156 q 351 50 474 50 z "},"k":{"ha":1014,"x_min":110,"x_max":1003,"o":"m 193 69 l 178 69 l 178 982 l 338 982 l 338 571 l 717 979 l 728 968 l 322 532 l 322 967 l 193 967 l 193 69 m 990 3 l 575 564 l 961 967 l 801 967 l 254 372 l 254 913 l 269 913 l 269 413 l 794 982 l 996 982 l 594 563 l 1003 13 l 990 3 m 269 0 l 110 0 l 110 974 l 125 974 l 125 15 l 254 15 l 254 317 l 451 531 l 789 74 l 776 64 l 450 506 l 269 311 l 269 0 m 919 0 l 738 0 l 440 407 l 338 300 l 338 8 l 322 8 l 322 306 l 442 431 l 744 15 l 890 15 l 483 564 l 813 918 l 824 908 l 503 564 l 919 0 z "},"l":{"ha":860,"x_min":111,"x_max":824,"o":"m 824 61 l 188 61 l 188 913 l 203 913 l 203 76 l 808 76 l 808 193 l 324 193 l 324 974 l 339 974 l 339 208 l 824 208 l 824 61 m 817 0 l 111 0 l 111 982 l 271 982 l 271 139 l 764 139 l 764 124 l 256 124 l 256 967 l 126 967 l 126 15 l 817 15 l 817 0 z "},"m":{"ha":1206,"x_min":111,"x_max":1093,"o":"m 601 231 l 883 647 l 883 0 l 868 0 l 868 597 l 601 203 l 336 597 l 336 0 l 321 0 l 321 647 l 601 231 m 1093 982 l 1093 0 l 936 0 l 936 804 l 601 324 l 268 804 l 268 0 l 111 0 l 111 982 l 126 982 l 126 15 l 253 15 l 253 853 l 601 350 l 951 853 l 951 15 l 1078 15 l 1078 982 l 1093 982 m 203 68 l 188 68 l 188 982 l 350 982 l 601 589 l 854 982 l 1017 982 l 1017 68 l 1001 68 l 1001 967 l 961 967 l 601 442 l 242 967 l 203 967 l 203 68 m 342 967 l 261 967 l 601 469 l 943 967 l 863 967 l 601 561 l 342 967 z "},"n":{"ha":1097,"x_min":111,"x_max":985,"o":"m 901 913 l 917 913 l 917 0 l 793 0 l 336 599 l 336 0 l 321 0 l 321 644 l 800 15 l 865 15 l 268 790 l 268 0 l 111 0 l 111 982 l 126 982 l 126 15 l 253 15 l 253 835 l 885 15 l 901 15 l 901 913 m 985 982 l 985 0 l 969 0 l 969 967 l 844 967 l 844 165 l 211 967 l 203 967 l 203 68 l 188 68 l 188 982 l 318 982 l 760 401 l 760 982 l 775 982 l 775 356 l 311 967 l 231 967 l 829 210 l 829 982 l 985 982 z "},"o":{"ha":1181,"x_min":68,"x_max":1110,"o":"m 588 -15 q 390 20 483 -15 q 225 122 296 56 q 115 275 154 189 q 68 458 75 361 l 83 460 q 130 276 89 360 q 238 130 171 192 q 394 34 304 68 q 588 0 483 0 q 787 38 694 0 q 948 142 879 76 q 1056 298 1017 208 q 1094 492 1094 388 l 1094 494 q 1056 689 1094 599 q 950 844 1018 779 q 790 947 882 910 q 590 985 699 985 q 395 949 486 985 q 237 849 304 913 q 128 700 169 786 q 83 514 88 614 l 68 515 q 115 708 72 619 q 226 861 157 796 q 390 963 296 926 q 590 1000 483 1000 q 797 961 701 1000 q 961 855 892 922 q 1070 695 1031 788 q 1110 494 1110 603 l 1110 492 q 1072 297 1110 389 q 963 133 1035 204 q 792 23 889 61 q 588 -15 696 -15 m 590 181 q 473 205 528 181 q 377 271 418 229 q 313 369 336 313 q 290 492 290 426 l 290 494 q 313 617 290 561 q 376 715 336 674 q 469 779 415 756 q 588 803 524 803 q 701 781 649 803 q 794 722 754 760 q 859 631 835 683 q 888 515 883 578 l 872 514 q 844 624 868 574 q 783 710 821 674 q 696 767 746 746 q 588 788 646 788 q 475 765 526 788 q 386 704 424 743 q 327 611 349 665 q 306 494 306 557 l 306 492 q 327 375 306 429 q 387 281 349 321 q 477 219 425 242 q 590 196 529 196 q 697 215 647 196 q 783 269 746 235 q 843 353 819 304 q 871 460 867 401 l 886 458 q 856 347 881 397 q 792 259 832 296 q 701 201 753 222 q 590 181 649 181 m 590 104 q 442 133 511 104 q 322 219 374 163 q 244 343 271 274 q 217 492 217 413 l 217 496 q 242 641 217 574 q 313 759 268 708 q 421 842 358 810 q 557 879 483 874 l 558 864 q 428 828 488 858 q 324 749 368 797 q 256 635 281 700 q 232 496 232 571 l 232 492 q 259 344 232 413 q 334 226 286 276 q 448 148 382 176 q 590 119 514 119 q 731 147 667 119 q 844 225 796 175 q 919 342 892 275 q 946 489 946 410 l 946 492 q 921 632 946 567 q 851 747 896 697 q 745 828 806 797 q 614 864 685 858 l 614 879 q 752 842 689 874 q 862 758 815 810 q 935 638 908 706 q 961 492 961 569 l 961 489 q 933 336 961 407 q 855 214 904 265 q 738 133 806 163 q 590 104 669 104 m 614 43 l 614 58 q 777 98 701 63 q 908 192 853 133 q 994 327 963 250 q 1025 492 1025 404 l 1025 494 q 992 665 1025 586 q 900 803 958 744 q 763 894 842 861 q 590 926 683 926 q 419 893 499 926 q 280 801 339 860 q 187 663 221 742 q 153 492 153 583 l 153 489 q 183 325 153 401 q 268 191 214 249 q 397 99 322 133 q 558 58 471 64 l 557 43 q 391 85 468 49 q 256 183 314 121 q 167 324 197 246 q 138 489 138 401 l 138 492 q 170 665 138 583 q 265 810 203 747 q 413 908 329 874 q 590 942 496 942 q 769 908 686 942 q 912 814 851 874 q 1006 672 972 754 q 1040 494 1040 590 l 1040 492 q 1008 321 1040 400 q 918 181 975 242 q 783 84 861 121 q 614 43 706 47 z "},"p":{"ha":928,"x_min":110,"x_max":890,"o":"m 338 0 l 174 0 l 174 926 l 488 926 q 736 851 649 926 q 824 638 824 776 l 824 632 q 800 513 824 567 q 733 422 776 460 q 629 363 690 383 q 494 342 568 342 l 264 342 l 264 68 l 249 68 l 249 357 l 494 357 q 623 377 565 357 q 722 433 681 397 q 785 520 763 469 q 808 632 808 571 l 808 638 q 725 840 808 768 q 488 911 642 911 l 189 911 l 189 15 l 322 15 l 322 306 l 492 306 q 650 329 579 306 q 771 396 721 353 q 848 500 821 439 q 875 638 875 561 l 875 640 q 849 774 875 714 q 776 877 824 835 q 662 943 729 919 q 513 967 594 967 l 125 967 l 125 7 l 110 7 l 110 982 l 513 982 q 668 958 599 982 q 787 889 738 933 q 863 781 836 844 q 890 640 890 718 l 890 638 q 862 494 890 558 q 781 385 833 431 q 656 315 729 339 q 492 290 582 290 l 338 290 l 338 0 m 494 408 l 249 408 l 249 853 l 264 853 l 264 424 l 494 424 q 668 481 603 424 q 733 632 733 538 l 733 636 q 670 790 733 736 q 489 844 607 844 l 331 844 l 331 860 l 489 860 q 681 801 614 860 q 749 636 749 743 l 749 632 q 730 541 749 582 q 678 470 711 500 q 598 424 644 440 q 494 408 551 408 m 499 479 l 392 479 l 392 494 l 499 494 q 615 533 571 494 q 660 633 660 571 l 660 636 q 617 739 660 703 q 494 775 574 775 l 338 775 l 338 486 l 322 486 l 322 790 l 494 790 q 627 749 579 790 q 675 636 675 708 l 675 633 q 626 521 675 563 q 499 479 578 479 z "},"q":{"ha":1181,"x_min":72,"x_max":1124,"o":"m 965 489 q 892 254 965 356 l 1086 83 l 985 -31 l 879 64 q 743 5 815 25 q 592 -15 671 -15 q 394 20 488 -15 q 228 122 300 56 q 117 275 157 189 q 72 458 78 361 l 88 460 q 133 276 93 360 q 241 130 174 192 q 398 34 308 68 q 592 0 488 0 q 741 20 669 0 q 875 81 813 40 l 881 83 l 983 -8 l 1064 82 l 689 414 l 699 425 l 881 264 q 950 489 950 361 l 950 492 q 925 632 950 567 q 855 747 900 697 q 749 828 810 797 q 617 864 688 858 l 618 879 q 756 842 692 874 q 866 758 819 810 q 939 638 913 706 q 965 492 965 569 l 965 489 m 563 864 q 432 828 492 858 q 328 749 372 797 q 260 635 285 700 q 236 496 236 571 l 236 492 q 263 344 236 413 q 338 226 290 276 q 452 148 386 176 q 594 119 518 119 q 779 169 697 119 l 788 157 q 594 104 701 104 q 447 133 515 104 q 325 219 378 163 q 248 343 275 274 q 221 492 221 413 l 221 496 q 247 641 221 574 q 317 759 272 708 q 425 842 363 810 q 561 879 488 874 l 563 864 m 964 261 q 1013 371 996 313 q 1029 492 1029 429 l 1029 494 q 996 665 1029 586 q 904 803 963 744 q 767 894 846 861 q 594 926 688 926 q 423 893 503 926 q 284 801 343 860 q 191 663 225 742 q 157 492 157 583 l 157 489 q 187 325 157 401 q 271 191 217 249 q 399 99 325 133 q 563 58 474 64 l 561 43 q 394 85 472 49 q 258 183 317 121 q 172 324 201 246 q 142 489 142 401 l 142 492 q 174 665 142 583 q 269 810 207 747 q 415 908 332 874 q 594 942 499 942 q 772 908 690 942 q 915 814 854 874 q 1010 672 975 754 q 1044 494 1044 590 l 1044 492 q 1027 367 1044 428 q 978 253 1010 306 l 964 261 m 888 149 q 618 43 774 51 l 617 58 q 876 158 765 67 l 597 399 l 697 511 l 854 369 q 875 460 871 413 l 890 458 q 864 354 886 406 l 860 344 l 699 490 l 619 400 l 1003 68 l 993 57 l 888 149 m 1124 136 l 1114 125 l 1013 211 l 1015 217 q 1099 492 1099 340 l 1099 494 q 1060 689 1099 599 q 954 844 1022 779 q 794 947 886 910 q 594 985 703 985 q 399 949 490 985 q 241 849 308 913 q 133 700 174 786 q 88 514 92 614 l 72 515 q 118 708 76 619 q 230 861 160 796 q 394 963 300 926 q 594 1000 488 1000 q 801 961 706 1000 q 965 855 896 922 q 1074 695 1035 788 q 1114 494 1114 603 l 1114 492 q 1093 347 1114 417 q 1032 214 1072 276 l 1124 136 m 592 803 q 706 781 653 803 q 798 722 758 760 q 862 631 838 683 q 890 515 886 578 l 875 514 q 848 624 871 574 q 788 710 825 674 q 700 767 750 746 q 592 788 650 788 q 479 765 531 788 q 390 704 428 743 q 330 611 351 665 q 308 494 308 557 l 308 492 q 330 375 308 429 q 390 281 351 321 q 481 219 429 242 q 594 196 533 196 q 706 218 656 196 l 558 343 l 568 354 l 733 214 l 722 208 q 594 181 663 181 q 476 205 531 181 q 380 271 421 229 q 316 369 339 313 q 293 492 293 426 l 293 494 q 316 617 293 561 q 379 715 339 674 q 474 779 419 756 q 592 803 528 803 z "},"r":{"ha":1004,"x_min":111,"x_max":960,"o":"m 542 424 l 250 424 l 250 853 l 265 853 l 265 439 l 542 439 q 715 494 650 439 q 781 640 781 549 l 781 644 q 717 793 781 742 q 536 844 654 844 l 332 844 l 332 860 l 536 860 q 729 804 663 860 q 796 644 796 749 l 796 640 q 727 482 796 540 q 542 424 658 424 m 546 494 l 393 494 l 393 510 l 546 510 q 664 544 621 510 q 707 640 707 579 l 707 643 q 692 709 707 683 q 652 749 676 735 q 599 769 628 764 q 542 775 569 775 l 339 775 l 339 501 l 324 501 l 324 790 l 542 790 q 676 752 629 790 q 722 643 722 714 l 722 640 q 674 534 722 574 q 546 494 626 494 m 947 3 l 713 347 l 721 351 q 870 463 818 388 q 922 644 922 539 l 922 647 q 897 780 922 721 q 825 881 872 839 q 710 944 778 922 q 560 967 643 967 l 126 967 l 126 7 l 111 7 l 111 982 l 560 982 q 836 890 733 982 q 912 784 886 846 q 938 647 938 722 l 938 644 q 885 458 938 536 q 736 340 833 381 l 960 11 l 947 3 m 339 0 l 175 0 l 175 926 l 535 926 q 785 854 699 926 q 871 644 871 782 l 871 639 q 847 523 871 575 q 781 434 824 471 q 678 377 739 397 q 542 357 617 357 l 265 357 l 265 68 l 250 68 l 250 372 l 542 372 q 671 391 613 372 q 770 445 729 410 q 833 529 811 481 q 856 639 856 578 l 856 644 q 773 843 856 775 q 535 911 690 911 l 190 911 l 190 15 l 324 15 l 324 321 l 504 321 l 507 317 l 710 15 l 858 15 l 653 315 q 626 311 639 313 q 597 308 613 310 l 763 64 l 750 56 l 571 321 l 583 322 q 620 326 603 324 q 654 332 638 328 l 660 333 l 886 0 l 701 0 l 497 306 l 339 306 l 339 0 z "},"s":{"ha":889,"x_min":46,"x_max":829,"o":"m 471 174 q 324 202 394 174 q 178 293 253 231 l 188 304 q 328 217 260 246 q 471 189 397 189 q 568 211 533 189 q 603 272 603 233 l 603 275 q 596 307 603 293 q 569 335 589 321 q 512 362 549 349 q 414 390 475 375 q 285 429 344 408 q 181 483 225 450 q 113 567 138 517 q 88 693 88 617 l 88 696 q 113 817 88 763 q 185 912 139 872 q 294 974 231 951 q 433 996 357 996 q 797 871 640 996 l 788 858 q 433 981 636 981 q 299 960 360 981 q 194 903 238 940 q 126 813 150 865 q 103 696 103 760 l 103 693 q 126 574 103 621 q 192 495 150 526 q 291 444 233 464 q 418 406 349 424 q 515 377 476 390 q 577 349 554 364 q 609 316 600 333 q 618 275 618 299 l 618 272 q 579 200 618 226 q 471 174 540 174 m 467 -14 q 244 26 350 -14 q 51 143 138 67 l 46 147 l 138 256 l 143 253 q 326 157 244 186 q 486 128 407 128 q 572 140 535 128 q 635 171 610 151 q 672 215 660 190 q 685 265 685 240 l 685 269 q 675 330 685 304 q 635 378 665 356 q 551 420 606 400 q 404 465 496 440 l 399 467 q 317 493 357 478 q 245 531 278 508 q 191 584 213 553 q 163 660 169 615 l 176 663 q 240 554 188 596 q 403 481 292 513 l 408 479 q 553 435 497 456 q 642 390 610 414 q 688 338 675 367 q 700 269 700 310 l 700 265 q 686 209 700 236 q 645 160 672 182 q 578 126 618 139 q 486 113 539 113 q 324 142 406 113 q 140 236 242 171 l 68 149 q 253 40 151 78 q 467 1 354 1 q 611 22 547 1 q 720 79 675 42 q 790 171 765 117 q 814 293 814 225 l 814 296 q 793 406 814 360 q 733 483 772 451 q 639 538 694 515 q 514 579 583 561 q 408 608 450 596 q 342 635 367 621 q 308 668 318 650 q 299 713 299 686 l 299 715 q 335 782 299 757 q 431 807 371 807 q 681 715 546 807 l 749 814 q 587 892 669 864 q 436 919 504 919 q 253 863 325 919 q 175 715 182 807 l 160 717 q 185 806 164 765 q 243 874 207 846 q 328 919 279 903 q 436 935 378 935 q 594 906 508 935 q 764 824 681 876 l 771 818 l 685 694 l 678 699 q 431 792 543 792 q 346 772 378 792 q 314 715 314 751 l 314 713 q 322 676 314 692 q 353 648 331 661 q 415 622 375 635 q 517 593 454 610 q 645 551 588 575 q 744 493 703 528 q 807 410 785 458 q 829 296 829 363 l 829 293 q 804 165 829 222 q 732 69 779 108 q 617 8 685 29 q 467 -14 550 -14 m 750 300 q 728 380 747 347 q 677 436 708 413 q 606 475 646 460 q 524 503 567 490 l 518 504 q 372 549 429 528 q 283 593 315 569 q 239 646 251 617 q 226 715 226 675 l 226 719 q 240 775 226 747 q 281 824 254 803 q 347 859 307 846 q 439 872 386 872 q 562 855 503 872 q 689 799 621 838 l 681 785 q 558 840 614 822 q 439 857 501 857 q 353 845 390 857 q 292 814 317 833 q 254 769 267 794 q 242 719 242 744 l 242 715 q 251 655 242 681 q 290 607 261 629 q 374 565 319 585 q 521 519 429 544 l 528 518 q 614 489 572 506 q 688 447 656 472 q 742 387 721 422 q 765 301 763 351 l 750 300 m 489 49 q 429 53 465 49 q 347 69 393 57 q 245 105 300 82 q 129 167 190 128 l 138 179 q 251 119 197 142 q 349 84 304 96 q 430 68 394 72 q 489 64 465 64 q 663 114 593 64 q 747 247 733 164 l 763 244 q 674 101 747 154 q 489 49 600 49 z "},"t":{"ha":900,"x_min":40,"x_max":857,"o":"m 486 0 l 335 0 l 335 771 l 40 771 l 40 913 l 781 913 l 781 897 l 56 897 l 56 786 l 350 786 l 350 15 l 486 15 l 486 0 m 563 7 l 547 7 l 547 786 l 842 786 l 842 967 l 49 967 l 49 982 l 857 982 l 857 771 l 563 771 l 563 7 m 486 8 l 471 8 l 471 782 l 486 782 l 486 8 m 419 68 l 404 68 l 404 832 l 110 832 l 110 847 l 850 847 l 850 832 l 419 832 l 419 68 z "},"u":{"ha":1050,"x_min":94,"x_max":951,"o":"m 521 -15 q 208 94 318 -15 q 94 421 94 208 l 94 974 l 110 974 l 110 421 q 215 108 110 217 q 521 0 321 0 q 830 110 724 0 q 936 428 936 219 l 936 967 l 808 967 l 808 426 q 734 192 808 275 q 524 110 660 110 q 313 194 386 110 q 239 435 239 279 l 239 913 l 254 913 l 254 435 q 323 204 254 283 q 524 125 392 125 q 724 202 654 125 q 793 426 793 279 l 793 982 l 951 982 l 951 428 q 835 94 951 208 q 521 -15 722 -15 m 521 44 q 258 136 351 44 q 163 411 163 235 l 163 982 l 322 982 l 322 426 q 374 255 322 314 q 524 196 425 196 q 672 253 621 196 q 724 419 724 311 l 724 974 l 739 974 l 739 419 q 683 243 739 306 q 524 181 626 181 q 363 244 419 181 q 307 426 307 308 l 307 967 l 178 967 l 178 411 q 266 149 178 239 q 521 60 354 60 q 778 151 689 60 q 868 417 868 243 l 868 913 l 883 913 l 883 417 q 785 136 883 235 q 521 44 690 44 z "},"v":{"ha":1042,"x_min":26,"x_max":1014,"o":"m 469 60 l 99 981 l 274 981 l 521 314 l 767 975 l 781 971 l 521 271 l 264 965 l 122 965 l 479 75 l 565 75 l 901 915 l 917 910 l 575 60 l 469 60 m 618 -8 l 419 -8 l 26 969 l 42 976 l 431 7 l 607 7 l 992 965 l 863 965 l 522 110 l 204 910 l 218 915 l 522 151 l 851 981 l 1014 981 l 618 -8 z "},"w":{"ha":1558,"x_min":43,"x_max":1518,"o":"m 419 65 l 108 981 l 265 981 l 469 347 l 679 975 l 694 971 l 469 299 l 254 965 l 129 965 l 432 75 l 500 75 l 781 860 l 789 842 l 1064 75 l 1131 75 l 1415 914 l 1431 910 l 1142 60 l 1053 60 l 782 817 l 510 60 l 421 60 l 419 65 m 1518 981 l 1179 -8 l 1008 -8 l 779 635 l 549 -8 l 378 -8 l 43 971 l 57 975 l 389 7 l 538 7 l 779 681 l 1019 7 l 1168 7 l 1496 965 l 1382 965 l 1093 115 l 796 965 l 767 965 l 469 115 l 199 910 l 213 914 l 469 161 l 756 981 l 881 981 l 1093 354 l 1294 975 l 1310 971 l 1093 307 l 869 965 l 811 965 l 1093 161 l 1371 981 l 1518 981 z "},"x":{"ha":1017,"x_min":32,"x_max":978,"o":"m 208 0 l 32 0 l 374 499 l 54 969 l 67 978 l 393 499 l 61 15 l 200 15 l 506 467 l 772 72 l 760 64 l 506 440 l 208 0 m 965 3 l 625 501 l 943 967 l 804 967 l 511 540 l 260 908 l 272 917 l 511 567 l 796 982 l 972 982 l 643 501 l 978 11 l 965 3 m 179 64 l 165 72 l 458 499 l 129 982 l 313 982 l 511 675 l 710 978 l 722 969 l 511 646 l 304 967 l 158 967 l 476 499 l 179 64 m 901 0 l 718 0 l 506 325 l 294 3 l 282 11 l 506 353 l 726 15 l 872 15 l 542 501 l 825 917 l 838 908 l 560 501 l 901 0 z "},"y":{"ha":994,"x_min":13,"x_max":989,"o":"m 611 7 l 596 7 l 596 394 l 597 397 l 961 967 l 819 967 l 497 453 l 215 908 l 229 917 l 497 482 l 811 982 l 989 982 l 611 390 l 611 7 m 471 68 l 456 68 l 456 399 l 86 982 l 272 982 l 499 600 l 726 978 l 740 969 l 499 571 l 264 967 l 114 967 l 471 403 l 471 68 m 539 0 l 383 0 l 383 386 l 13 969 l 26 978 l 399 390 l 399 15 l 524 15 l 524 407 l 525 408 l 849 917 l 863 908 l 539 403 l 539 0 z "},"z":{"ha":983,"x_min":83,"x_max":903,"o":"m 903 61 l 160 61 l 160 171 l 736 840 l 168 840 l 168 856 l 769 856 l 175 164 l 175 76 l 888 76 l 888 186 l 347 186 l 888 815 l 888 967 l 107 967 l 107 982 l 903 982 l 903 810 l 381 201 l 903 201 l 903 61 m 896 0 l 83 0 l 83 172 l 606 779 l 100 779 l 100 921 l 826 921 l 826 819 l 243 140 l 835 140 l 835 125 l 210 125 l 811 825 l 811 906 l 115 906 l 115 794 l 639 794 l 99 167 l 99 15 l 896 15 l 896 0 z "},"":{"ha":733,"x_min":63,"x_max":668,"o":"m 633 390 l 63 390 l 63 533 l 661 533 l 661 518 l 78 518 l 78 406 l 633 406 l 633 390 m 668 328 l 69 328 l 69 343 l 653 343 l 653 457 l 97 457 l 97 472 l 668 472 l 668 328 z "},"":{"ha":1247,"x_min":63,"x_max":1181,"o":"m 1146 390 l 63 390 l 63 533 l 1174 533 l 1174 518 l 78 518 l 78 406 l 1146 406 l 1146 390 m 1181 328 l 69 328 l 69 343 l 1165 343 l 1165 457 l 97 457 l 97 472 l 1181 472 l 1181 328 z "},"":{"ha":1089,"x_min":58,"x_max":1057,"o":"m 856 797 q 678 851 781 847 l 678 867 q 864 810 788 860 l 856 797 m 678 49 l 678 64 q 831 97 764 68 q 958 186 897 126 l 969 175 q 837 83 907 113 q 678 49 767 53 m 1057 165 l 1053 160 q 964 81 1008 114 q 871 26 919 47 q 768 -6 822 4 q 650 -15 714 -15 q 487 10 564 -15 q 347 83 410 36 q 237 197 283 131 q 168 343 190 263 l 86 343 l 58 442 l 150 442 l 149 522 l 89 522 l 63 619 l 163 619 q 229 774 183 704 q 340 894 275 844 q 487 972 406 944 q 658 1000 568 1000 q 939 931 825 1000 l 932 918 q 807 968 874 951 q 658 985 740 985 q 490 958 569 985 q 348 882 411 931 q 240 764 285 833 q 176 611 196 694 l 175 604 l 82 604 l 101 538 l 164 538 l 165 426 l 79 426 l 97 358 l 179 358 l 181 353 q 247 208 203 274 q 353 97 292 143 q 491 26 415 51 q 650 0 567 0 q 863 39 772 0 q 1036 165 953 78 l 953 250 q 901 203 931 226 q 834 160 872 179 q 749 130 796 142 q 647 118 703 118 q 506 146 572 118 q 390 226 440 174 q 315 347 342 279 q 289 490 289 414 l 289 493 q 289 508 289 500 q 290 524 289 515 q 322 653 296 593 q 392 759 349 714 q 494 832 436 804 q 621 865 553 860 l 622 850 q 501 818 557 844 q 403 748 446 792 q 335 647 361 704 q 306 522 310 589 q 304 507 304 514 q 304 493 304 500 l 304 490 q 331 349 304 414 q 403 235 357 283 q 511 160 449 188 q 647 133 574 133 q 749 146 703 133 q 832 177 794 158 q 897 219 869 196 q 946 265 925 243 l 951 272 l 1057 165 m 657 789 q 508 744 574 789 q 410 619 442 699 l 861 619 l 835 522 l 386 522 q 385 509 385 515 q 385 496 385 503 l 385 493 q 389 442 385 467 l 819 442 l 793 343 l 419 343 q 518 235 456 274 q 657 196 581 196 q 763 213 715 196 q 858 268 810 231 q 906 307 882 285 l 917 296 q 891 274 903 285 q 868 256 879 264 q 767 198 817 215 q 657 181 718 181 q 506 224 574 181 q 401 347 438 268 l 396 358 l 781 358 l 800 426 l 375 426 l 374 432 q 369 493 369 461 l 369 496 q 369 513 369 504 q 371 531 369 521 l 372 538 l 822 538 l 842 604 l 386 604 l 390 615 q 494 753 424 703 q 657 804 565 804 q 768 784 715 804 q 874 722 821 764 l 908 850 q 791 903 853 886 q 656 921 729 921 q 486 888 564 921 q 351 798 408 856 q 263 663 294 740 q 231 493 231 585 l 231 490 q 260 329 231 404 q 342 197 290 254 q 467 104 394 139 q 622 65 539 69 l 621 50 q 459 90 533 54 q 331 185 385 126 q 246 323 276 244 q 215 490 215 401 l 215 493 q 249 669 215 588 q 341 809 282 750 q 481 902 400 868 q 656 936 561 936 q 921 860 807 936 l 925 857 l 883 696 l 874 703 q 657 789 769 789 z "},"":{"ha":1107,"x_min":61,"x_max":1060,"o":"m 858 797 q 681 851 783 847 l 681 867 q 867 810 790 860 l 858 797 m 681 49 l 681 64 q 833 97 767 68 q 961 186 900 126 l 972 175 q 840 83 910 113 q 681 49 769 53 m 1060 165 l 1056 160 q 967 81 1011 114 q 874 26 922 47 q 771 -6 825 4 q 653 -15 717 -15 q 490 10 567 -15 q 349 83 413 36 q 240 197 286 131 q 171 343 193 263 l 89 343 l 61 442 l 153 442 l 151 522 l 92 522 l 65 619 l 165 619 q 232 774 186 704 q 343 894 278 844 q 490 972 408 944 q 661 1000 571 1000 q 942 931 828 1000 l 935 918 q 810 968 876 951 q 661 985 743 985 q 493 958 572 985 q 351 882 414 931 q 243 764 288 833 q 179 611 199 694 l 178 604 l 85 604 l 104 538 l 167 538 l 168 426 l 82 426 l 100 358 l 182 358 l 183 353 q 250 208 206 274 q 356 97 294 143 q 494 26 418 51 q 653 0 569 0 q 865 39 775 0 q 1039 165 956 78 l 956 250 q 904 203 933 226 q 837 160 875 179 q 752 130 799 142 q 650 118 706 118 q 509 146 575 118 q 393 226 443 174 q 318 347 344 279 q 292 490 292 414 l 292 493 q 292 508 292 500 q 293 524 292 515 q 325 653 299 593 q 395 759 351 714 q 497 832 439 804 q 624 865 556 860 l 625 850 q 504 818 560 844 q 406 748 449 792 q 338 647 364 704 q 308 522 313 589 q 307 507 307 514 q 307 493 307 500 l 307 490 q 333 349 307 414 q 406 235 360 283 q 514 160 451 188 q 650 133 576 133 q 751 146 706 133 q 835 178 797 158 q 902 222 872 197 q 954 272 932 247 l 1060 165 m 660 789 q 510 744 576 789 q 413 619 444 699 l 864 619 l 838 522 l 389 522 q 388 509 388 515 q 388 496 388 503 l 388 493 q 392 442 388 467 l 822 442 l 796 343 l 422 343 q 521 235 458 274 q 660 196 583 196 q 765 213 718 196 q 861 268 813 231 q 908 307 885 285 l 919 296 q 894 274 906 285 q 871 256 882 264 q 770 198 819 215 q 660 181 721 181 q 508 224 576 181 q 404 347 440 268 l 399 358 l 783 358 l 803 426 l 378 426 l 376 432 q 372 493 372 461 l 372 496 q 372 513 372 504 q 374 531 372 521 l 375 538 l 825 538 l 844 604 l 389 604 l 393 615 q 497 753 426 703 q 660 804 568 804 q 771 784 718 804 q 876 722 824 764 l 911 850 q 794 903 856 886 q 658 921 732 921 q 489 888 567 921 q 354 798 411 856 q 265 663 297 740 q 233 493 233 585 l 233 490 q 263 329 233 404 q 345 197 293 254 q 469 104 397 139 q 625 65 542 69 l 624 50 q 462 90 536 54 q 333 185 388 126 q 249 323 279 244 q 218 490 218 401 l 218 493 q 251 669 218 588 q 344 809 285 750 q 483 902 403 868 q 658 936 564 936 q 924 860 810 936 l 928 857 l 886 696 l 876 703 q 660 789 772 789 z "},"":{"ha":2767,"x_min":-49,"x_max":2722,"o":"m 882 226 q 829 231 856 240 l 829 0 l 726 0 l 726 276 q 794 295 753 289 q 900 299 836 301 l 882 226 m 999 113 q 1060 64 1007 64 q 1106 69 1086 64 q 1138 81 1126 74 l 1161 17 q 1115 1 1142 7 q 1047 -4 1088 -4 q 938 38 974 -4 q 901 147 901 81 q 936 257 901 214 q 1040 300 971 300 q 1142 256 1110 300 q 1169 135 1174 211 l 999 113 m 1035 239 q 1000 219 1011 239 q 992 161 989 199 l 1075 174 q 1035 239 1075 239 m 1310 -4 q 1238 22 1261 -4 q 1214 86 1214 47 l 1214 226 l 1183 226 l 1183 293 l 1214 293 l 1214 354 l 1317 379 l 1317 293 l 1360 293 l 1360 226 l 1317 226 l 1317 94 q 1339 64 1317 64 q 1360 69 1349 64 l 1360 4 q 1340 -1 1353 1 q 1310 -4 1328 -4 m 1438 332 q 1399 345 1414 332 q 1383 378 1383 358 q 1399 411 1383 397 q 1438 425 1414 425 q 1475 411 1460 425 q 1490 378 1490 397 q 1475 345 1490 358 q 1438 332 1460 332 m 1385 0 l 1385 293 l 1488 293 l 1488 0 l 1385 0 m 1640 -4 q 1551 35 1588 -4 q 1515 149 1515 74 q 1553 262 1515 224 q 1639 300 1590 300 q 1685 294 1667 300 q 1715 278 1704 288 l 1694 221 q 1664 231 1682 231 q 1619 149 1619 231 q 1664 68 1619 68 q 1694 79 1685 68 l 1717 17 q 1688 1 1706 7 q 1640 -4 1671 -4 m 1867 -4 q 1768 19 1801 -4 q 1735 100 1735 42 l 1735 293 l 1838 293 l 1838 92 q 1845 72 1838 81 q 1869 64 1853 64 q 1896 69 1886 64 l 1896 293 l 1999 293 l 1999 18 q 1944 1 1976 7 q 1867 -4 1911 -4 m 2036 0 l 2036 428 l 2139 428 l 2139 0 l 2036 0 m 2300 -4 q 2163 90 2163 -4 q 2176 137 2163 118 q 2212 167 2189 156 q 2264 185 2235 179 q 2326 194 2293 192 l 2326 207 q 2315 230 2326 224 q 2282 236 2303 236 q 2238 231 2260 236 q 2201 218 2217 225 l 2181 276 q 2228 292 2197 283 q 2301 300 2258 300 q 2389 274 2356 300 q 2422 186 2422 249 l 2422 17 q 2372 1 2403 7 q 2300 -4 2342 -4 m 2326 149 q 2277 135 2296 146 q 2258 94 2258 125 q 2304 51 2258 51 q 2326 56 2318 51 l 2326 149 m 2476 0 q 2465 5 2469 0 q 2460 17 2460 10 q 2465 28 2460 24 q 2476 33 2469 33 q 2489 28 2483 33 q 2494 17 2494 24 q 2476 0 2494 0 m 2572 207 l 2572 0 l 2551 0 l 2551 206 l 2525 206 l 2525 218 l 2551 218 l 2551 254 q 2567 300 2551 282 q 2614 318 2582 318 l 2614 304 q 2585 292 2597 301 q 2572 257 2572 283 l 2572 218 l 2614 218 l 2614 207 l 2572 207 m 2717 204 q 2686 206 2701 207 q 2663 199 2671 206 l 2663 0 l 2640 0 l 2640 208 q 2671 219 2656 215 q 2722 222 2686 222 l 2717 204 m 717 99 q 667 110 693 106 q 614 113 643 113 q 553 107 585 114 q 469 83 501 96 q 410 63 438 71 q 354 55 383 56 q 278 67 325 54 q 228 86 254 72 q 174 117 201 100 q 120 155 147 135 q 68 196 93 175 q -49 301 10 243 q 39 272 -4 286 q 114 251 75 261 q 181 239 153 240 q 250 243 208 238 q 340 255 292 249 q 435 265 388 261 q 524 264 483 268 q 596 231 561 257 q 658 175 631 204 q 717 99 690 140 m 636 236 q 617 254 628 246 q 594 269 607 261 q 565 282 582 276 q 519 293 538 290 q 485 299 500 296 q 456 310 469 303 q 426 336 443 318 q 397 387 410 354 q 375 451 383 419 q 358 531 365 489 q 388 494 372 511 q 415 464 400 479 q 440 442 429 449 q 474 425 453 433 q 519 407 494 417 q 566 386 543 397 q 606 363 589 375 q 627 328 621 349 q 636 286 633 307 q 636 236 639 261 m 706 76 q 674 57 689 67 q 644 36 660 47 q 615 10 628 25 q 583 -31 594 -14 q 562 -60 572 -47 q 537 -84 551 -74 q 493 -103 522 -94 q 417 -112 463 -112 q 329 -108 372 -112 q 224 -94 279 -103 q 281 -81 254 -87 q 327 -65 304 -74 q 365 -49 350 -57 q 394 -26 379 -40 q 425 5 408 -11 q 460 36 442 21 q 501 63 478 51 q 569 81 533 76 q 636 83 606 85 q 706 76 672 82 z "},"":{"ha":2767,"x_min":-49,"x_max":2722,"o":"m 882 226 q 829 231 856 240 l 829 0 l 726 0 l 726 276 q 794 295 753 289 q 900 299 836 301 l 882 226 m 999 113 q 1060 64 1007 64 q 1106 69 1086 64 q 1138 81 1126 74 l 1161 17 q 1115 1 1142 7 q 1047 -4 1088 -4 q 938 38 974 -4 q 901 147 901 81 q 936 257 901 214 q 1040 300 971 300 q 1142 256 1110 300 q 1169 135 1174 211 l 999 113 m 1035 239 q 1000 219 1011 239 q 992 161 989 199 l 1075 174 q 1035 239 1075 239 m 1310 -4 q 1238 22 1261 -4 q 1214 86 1214 47 l 1214 226 l 1183 226 l 1183 293 l 1214 293 l 1214 354 l 1317 379 l 1317 293 l 1360 293 l 1360 226 l 1317 226 l 1317 94 q 1339 64 1317 64 q 1360 69 1349 64 l 1360 4 q 1340 -1 1353 1 q 1310 -4 1328 -4 m 1438 332 q 1399 345 1414 332 q 1383 378 1383 358 q 1399 411 1383 397 q 1438 425 1414 425 q 1475 411 1460 425 q 1490 378 1490 397 q 1475 345 1490 358 q 1438 332 1460 332 m 1385 0 l 1385 293 l 1488 293 l 1488 0 l 1385 0 m 1640 -4 q 1551 35 1588 -4 q 1515 149 1515 74 q 1553 262 1515 224 q 1639 300 1590 300 q 1685 294 1667 300 q 1715 278 1704 288 l 1694 221 q 1664 231 1682 231 q 1619 149 1619 231 q 1664 68 1619 68 q 1694 79 1685 68 l 1717 17 q 1688 1 1706 7 q 1640 -4 1671 -4 m 1867 -4 q 1768 19 1801 -4 q 1735 100 1735 42 l 1735 293 l 1838 293 l 1838 92 q 1845 72 1838 81 q 1869 64 1853 64 q 1896 69 1886 64 l 1896 293 l 1999 293 l 1999 18 q 1944 1 1976 7 q 1867 -4 1911 -4 m 2036 0 l 2036 428 l 2139 428 l 2139 0 l 2036 0 m 2300 -4 q 2163 90 2163 -4 q 2176 137 2163 118 q 2212 167 2189 156 q 2264 185 2235 179 q 2326 194 2293 192 l 2326 207 q 2315 230 2326 224 q 2282 236 2303 236 q 2238 231 2260 236 q 2201 218 2217 225 l 2181 276 q 2228 292 2197 283 q 2301 300 2258 300 q 2389 274 2356 300 q 2422 186 2422 249 l 2422 17 q 2372 1 2403 7 q 2300 -4 2342 -4 m 2326 149 q 2277 135 2296 146 q 2258 94 2258 125 q 2304 51 2258 51 q 2326 56 2318 51 l 2326 149 m 2476 0 q 2465 5 2469 0 q 2460 17 2460 10 q 2465 28 2460 24 q 2476 33 2469 33 q 2489 28 2483 33 q 2494 17 2494 24 q 2476 0 2494 0 m 2572 207 l 2572 0 l 2551 0 l 2551 206 l 2525 206 l 2525 218 l 2551 218 l 2551 254 q 2567 300 2551 282 q 2614 318 2582 318 l 2614 304 q 2585 292 2597 301 q 2572 257 2572 283 l 2572 218 l 2614 218 l 2614 207 l 2572 207 m 2717 204 q 2686 206 2701 207 q 2663 199 2671 206 l 2663 0 l 2640 0 l 2640 208 q 2671 219 2656 215 q 2722 222 2686 222 l 2717 204 m 717 99 q 667 110 693 106 q 614 113 643 113 q 553 107 585 114 q 469 83 501 96 q 410 63 438 71 q 354 55 383 56 q 278 67 325 54 q 228 86 254 72 q 174 117 201 100 q 120 155 147 135 q 68 196 93 175 q -49 301 10 243 q 39 272 -4 286 q 114 251 75 261 q 181 239 153 240 q 250 243 208 238 q 340 255 292 249 q 435 265 388 261 q 524 264 483 268 q 596 231 561 257 q 658 175 631 204 q 717 99 690 140 m 636 236 q 617 254 628 246 q 594 269 607 261 q 565 282 582 276 q 519 293 538 290 q 485 299 500 296 q 456 310 469 303 q 426 336 443 318 q 397 387 410 354 q 375 451 383 419 q 358 531 365 489 q 388 494 372 511 q 415 464 400 479 q 440 442 429 449 q 474 425 453 433 q 519 407 494 417 q 566 386 543 397 q 606 363 589 375 q 627 328 621 349 q 636 286 633 307 q 636 236 639 261 m 706 76 q 674 57 689 67 q 644 36 660 47 q 615 10 628 25 q 583 -31 594 -14 q 562 -60 572 -47 q 537 -84 551 -74 q 493 -103 522 -94 q 417 -112 463 -112 q 329 -108 372 -112 q 224 -94 279 -103 q 281 -81 254 -87 q 327 -65 304 -74 q 365 -49 350 -57 q 394 -26 379 -40 q 425 5 408 -11 q 460 36 442 21 q 501 63 478 51 q 569 81 533 76 q 636 83 606 85 q 706 76 672 82 z "},"":{"ha":2767,"x_min":-49,"x_max":2722,"o":"m 882 226 q 829 231 856 240 l 829 0 l 726 0 l 726 276 q 794 295 753 289 q 900 299 836 301 l 882 226 m 999 113 q 1060 64 1007 64 q 1106 69 1086 64 q 1138 81 1126 74 l 1161 17 q 1115 1 1142 7 q 1047 -4 1088 -4 q 938 38 974 -4 q 901 147 901 81 q 936 257 901 214 q 1040 300 971 300 q 1142 256 1110 300 q 1169 135 1174 211 l 999 113 m 1035 239 q 1000 219 1011 239 q 992 161 989 199 l 1075 174 q 1035 239 1075 239 m 1310 -4 q 1238 22 1261 -4 q 1214 86 1214 47 l 1214 226 l 1183 226 l 1183 293 l 1214 293 l 1214 354 l 1317 379 l 1317 293 l 1360 293 l 1360 226 l 1317 226 l 1317 94 q 1339 64 1317 64 q 1360 69 1349 64 l 1360 4 q 1340 -1 1353 1 q 1310 -4 1328 -4 m 1438 332 q 1399 345 1414 332 q 1383 378 1383 358 q 1399 411 1383 397 q 1438 425 1414 425 q 1475 411 1460 425 q 1490 378 1490 397 q 1475 345 1490 358 q 1438 332 1460 332 m 1385 0 l 1385 293 l 1488 293 l 1488 0 l 1385 0 m 1640 -4 q 1551 35 1588 -4 q 1515 149 1515 74 q 1553 262 1515 224 q 1639 300 1590 300 q 1685 294 1667 300 q 1715 278 1704 288 l 1694 221 q 1664 231 1682 231 q 1619 149 1619 231 q 1664 68 1619 68 q 1694 79 1685 68 l 1717 17 q 1688 1 1706 7 q 1640 -4 1671 -4 m 1867 -4 q 1768 19 1801 -4 q 1735 100 1735 42 l 1735 293 l 1838 293 l 1838 92 q 1845 72 1838 81 q 1869 64 1853 64 q 1896 69 1886 64 l 1896 293 l 1999 293 l 1999 18 q 1944 1 1976 7 q 1867 -4 1911 -4 m 2036 0 l 2036 428 l 2139 428 l 2139 0 l 2036 0 m 2300 -4 q 2163 90 2163 -4 q 2176 137 2163 118 q 2212 167 2189 156 q 2264 185 2235 179 q 2326 194 2293 192 l 2326 207 q 2315 230 2326 224 q 2282 236 2303 236 q 2238 231 2260 236 q 2201 218 2217 225 l 2181 276 q 2228 292 2197 283 q 2301 300 2258 300 q 2389 274 2356 300 q 2422 186 2422 249 l 2422 17 q 2372 1 2403 7 q 2300 -4 2342 -4 m 2326 149 q 2277 135 2296 146 q 2258 94 2258 125 q 2304 51 2258 51 q 2326 56 2318 51 l 2326 149 m 2476 0 q 2465 5 2469 0 q 2460 17 2460 10 q 2465 28 2460 24 q 2476 33 2469 33 q 2489 28 2483 33 q 2494 17 2494 24 q 2476 0 2494 0 m 2572 207 l 2572 0 l 2551 0 l 2551 206 l 2525 206 l 2525 218 l 2551 218 l 2551 254 q 2567 300 2551 282 q 2614 318 2582 318 l 2614 304 q 2585 292 2597 301 q 2572 257 2572 283 l 2572 218 l 2614 218 l 2614 207 l 2572 207 m 2717 204 q 2686 206 2701 207 q 2663 199 2671 206 l 2663 0 l 2640 0 l 2640 208 q 2671 219 2656 215 q 2722 222 2686 222 l 2717 204 m 717 99 q 667 110 693 106 q 614 113 643 113 q 553 107 585 114 q 469 83 501 96 q 410 63 438 71 q 354 55 383 56 q 278 67 325 54 q 228 86 254 72 q 174 117 201 100 q 120 155 147 135 q 68 196 93 175 q -49 301 10 243 q 39 272 -4 286 q 114 251 75 261 q 181 239 153 240 q 250 243 208 238 q 340 255 292 249 q 435 265 388 261 q 524 264 483 268 q 596 231 561 257 q 658 175 631 204 q 717 99 690 140 m 636 236 q 617 254 628 246 q 594 269 607 261 q 565 282 582 276 q 519 293 538 290 q 485 299 500 296 q 456 310 469 303 q 426 336 443 318 q 397 387 410 354 q 375 451 383 419 q 358 531 365 489 q 388 494 372 511 q 415 464 400 479 q 440 442 429 449 q 474 425 453 433 q 519 407 494 417 q 566 386 543 397 q 606 363 589 375 q 627 328 621 349 q 636 286 633 307 q 636 236 639 261 m 706 76 q 674 57 689 67 q 644 36 660 47 q 615 10 628 25 q 583 -31 594 -14 q 562 -60 572 -47 q 537 -84 551 -74 q 493 -103 522 -94 q 417 -112 463 -112 q 329 -108 372 -112 q 224 -94 279 -103 q 281 -81 254 -87 q 327 -65 304 -74 q 365 -49 350 -57 q 394 -26 379 -40 q 425 5 408 -11 q 460 36 442 21 q 501 63 478 51 q 569 81 533 76 q 636 83 606 85 q 706 76 672 82 z "},"":{"ha":2767,"x_min":-49,"x_max":2722,"o":"m 882 226 q 829 231 856 240 l 829 0 l 726 0 l 726 276 q 794 295 753 289 q 900 299 836 301 l 882 226 m 999 113 q 1060 64 1007 64 q 1106 69 1086 64 q 1138 81 1126 74 l 1161 17 q 1115 1 1142 7 q 1047 -4 1088 -4 q 938 38 974 -4 q 901 147 901 81 q 936 257 901 214 q 1040 300 971 300 q 1142 256 1110 300 q 1169 135 1174 211 l 999 113 m 1035 239 q 1000 219 1011 239 q 992 161 989 199 l 1075 174 q 1035 239 1075 239 m 1310 -4 q 1238 22 1261 -4 q 1214 86 1214 47 l 1214 226 l 1183 226 l 1183 293 l 1214 293 l 1214 354 l 1317 379 l 1317 293 l 1360 293 l 1360 226 l 1317 226 l 1317 94 q 1339 64 1317 64 q 1360 69 1349 64 l 1360 4 q 1340 -1 1353 1 q 1310 -4 1328 -4 m 1438 332 q 1399 345 1414 332 q 1383 378 1383 358 q 1399 411 1383 397 q 1438 425 1414 425 q 1475 411 1460 425 q 1490 378 1490 397 q 1475 345 1490 358 q 1438 332 1460 332 m 1385 0 l 1385 293 l 1488 293 l 1488 0 l 1385 0 m 1640 -4 q 1551 35 1588 -4 q 1515 149 1515 74 q 1553 262 1515 224 q 1639 300 1590 300 q 1685 294 1667 300 q 1715 278 1704 288 l 1694 221 q 1664 231 1682 231 q 1619 149 1619 231 q 1664 68 1619 68 q 1694 79 1685 68 l 1717 17 q 1688 1 1706 7 q 1640 -4 1671 -4 m 1867 -4 q 1768 19 1801 -4 q 1735 100 1735 42 l 1735 293 l 1838 293 l 1838 92 q 1845 72 1838 81 q 1869 64 1853 64 q 1896 69 1886 64 l 1896 293 l 1999 293 l 1999 18 q 1944 1 1976 7 q 1867 -4 1911 -4 m 2036 0 l 2036 428 l 2139 428 l 2139 0 l 2036 0 m 2300 -4 q 2163 90 2163 -4 q 2176 137 2163 118 q 2212 167 2189 156 q 2264 185 2235 179 q 2326 194 2293 192 l 2326 207 q 2315 230 2326 224 q 2282 236 2303 236 q 2238 231 2260 236 q 2201 218 2217 225 l 2181 276 q 2228 292 2197 283 q 2301 300 2258 300 q 2389 274 2356 300 q 2422 186 2422 249 l 2422 17 q 2372 1 2403 7 q 2300 -4 2342 -4 m 2326 149 q 2277 135 2296 146 q 2258 94 2258 125 q 2304 51 2258 51 q 2326 56 2318 51 l 2326 149 m 2476 0 q 2465 5 2469 0 q 2460 17 2460 10 q 2465 28 2460 24 q 2476 33 2469 33 q 2489 28 2483 33 q 2494 17 2494 24 q 2476 0 2494 0 m 2572 207 l 2572 0 l 2551 0 l 2551 206 l 2525 206 l 2525 218 l 2551 218 l 2551 254 q 2567 300 2551 282 q 2614 318 2582 318 l 2614 304 q 2585 292 2597 301 q 2572 257 2572 283 l 2572 218 l 2614 218 l 2614 207 l 2572 207 m 2717 204 q 2686 206 2701 207 q 2663 199 2671 206 l 2663 0 l 2640 0 l 2640 208 q 2671 219 2656 215 q 2722 222 2686 222 l 2717 204 m 717 99 q 667 110 693 106 q 614 113 643 113 q 553 107 585 114 q 469 83 501 96 q 410 63 438 71 q 354 55 383 56 q 278 67 325 54 q 228 86 254 72 q 174 117 201 100 q 120 155 147 135 q 68 196 93 175 q -49 301 10 243 q 39 272 -4 286 q 114 251 75 261 q 181 239 153 240 q 250 243 208 238 q 340 255 292 249 q 435 265 388 261 q 524 264 483 268 q 596 231 561 257 q 658 175 631 204 q 717 99 690 140 m 636 236 q 617 254 628 246 q 594 269 607 261 q 565 282 582 276 q 519 293 538 290 q 485 299 500 296 q 456 310 469 303 q 426 336 443 318 q 397 387 410 354 q 375 451 383 419 q 358 531 365 489 q 388 494 372 511 q 415 464 400 479 q 440 442 429 449 q 474 425 453 433 q 519 407 494 417 q 566 386 543 397 q 606 363 589 375 q 627 328 621 349 q 636 286 633 307 q 636 236 639 261 m 706 76 q 674 57 689 67 q 644 36 660 47 q 615 10 628 25 q 583 -31 594 -14 q 562 -60 572 -47 q 537 -84 551 -74 q 493 -103 522 -94 q 417 -112 463 -112 q 329 -108 372 -112 q 224 -94 279 -103 q 281 -81 254 -87 q 327 -65 304 -74 q 365 -49 350 -57 q 394 -26 379 -40 q 425 5 408 -11 q 460 36 442 21 q 501 63 478 51 q 569 81 533 76 q 636 83 606 85 q 706 76 672 82 z "},"":{"ha":2767,"x_min":-49,"x_max":2722,"o":"m 882 226 q 829 231 856 240 l 829 0 l 726 0 l 726 276 q 794 295 753 289 q 900 299 836 301 l 882 226 m 999 113 q 1060 64 1007 64 q 1106 69 1086 64 q 1138 81 1126 74 l 1161 17 q 1115 1 1142 7 q 1047 -4 1088 -4 q 938 38 974 -4 q 901 147 901 81 q 936 257 901 214 q 1040 300 971 300 q 1142 256 1110 300 q 1169 135 1174 211 l 999 113 m 1035 239 q 1000 219 1011 239 q 992 161 989 199 l 1075 174 q 1035 239 1075 239 m 1310 -4 q 1238 22 1261 -4 q 1214 86 1214 47 l 1214 226 l 1183 226 l 1183 293 l 1214 293 l 1214 354 l 1317 379 l 1317 293 l 1360 293 l 1360 226 l 1317 226 l 1317 94 q 1339 64 1317 64 q 1360 69 1349 64 l 1360 4 q 1340 -1 1353 1 q 1310 -4 1328 -4 m 1438 332 q 1399 345 1414 332 q 1383 378 1383 358 q 1399 411 1383 397 q 1438 425 1414 425 q 1475 411 1460 425 q 1490 378 1490 397 q 1475 345 1490 358 q 1438 332 1460 332 m 1385 0 l 1385 293 l 1488 293 l 1488 0 l 1385 0 m 1640 -4 q 1551 35 1588 -4 q 1515 149 1515 74 q 1553 262 1515 224 q 1639 300 1590 300 q 1685 294 1667 300 q 1715 278 1704 288 l 1694 221 q 1664 231 1682 231 q 1619 149 1619 231 q 1664 68 1619 68 q 1694 79 1685 68 l 1717 17 q 1688 1 1706 7 q 1640 -4 1671 -4 m 1867 -4 q 1768 19 1801 -4 q 1735 100 1735 42 l 1735 293 l 1838 293 l 1838 92 q 1845 72 1838 81 q 1869 64 1853 64 q 1896 69 1886 64 l 1896 293 l 1999 293 l 1999 18 q 1944 1 1976 7 q 1867 -4 1911 -4 m 2036 0 l 2036 428 l 2139 428 l 2139 0 l 2036 0 m 2300 -4 q 2163 90 2163 -4 q 2176 137 2163 118 q 2212 167 2189 156 q 2264 185 2235 179 q 2326 194 2293 192 l 2326 207 q 2315 230 2326 224 q 2282 236 2303 236 q 2238 231 2260 236 q 2201 218 2217 225 l 2181 276 q 2228 292 2197 283 q 2301 300 2258 300 q 2389 274 2356 300 q 2422 186 2422 249 l 2422 17 q 2372 1 2403 7 q 2300 -4 2342 -4 m 2326 149 q 2277 135 2296 146 q 2258 94 2258 125 q 2304 51 2258 51 q 2326 56 2318 51 l 2326 149 m 2476 0 q 2465 5 2469 0 q 2460 17 2460 10 q 2465 28 2460 24 q 2476 33 2469 33 q 2489 28 2483 33 q 2494 17 2494 24 q 2476 0 2494 0 m 2572 207 l 2572 0 l 2551 0 l 2551 206 l 2525 206 l 2525 218 l 2551 218 l 2551 254 q 2567 300 2551 282 q 2614 318 2582 318 l 2614 304 q 2585 292 2597 301 q 2572 257 2572 283 l 2572 218 l 2614 218 l 2614 207 l 2572 207 m 2717 204 q 2686 206 2701 207 q 2663 199 2671 206 l 2663 0 l 2640 0 l 2640 208 q 2671 219 2656 215 q 2722 222 2686 222 l 2717 204 m 717 99 q 667 110 693 106 q 614 113 643 113 q 553 107 585 114 q 469 83 501 96 q 410 63 438 71 q 354 55 383 56 q 278 67 325 54 q 228 86 254 72 q 174 117 201 100 q 120 155 147 135 q 68 196 93 175 q -49 301 10 243 q 39 272 -4 286 q 114 251 75 261 q 181 239 153 240 q 250 243 208 238 q 340 255 292 249 q 435 265 388 261 q 524 264 483 268 q 596 231 561 257 q 658 175 631 204 q 717 99 690 140 m 636 236 q 617 254 628 246 q 594 269 607 261 q 565 282 582 276 q 519 293 538 290 q 485 299 500 296 q 456 310 469 303 q 426 336 443 318 q 397 387 410 354 q 375 451 383 419 q 358 531 365 489 q 388 494 372 511 q 415 464 400 479 q 440 442 429 449 q 474 425 453 433 q 519 407 494 417 q 566 386 543 397 q 606 363 589 375 q 627 328 621 349 q 636 286 633 307 q 636 236 639 261 m 706 76 q 674 57 689 67 q 644 36 660 47 q 615 10 628 25 q 583 -31 594 -14 q 562 -60 572 -47 q 537 -84 551 -74 q 493 -103 522 -94 q 417 -112 463 -112 q 329 -108 372 -112 q 224 -94 279 -103 q 281 -81 254 -87 q 327 -65 304 -74 q 365 -49 350 -57 q 394 -26 379 -40 q 425 5 408 -11 q 460 36 442 21 q 501 63 478 51 q 569 81 533 76 q 636 83 606 85 q 706 76 672 82 z "},"":{"ha":2767,"x_min":-49,"x_max":2722,"o":"m 882 226 q 829 231 856 240 l 829 0 l 726 0 l 726 276 q 794 295 753 289 q 900 299 836 301 l 882 226 m 999 113 q 1060 64 1007 64 q 1106 69 1086 64 q 1138 81 1126 74 l 1161 17 q 1115 1 1142 7 q 1047 -4 1088 -4 q 938 38 974 -4 q 901 147 901 81 q 936 257 901 214 q 1040 300 971 300 q 1142 256 1110 300 q 1169 135 1174 211 l 999 113 m 1035 239 q 1000 219 1011 239 q 992 161 989 199 l 1075 174 q 1035 239 1075 239 m 1310 -4 q 1238 22 1261 -4 q 1214 86 1214 47 l 1214 226 l 1183 226 l 1183 293 l 1214 293 l 1214 354 l 1317 379 l 1317 293 l 1360 293 l 1360 226 l 1317 226 l 1317 94 q 1339 64 1317 64 q 1360 69 1349 64 l 1360 4 q 1340 -1 1353 1 q 1310 -4 1328 -4 m 1438 332 q 1399 345 1414 332 q 1383 378 1383 358 q 1399 411 1383 397 q 1438 425 1414 425 q 1475 411 1460 425 q 1490 378 1490 397 q 1475 345 1490 358 q 1438 332 1460 332 m 1385 0 l 1385 293 l 1488 293 l 1488 0 l 1385 0 m 1640 -4 q 1551 35 1588 -4 q 1515 149 1515 74 q 1553 262 1515 224 q 1639 300 1590 300 q 1685 294 1667 300 q 1715 278 1704 288 l 1694 221 q 1664 231 1682 231 q 1619 149 1619 231 q 1664 68 1619 68 q 1694 79 1685 68 l 1717 17 q 1688 1 1706 7 q 1640 -4 1671 -4 m 1867 -4 q 1768 19 1801 -4 q 1735 100 1735 42 l 1735 293 l 1838 293 l 1838 92 q 1845 72 1838 81 q 1869 64 1853 64 q 1896 69 1886 64 l 1896 293 l 1999 293 l 1999 18 q 1944 1 1976 7 q 1867 -4 1911 -4 m 2036 0 l 2036 428 l 2139 428 l 2139 0 l 2036 0 m 2300 -4 q 2163 90 2163 -4 q 2176 137 2163 118 q 2212 167 2189 156 q 2264 185 2235 179 q 2326 194 2293 192 l 2326 207 q 2315 230 2326 224 q 2282 236 2303 236 q 2238 231 2260 236 q 2201 218 2217 225 l 2181 276 q 2228 292 2197 283 q 2301 300 2258 300 q 2389 274 2356 300 q 2422 186 2422 249 l 2422 17 q 2372 1 2403 7 q 2300 -4 2342 -4 m 2326 149 q 2277 135 2296 146 q 2258 94 2258 125 q 2304 51 2258 51 q 2326 56 2318 51 l 2326 149 m 2476 0 q 2465 5 2469 0 q 2460 17 2460 10 q 2465 28 2460 24 q 2476 33 2469 33 q 2489 28 2483 33 q 2494 17 2494 24 q 2476 0 2494 0 m 2572 207 l 2572 0 l 2551 0 l 2551 206 l 2525 206 l 2525 218 l 2551 218 l 2551 254 q 2567 300 2551 282 q 2614 318 2582 318 l 2614 304 q 2585 292 2597 301 q 2572 257 2572 283 l 2572 218 l 2614 218 l 2614 207 l 2572 207 m 2717 204 q 2686 206 2701 207 q 2663 199 2671 206 l 2663 0 l 2640 0 l 2640 208 q 2671 219 2656 215 q 2722 222 2686 222 l 2717 204 m 717 99 q 667 110 693 106 q 614 113 643 113 q 553 107 585 114 q 469 83 501 96 q 410 63 438 71 q 354 55 383 56 q 278 67 325 54 q 228 86 254 72 q 174 117 201 100 q 120 155 147 135 q 68 196 93 175 q -49 301 10 243 q 39 272 -4 286 q 114 251 75 261 q 181 239 153 240 q 250 243 208 238 q 340 255 292 249 q 435 265 388 261 q 524 264 483 268 q 596 231 561 257 q 658 175 631 204 q 717 99 690 140 m 636 236 q 617 254 628 246 q 594 269 607 261 q 565 282 582 276 q 519 293 538 290 q 485 299 500 296 q 456 310 469 303 q 426 336 443 318 q 397 387 410 354 q 375 451 383 419 q 358 531 365 489 q 388 494 372 511 q 415 464 400 479 q 440 442 429 449 q 474 425 453 433 q 519 407 494 417 q 566 386 543 397 q 606 363 589 375 q 627 328 621 349 q 636 286 633 307 q 636 236 639 261 m 706 76 q 674 57 689 67 q 644 36 660 47 q 615 10 628 25 q 583 -31 594 -14 q 562 -60 572 -47 q 537 -84 551 -74 q 493 -103 522 -94 q 417 -112 463 -112 q 329 -108 372 -112 q 224 -94 279 -103 q 281 -81 254 -87 q 327 -65 304 -74 q 365 -49 350 -57 q 394 -26 379 -40 q 425 5 408 -11 q 460 36 442 21 q 501 63 478 51 q 569 81 533 76 q 636 83 606 85 q 706 76 672 82 z "},"":{"ha":2767,"x_min":-49,"x_max":2722,"o":"m 882 226 q 829 231 856 240 l 829 0 l 726 0 l 726 276 q 794 295 753 289 q 900 299 836 301 l 882 226 m 999 113 q 1060 64 1007 64 q 1106 69 1086 64 q 1138 81 1126 74 l 1161 17 q 1115 1 1142 7 q 1047 -4 1088 -4 q 938 38 974 -4 q 901 147 901 81 q 936 257 901 214 q 1040 300 971 300 q 1142 256 1110 300 q 1169 135 1174 211 l 999 113 m 1035 239 q 1000 219 1011 239 q 992 161 989 199 l 1075 174 q 1035 239 1075 239 m 1310 -4 q 1238 22 1261 -4 q 1214 86 1214 47 l 1214 226 l 1183 226 l 1183 293 l 1214 293 l 1214 354 l 1317 379 l 1317 293 l 1360 293 l 1360 226 l 1317 226 l 1317 94 q 1339 64 1317 64 q 1360 69 1349 64 l 1360 4 q 1340 -1 1353 1 q 1310 -4 1328 -4 m 1438 332 q 1399 345 1414 332 q 1383 378 1383 358 q 1399 411 1383 397 q 1438 425 1414 425 q 1475 411 1460 425 q 1490 378 1490 397 q 1475 345 1490 358 q 1438 332 1460 332 m 1385 0 l 1385 293 l 1488 293 l 1488 0 l 1385 0 m 1640 -4 q 1551 35 1588 -4 q 1515 149 1515 74 q 1553 262 1515 224 q 1639 300 1590 300 q 1685 294 1667 300 q 1715 278 1704 288 l 1694 221 q 1664 231 1682 231 q 1619 149 1619 231 q 1664 68 1619 68 q 1694 79 1685 68 l 1717 17 q 1688 1 1706 7 q 1640 -4 1671 -4 m 1867 -4 q 1768 19 1801 -4 q 1735 100 1735 42 l 1735 293 l 1838 293 l 1838 92 q 1845 72 1838 81 q 1869 64 1853 64 q 1896 69 1886 64 l 1896 293 l 1999 293 l 1999 18 q 1944 1 1976 7 q 1867 -4 1911 -4 m 2036 0 l 2036 428 l 2139 428 l 2139 0 l 2036 0 m 2300 -4 q 2163 90 2163 -4 q 2176 137 2163 118 q 2212 167 2189 156 q 2264 185 2235 179 q 2326 194 2293 192 l 2326 207 q 2315 230 2326 224 q 2282 236 2303 236 q 2238 231 2260 236 q 2201 218 2217 225 l 2181 276 q 2228 292 2197 283 q 2301 300 2258 300 q 2389 274 2356 300 q 2422 186 2422 249 l 2422 17 q 2372 1 2403 7 q 2300 -4 2342 -4 m 2326 149 q 2277 135 2296 146 q 2258 94 2258 125 q 2304 51 2258 51 q 2326 56 2318 51 l 2326 149 m 2476 0 q 2465 5 2469 0 q 2460 17 2460 10 q 2465 28 2460 24 q 2476 33 2469 33 q 2489 28 2483 33 q 2494 17 2494 24 q 2476 0 2494 0 m 2572 207 l 2572 0 l 2551 0 l 2551 206 l 2525 206 l 2525 218 l 2551 218 l 2551 254 q 2567 300 2551 282 q 2614 318 2582 318 l 2614 304 q 2585 292 2597 301 q 2572 257 2572 283 l 2572 218 l 2614 218 l 2614 207 l 2572 207 m 2717 204 q 2686 206 2701 207 q 2663 199 2671 206 l 2663 0 l 2640 0 l 2640 208 q 2671 219 2656 215 q 2722 222 2686 222 l 2717 204 m 717 99 q 667 110 693 106 q 614 113 643 113 q 553 107 585 114 q 469 83 501 96 q 410 63 438 71 q 354 55 383 56 q 278 67 325 54 q 228 86 254 72 q 174 117 201 100 q 120 155 147 135 q 68 196 93 175 q -49 301 10 243 q 39 272 -4 286 q 114 251 75 261 q 181 239 153 240 q 250 243 208 238 q 340 255 292 249 q 435 265 388 261 q 524 264 483 268 q 596 231 561 257 q 658 175 631 204 q 717 99 690 140 m 636 236 q 617 254 628 246 q 594 269 607 261 q 565 282 582 276 q 519 293 538 290 q 485 299 500 296 q 456 310 469 303 q 426 336 443 318 q 397 387 410 354 q 375 451 383 419 q 358 531 365 489 q 388 494 372 511 q 415 464 400 479 q 440 442 429 449 q 474 425 453 433 q 519 407 494 417 q 566 386 543 397 q 606 363 589 375 q 627 328 621 349 q 636 286 633 307 q 636 236 639 261 m 706 76 q 674 57 689 67 q 644 36 660 47 q 615 10 628 25 q 583 -31 594 -14 q 562 -60 572 -47 q 537 -84 551 -74 q 493 -103 522 -94 q 417 -112 463 -112 q 329 -108 372 -112 q 224 -94 279 -103 q 281 -81 254 -87 q 327 -65 304 -74 q 365 -49 350 -57 q 394 -26 379 -40 q 425 5 408 -11 q 460 36 442 21 q 501 63 478 51 q 569 81 533 76 q 636 83 606 85 q 706 76 672 82 z "},"":{"ha":2767,"x_min":-49,"x_max":2722,"o":"m 882 226 q 829 231 856 240 l 829 0 l 726 0 l 726 276 q 794 295 753 289 q 900 299 836 301 l 882 226 m 999 113 q 1060 64 1007 64 q 1106 69 1086 64 q 1138 81 1126 74 l 1161 17 q 1115 1 1142 7 q 1047 -4 1088 -4 q 938 38 974 -4 q 901 147 901 81 q 936 257 901 214 q 1040 300 971 300 q 1142 256 1110 300 q 1169 135 1174 211 l 999 113 m 1035 239 q 1000 219 1011 239 q 992 161 989 199 l 1075 174 q 1035 239 1075 239 m 1310 -4 q 1238 22 1261 -4 q 1214 86 1214 47 l 1214 226 l 1183 226 l 1183 293 l 1214 293 l 1214 354 l 1317 379 l 1317 293 l 1360 293 l 1360 226 l 1317 226 l 1317 94 q 1339 64 1317 64 q 1360 69 1349 64 l 1360 4 q 1340 -1 1353 1 q 1310 -4 1328 -4 m 1438 332 q 1399 345 1414 332 q 1383 378 1383 358 q 1399 411 1383 397 q 1438 425 1414 425 q 1475 411 1460 425 q 1490 378 1490 397 q 1475 345 1490 358 q 1438 332 1460 332 m 1385 0 l 1385 293 l 1488 293 l 1488 0 l 1385 0 m 1640 -4 q 1551 35 1588 -4 q 1515 149 1515 74 q 1553 262 1515 224 q 1639 300 1590 300 q 1685 294 1667 300 q 1715 278 1704 288 l 1694 221 q 1664 231 1682 231 q 1619 149 1619 231 q 1664 68 1619 68 q 1694 79 1685 68 l 1717 17 q 1688 1 1706 7 q 1640 -4 1671 -4 m 1867 -4 q 1768 19 1801 -4 q 1735 100 1735 42 l 1735 293 l 1838 293 l 1838 92 q 1845 72 1838 81 q 1869 64 1853 64 q 1896 69 1886 64 l 1896 293 l 1999 293 l 1999 18 q 1944 1 1976 7 q 1867 -4 1911 -4 m 2036 0 l 2036 428 l 2139 428 l 2139 0 l 2036 0 m 2300 -4 q 2163 90 2163 -4 q 2176 137 2163 118 q 2212 167 2189 156 q 2264 185 2235 179 q 2326 194 2293 192 l 2326 207 q 2315 230 2326 224 q 2282 236 2303 236 q 2238 231 2260 236 q 2201 218 2217 225 l 2181 276 q 2228 292 2197 283 q 2301 300 2258 300 q 2389 274 2356 300 q 2422 186 2422 249 l 2422 17 q 2372 1 2403 7 q 2300 -4 2342 -4 m 2326 149 q 2277 135 2296 146 q 2258 94 2258 125 q 2304 51 2258 51 q 2326 56 2318 51 l 2326 149 m 2476 0 q 2465 5 2469 0 q 2460 17 2460 10 q 2465 28 2460 24 q 2476 33 2469 33 q 2489 28 2483 33 q 2494 17 2494 24 q 2476 0 2494 0 m 2572 207 l 2572 0 l 2551 0 l 2551 206 l 2525 206 l 2525 218 l 2551 218 l 2551 254 q 2567 300 2551 282 q 2614 318 2582 318 l 2614 304 q 2585 292 2597 301 q 2572 257 2572 283 l 2572 218 l 2614 218 l 2614 207 l 2572 207 m 2717 204 q 2686 206 2701 207 q 2663 199 2671 206 l 2663 0 l 2640 0 l 2640 208 q 2671 219 2656 215 q 2722 222 2686 222 l 2717 204 m 717 99 q 667 110 693 106 q 614 113 643 113 q 553 107 585 114 q 469 83 501 96 q 410 63 438 71 q 354 55 383 56 q 278 67 325 54 q 228 86 254 72 q 174 117 201 100 q 120 155 147 135 q 68 196 93 175 q -49 301 10 243 q 39 272 -4 286 q 114 251 75 261 q 181 239 153 240 q 250 243 208 238 q 340 255 292 249 q 435 265 388 261 q 524 264 483 268 q 596 231 561 257 q 658 175 631 204 q 717 99 690 140 m 636 236 q 617 254 628 246 q 594 269 607 261 q 565 282 582 276 q 519 293 538 290 q 485 299 500 296 q 456 310 469 303 q 426 336 443 318 q 397 387 410 354 q 375 451 383 419 q 358 531 365 489 q 388 494 372 511 q 415 464 400 479 q 440 442 429 449 q 474 425 453 433 q 519 407 494 417 q 566 386 543 397 q 606 363 589 375 q 627 328 621 349 q 636 286 633 307 q 636 236 639 261 m 706 76 q 674 57 689 67 q 644 36 660 47 q 615 10 628 25 q 583 -31 594 -14 q 562 -60 572 -47 q 537 -84 551 -74 q 493 -103 522 -94 q 417 -112 463 -112 q 329 -108 372 -112 q 224 -94 279 -103 q 281 -81 254 -87 q 327 -65 304 -74 q 365 -49 350 -57 q 394 -26 379 -40 q 425 5 408 -11 q 460 36 442 21 q 501 63 478 51 q 569 81 533 76 q 636 83 606 85 q 706 76 672 82 z "},"":{"ha":2767,"x_min":-49,"x_max":2722,"o":"m 882 226 q 829 231 856 240 l 829 0 l 726 0 l 726 276 q 794 295 753 289 q 900 299 836 301 l 882 226 m 999 113 q 1060 64 1007 64 q 1106 69 1086 64 q 1138 81 1126 74 l 1161 17 q 1115 1 1142 7 q 1047 -4 1088 -4 q 938 38 974 -4 q 901 147 901 81 q 936 257 901 214 q 1040 300 971 300 q 1142 256 1110 300 q 1169 135 1174 211 l 999 113 m 1035 239 q 1000 219 1011 239 q 992 161 989 199 l 1075 174 q 1035 239 1075 239 m 1310 -4 q 1238 22 1261 -4 q 1214 86 1214 47 l 1214 226 l 1183 226 l 1183 293 l 1214 293 l 1214 354 l 1317 379 l 1317 293 l 1360 293 l 1360 226 l 1317 226 l 1317 94 q 1339 64 1317 64 q 1360 69 1349 64 l 1360 4 q 1340 -1 1353 1 q 1310 -4 1328 -4 m 1438 332 q 1399 345 1414 332 q 1383 378 1383 358 q 1399 411 1383 397 q 1438 425 1414 425 q 1475 411 1460 425 q 1490 378 1490 397 q 1475 345 1490 358 q 1438 332 1460 332 m 1385 0 l 1385 293 l 1488 293 l 1488 0 l 1385 0 m 1640 -4 q 1551 35 1588 -4 q 1515 149 1515 74 q 1553 262 1515 224 q 1639 300 1590 300 q 1685 294 1667 300 q 1715 278 1704 288 l 1694 221 q 1664 231 1682 231 q 1619 149 1619 231 q 1664 68 1619 68 q 1694 79 1685 68 l 1717 17 q 1688 1 1706 7 q 1640 -4 1671 -4 m 1867 -4 q 1768 19 1801 -4 q 1735 100 1735 42 l 1735 293 l 1838 293 l 1838 92 q 1845 72 1838 81 q 1869 64 1853 64 q 1896 69 1886 64 l 1896 293 l 1999 293 l 1999 18 q 1944 1 1976 7 q 1867 -4 1911 -4 m 2036 0 l 2036 428 l 2139 428 l 2139 0 l 2036 0 m 2300 -4 q 2163 90 2163 -4 q 2176 137 2163 118 q 2212 167 2189 156 q 2264 185 2235 179 q 2326 194 2293 192 l 2326 207 q 2315 230 2326 224 q 2282 236 2303 236 q 2238 231 2260 236 q 2201 218 2217 225 l 2181 276 q 2228 292 2197 283 q 2301 300 2258 300 q 2389 274 2356 300 q 2422 186 2422 249 l 2422 17 q 2372 1 2403 7 q 2300 -4 2342 -4 m 2326 149 q 2277 135 2296 146 q 2258 94 2258 125 q 2304 51 2258 51 q 2326 56 2318 51 l 2326 149 m 2476 0 q 2465 5 2469 0 q 2460 17 2460 10 q 2465 28 2460 24 q 2476 33 2469 33 q 2489 28 2483 33 q 2494 17 2494 24 q 2476 0 2494 0 m 2572 207 l 2572 0 l 2551 0 l 2551 206 l 2525 206 l 2525 218 l 2551 218 l 2551 254 q 2567 300 2551 282 q 2614 318 2582 318 l 2614 304 q 2585 292 2597 301 q 2572 257 2572 283 l 2572 218 l 2614 218 l 2614 207 l 2572 207 m 2717 204 q 2686 206 2701 207 q 2663 199 2671 206 l 2663 0 l 2640 0 l 2640 208 q 2671 219 2656 215 q 2722 222 2686 222 l 2717 204 m 717 99 q 667 110 693 106 q 614 113 643 113 q 553 107 585 114 q 469 83 501 96 q 410 63 438 71 q 354 55 383 56 q 278 67 325 54 q 228 86 254 72 q 174 117 201 100 q 120 155 147 135 q 68 196 93 175 q -49 301 10 243 q 39 272 -4 286 q 114 251 75 261 q 181 239 153 240 q 250 243 208 238 q 340 255 292 249 q 435 265 388 261 q 524 264 483 268 q 596 231 561 257 q 658 175 631 204 q 717 99 690 140 m 636 236 q 617 254 628 246 q 594 269 607 261 q 565 282 582 276 q 519 293 538 290 q 485 299 500 296 q 456 310 469 303 q 426 336 443 318 q 397 387 410 354 q 375 451 383 419 q 358 531 365 489 q 388 494 372 511 q 415 464 400 479 q 440 442 429 449 q 474 425 453 433 q 519 407 494 417 q 566 386 543 397 q 606 363 589 375 q 627 328 621 349 q 636 286 633 307 q 636 236 639 261 m 706 76 q 674 57 689 67 q 644 36 660 47 q 615 10 628 25 q 583 -31 594 -14 q 562 -60 572 -47 q 537 -84 551 -74 q 493 -103 522 -94 q 417 -112 463 -112 q 329 -108 372 -112 q 224 -94 279 -103 q 281 -81 254 -87 q 327 -65 304 -74 q 365 -49 350 -57 q 394 -26 379 -40 q 425 5 408 -11 q 460 36 442 21 q 501 63 478 51 q 569 81 533 76 q 636 83 606 85 q 706 76 672 82 z "},"{":{"ha":2767,"x_min":-49,"x_max":2722,"o":"m 882 226 q 829 231 856 240 l 829 0 l 726 0 l 726 276 q 794 295 753 289 q 900 299 836 301 l 882 226 m 999 113 q 1060 64 1007 64 q 1106 69 1086 64 q 1138 81 1126 74 l 1161 17 q 1115 1 1142 7 q 1047 -4 1088 -4 q 938 38 974 -4 q 901 147 901 81 q 936 257 901 214 q 1040 300 971 300 q 1142 256 1110 300 q 1169 135 1174 211 l 999 113 m 1035 239 q 1000 219 1011 239 q 992 161 989 199 l 1075 174 q 1035 239 1075 239 m 1310 -4 q 1238 22 1261 -4 q 1214 86 1214 47 l 1214 226 l 1183 226 l 1183 293 l 1214 293 l 1214 354 l 1317 379 l 1317 293 l 1360 293 l 1360 226 l 1317 226 l 1317 94 q 1339 64 1317 64 q 1360 69 1349 64 l 1360 4 q 1340 -1 1353 1 q 1310 -4 1328 -4 m 1438 332 q 1399 345 1414 332 q 1383 378 1383 358 q 1399 411 1383 397 q 1438 425 1414 425 q 1475 411 1460 425 q 1490 378 1490 397 q 1475 345 1490 358 q 1438 332 1460 332 m 1385 0 l 1385 293 l 1488 293 l 1488 0 l 1385 0 m 1640 -4 q 1551 35 1588 -4 q 1515 149 1515 74 q 1553 262 1515 224 q 1639 300 1590 300 q 1685 294 1667 300 q 1715 278 1704 288 l 1694 221 q 1664 231 1682 231 q 1619 149 1619 231 q 1664 68 1619 68 q 1694 79 1685 68 l 1717 17 q 1688 1 1706 7 q 1640 -4 1671 -4 m 1867 -4 q 1768 19 1801 -4 q 1735 100 1735 42 l 1735 293 l 1838 293 l 1838 92 q 1845 72 1838 81 q 1869 64 1853 64 q 1896 69 1886 64 l 1896 293 l 1999 293 l 1999 18 q 1944 1 1976 7 q 1867 -4 1911 -4 m 2036 0 l 2036 428 l 2139 428 l 2139 0 l 2036 0 m 2300 -4 q 2163 90 2163 -4 q 2176 137 2163 118 q 2212 167 2189 156 q 2264 185 2235 179 q 2326 194 2293 192 l 2326 207 q 2315 230 2326 224 q 2282 236 2303 236 q 2238 231 2260 236 q 2201 218 2217 225 l 2181 276 q 2228 292 2197 283 q 2301 300 2258 300 q 2389 274 2356 300 q 2422 186 2422 249 l 2422 17 q 2372 1 2403 7 q 2300 -4 2342 -4 m 2326 149 q 2277 135 2296 146 q 2258 94 2258 125 q 2304 51 2258 51 q 2326 56 2318 51 l 2326 149 m 2476 0 q 2465 5 2469 0 q 2460 17 2460 10 q 2465 28 2460 24 q 2476 33 2469 33 q 2489 28 2483 33 q 2494 17 2494 24 q 2476 0 2494 0 m 2572 207 l 2572 0 l 2551 0 l 2551 206 l 2525 206 l 2525 218 l 2551 218 l 2551 254 q 2567 300 2551 282 q 2614 318 2582 318 l 2614 304 q 2585 292 2597 301 q 2572 257 2572 283 l 2572 218 l 2614 218 l 2614 207 l 2572 207 m 2717 204 q 2686 206 2701 207 q 2663 199 2671 206 l 2663 0 l 2640 0 l 2640 208 q 2671 219 2656 215 q 2722 222 2686 222 l 2717 204 m 717 99 q 667 110 693 106 q 614 113 643 113 q 553 107 585 114 q 469 83 501 96 q 410 63 438 71 q 354 55 383 56 q 278 67 325 54 q 228 86 254 72 q 174 117 201 100 q 120 155 147 135 q 68 196 93 175 q -49 301 10 243 q 39 272 -4 286 q 114 251 75 261 q 181 239 153 240 q 250 243 208 238 q 340 255 292 249 q 435 265 388 261 q 524 264 483 268 q 596 231 561 257 q 658 175 631 204 q 717 99 690 140 m 636 236 q 617 254 628 246 q 594 269 607 261 q 565 282 582 276 q 519 293 538 290 q 485 299 500 296 q 456 310 469 303 q 426 336 443 318 q 397 387 410 354 q 375 451 383 419 q 358 531 365 489 q 388 494 372 511 q 415 464 400 479 q 440 442 429 449 q 474 425 453 433 q 519 407 494 417 q 566 386 543 397 q 606 363 589 375 q 627 328 621 349 q 636 286 633 307 q 636 236 639 261 m 706 76 q 674 57 689 67 q 644 36 660 47 q 615 10 628 25 q 583 -31 594 -14 q 562 -60 572 -47 q 537 -84 551 -74 q 493 -103 522 -94 q 417 -112 463 -112 q 329 -108 372 -112 q 224 -94 279 -103 q 281 -81 254 -87 q 327 -65 304 -74 q 365 -49 350 -57 q 394 -26 379 -40 q 425 5 408 -11 q 460 36 442 21 q 501 63 478 51 q 569 81 533 76 q 636 83 606 85 q 706 76 672 82 z "},"}":{"ha":2767,"x_min":-49,"x_max":2722,"o":"m 882 226 q 829 231 856 240 l 829 0 l 726 0 l 726 276 q 794 295 753 289 q 900 299 836 301 l 882 226 m 999 113 q 1060 64 1007 64 q 1106 69 1086 64 q 1138 81 1126 74 l 1161 17 q 1115 1 1142 7 q 1047 -4 1088 -4 q 938 38 974 -4 q 901 147 901 81 q 936 257 901 214 q 1040 300 971 300 q 1142 256 1110 300 q 1169 135 1174 211 l 999 113 m 1035 239 q 1000 219 1011 239 q 992 161 989 199 l 1075 174 q 1035 239 1075 239 m 1310 -4 q 1238 22 1261 -4 q 1214 86 1214 47 l 1214 226 l 1183 226 l 1183 293 l 1214 293 l 1214 354 l 1317 379 l 1317 293 l 1360 293 l 1360 226 l 1317 226 l 1317 94 q 1339 64 1317 64 q 1360 69 1349 64 l 1360 4 q 1340 -1 1353 1 q 1310 -4 1328 -4 m 1438 332 q 1399 345 1414 332 q 1383 378 1383 358 q 1399 411 1383 397 q 1438 425 1414 425 q 1475 411 1460 425 q 1490 378 1490 397 q 1475 345 1490 358 q 1438 332 1460 332 m 1385 0 l 1385 293 l 1488 293 l 1488 0 l 1385 0 m 1640 -4 q 1551 35 1588 -4 q 1515 149 1515 74 q 1553 262 1515 224 q 1639 300 1590 300 q 1685 294 1667 300 q 1715 278 1704 288 l 1694 221 q 1664 231 1682 231 q 1619 149 1619 231 q 1664 68 1619 68 q 1694 79 1685 68 l 1717 17 q 1688 1 1706 7 q 1640 -4 1671 -4 m 1867 -4 q 1768 19 1801 -4 q 1735 100 1735 42 l 1735 293 l 1838 293 l 1838 92 q 1845 72 1838 81 q 1869 64 1853 64 q 1896 69 1886 64 l 1896 293 l 1999 293 l 1999 18 q 1944 1 1976 7 q 1867 -4 1911 -4 m 2036 0 l 2036 428 l 2139 428 l 2139 0 l 2036 0 m 2300 -4 q 2163 90 2163 -4 q 2176 137 2163 118 q 2212 167 2189 156 q 2264 185 2235 179 q 2326 194 2293 192 l 2326 207 q 2315 230 2326 224 q 2282 236 2303 236 q 2238 231 2260 236 q 2201 218 2217 225 l 2181 276 q 2228 292 2197 283 q 2301 300 2258 300 q 2389 274 2356 300 q 2422 186 2422 249 l 2422 17 q 2372 1 2403 7 q 2300 -4 2342 -4 m 2326 149 q 2277 135 2296 146 q 2258 94 2258 125 q 2304 51 2258 51 q 2326 56 2318 51 l 2326 149 m 2476 0 q 2465 5 2469 0 q 2460 17 2460 10 q 2465 28 2460 24 q 2476 33 2469 33 q 2489 28 2483 33 q 2494 17 2494 24 q 2476 0 2494 0 m 2572 207 l 2572 0 l 2551 0 l 2551 206 l 2525 206 l 2525 218 l 2551 218 l 2551 254 q 2567 300 2551 282 q 2614 318 2582 318 l 2614 304 q 2585 292 2597 301 q 2572 257 2572 283 l 2572 218 l 2614 218 l 2614 207 l 2572 207 m 2717 204 q 2686 206 2701 207 q 2663 199 2671 206 l 2663 0 l 2640 0 l 2640 208 q 2671 219 2656 215 q 2722 222 2686 222 l 2717 204 m 717 99 q 667 110 693 106 q 614 113 643 113 q 553 107 585 114 q 469 83 501 96 q 410 63 438 71 q 354 55 383 56 q 278 67 325 54 q 228 86 254 72 q 174 117 201 100 q 120 155 147 135 q 68 196 93 175 q -49 301 10 243 q 39 272 -4 286 q 114 251 75 261 q 181 239 153 240 q 250 243 208 238 q 340 255 292 249 q 435 265 388 261 q 524 264 483 268 q 596 231 561 257 q 658 175 631 204 q 717 99 690 140 m 636 236 q 617 254 628 246 q 594 269 607 261 q 565 282 582 276 q 519 293 538 290 q 485 299 500 296 q 456 310 469 303 q 426 336 443 318 q 397 387 410 354 q 375 451 383 419 q 358 531 365 489 q 388 494 372 511 q 415 464 400 479 q 440 442 429 449 q 474 425 453 433 q 519 407 494 417 q 566 386 543 397 q 606 363 589 375 q 627 328 621 349 q 636 286 633 307 q 636 236 639 261 m 706 76 q 674 57 689 67 q 644 36 660 47 q 615 10 628 25 q 583 -31 594 -14 q 562 -60 572 -47 q 537 -84 551 -74 q 493 -103 522 -94 q 417 -112 463 -112 q 329 -108 372 -112 q 224 -94 279 -103 q 281 -81 254 -87 q 327 -65 304 -74 q 365 -49 350 -57 q 394 -26 379 -40 q 425 5 408 -11 q 460 36 442 21 q 501 63 478 51 q 569 81 533 76 q 636 83 606 85 q 706 76 672 82 z "},"|":{"ha":2767,"x_min":-49,"x_max":2722,"o":"m 882 226 q 829 231 856 240 l 829 0 l 726 0 l 726 276 q 794 295 753 289 q 900 299 836 301 l 882 226 m 999 113 q 1060 64 1007 64 q 1106 69 1086 64 q 1138 81 1126 74 l 1161 17 q 1115 1 1142 7 q 1047 -4 1088 -4 q 938 38 974 -4 q 901 147 901 81 q 936 257 901 214 q 1040 300 971 300 q 1142 256 1110 300 q 1169 135 1174 211 l 999 113 m 1035 239 q 1000 219 1011 239 q 992 161 989 199 l 1075 174 q 1035 239 1075 239 m 1310 -4 q 1238 22 1261 -4 q 1214 86 1214 47 l 1214 226 l 1183 226 l 1183 293 l 1214 293 l 1214 354 l 1317 379 l 1317 293 l 1360 293 l 1360 226 l 1317 226 l 1317 94 q 1339 64 1317 64 q 1360 69 1349 64 l 1360 4 q 1340 -1 1353 1 q 1310 -4 1328 -4 m 1438 332 q 1399 345 1414 332 q 1383 378 1383 358 q 1399 411 1383 397 q 1438 425 1414 425 q 1475 411 1460 425 q 1490 378 1490 397 q 1475 345 1490 358 q 1438 332 1460 332 m 1385 0 l 1385 293 l 1488 293 l 1488 0 l 1385 0 m 1640 -4 q 1551 35 1588 -4 q 1515 149 1515 74 q 1553 262 1515 224 q 1639 300 1590 300 q 1685 294 1667 300 q 1715 278 1704 288 l 1694 221 q 1664 231 1682 231 q 1619 149 1619 231 q 1664 68 1619 68 q 1694 79 1685 68 l 1717 17 q 1688 1 1706 7 q 1640 -4 1671 -4 m 1867 -4 q 1768 19 1801 -4 q 1735 100 1735 42 l 1735 293 l 1838 293 l 1838 92 q 1845 72 1838 81 q 1869 64 1853 64 q 1896 69 1886 64 l 1896 293 l 1999 293 l 1999 18 q 1944 1 1976 7 q 1867 -4 1911 -4 m 2036 0 l 2036 428 l 2139 428 l 2139 0 l 2036 0 m 2300 -4 q 2163 90 2163 -4 q 2176 137 2163 118 q 2212 167 2189 156 q 2264 185 2235 179 q 2326 194 2293 192 l 2326 207 q 2315 230 2326 224 q 2282 236 2303 236 q 2238 231 2260 236 q 2201 218 2217 225 l 2181 276 q 2228 292 2197 283 q 2301 300 2258 300 q 2389 274 2356 300 q 2422 186 2422 249 l 2422 17 q 2372 1 2403 7 q 2300 -4 2342 -4 m 2326 149 q 2277 135 2296 146 q 2258 94 2258 125 q 2304 51 2258 51 q 2326 56 2318 51 l 2326 149 m 2476 0 q 2465 5 2469 0 q 2460 17 2460 10 q 2465 28 2460 24 q 2476 33 2469 33 q 2489 28 2483 33 q 2494 17 2494 24 q 2476 0 2494 0 m 2572 207 l 2572 0 l 2551 0 l 2551 206 l 2525 206 l 2525 218 l 2551 218 l 2551 254 q 2567 300 2551 282 q 2614 318 2582 318 l 2614 304 q 2585 292 2597 301 q 2572 257 2572 283 l 2572 218 l 2614 218 l 2614 207 l 2572 207 m 2717 204 q 2686 206 2701 207 q 2663 199 2671 206 l 2663 0 l 2640 0 l 2640 208 q 2671 219 2656 215 q 2722 222 2686 222 l 2717 204 m 717 99 q 667 110 693 106 q 614 113 643 113 q 553 107 585 114 q 469 83 501 96 q 410 63 438 71 q 354 55 383 56 q 278 67 325 54 q 228 86 254 72 q 174 117 201 100 q 120 155 147 135 q 68 196 93 175 q -49 301 10 243 q 39 272 -4 286 q 114 251 75 261 q 181 239 153 240 q 250 243 208 238 q 340 255 292 249 q 435 265 388 261 q 524 264 483 268 q 596 231 561 257 q 658 175 631 204 q 717 99 690 140 m 636 236 q 617 254 628 246 q 594 269 607 261 q 565 282 582 276 q 519 293 538 290 q 485 299 500 296 q 456 310 469 303 q 426 336 443 318 q 397 387 410 354 q 375 451 383 419 q 358 531 365 489 q 388 494 372 511 q 415 464 400 479 q 440 442 429 449 q 474 425 453 433 q 519 407 494 417 q 566 386 543 397 q 606 363 589 375 q 627 328 621 349 q 636 286 633 307 q 636 236 639 261 m 706 76 q 674 57 689 67 q 644 36 660 47 q 615 10 628 25 q 583 -31 594 -14 q 562 -60 572 -47 q 537 -84 551 -74 q 493 -103 522 -94 q 417 -112 463 -112 q 329 -108 372 -112 q 224 -94 279 -103 q 281 -81 254 -87 q 327 -65 304 -74 q 365 -49 350 -57 q 394 -26 379 -40 q 425 5 408 -11 q 460 36 442 21 q 501 63 478 51 q 569 81 533 76 q 636 83 606 85 q 706 76 672 82 z "},"~":{"ha":2767,"x_min":-49,"x_max":2722,"o":"m 882 226 q 829 231 856 240 l 829 0 l 726 0 l 726 276 q 794 295 753 289 q 900 299 836 301 l 882 226 m 999 113 q 1060 64 1007 64 q 1106 69 1086 64 q 1138 81 1126 74 l 1161 17 q 1115 1 1142 7 q 1047 -4 1088 -4 q 938 38 974 -4 q 901 147 901 81 q 936 257 901 214 q 1040 300 971 300 q 1142 256 1110 300 q 1169 135 1174 211 l 999 113 m 1035 239 q 1000 219 1011 239 q 992 161 989 199 l 1075 174 q 1035 239 1075 239 m 1310 -4 q 1238 22 1261 -4 q 1214 86 1214 47 l 1214 226 l 1183 226 l 1183 293 l 1214 293 l 1214 354 l 1317 379 l 1317 293 l 1360 293 l 1360 226 l 1317 226 l 1317 94 q 1339 64 1317 64 q 1360 69 1349 64 l 1360 4 q 1340 -1 1353 1 q 1310 -4 1328 -4 m 1438 332 q 1399 345 1414 332 q 1383 378 1383 358 q 1399 411 1383 397 q 1438 425 1414 425 q 1475 411 1460 425 q 1490 378 1490 397 q 1475 345 1490 358 q 1438 332 1460 332 m 1385 0 l 1385 293 l 1488 293 l 1488 0 l 1385 0 m 1640 -4 q 1551 35 1588 -4 q 1515 149 1515 74 q 1553 262 1515 224 q 1639 300 1590 300 q 1685 294 1667 300 q 1715 278 1704 288 l 1694 221 q 1664 231 1682 231 q 1619 149 1619 231 q 1664 68 1619 68 q 1694 79 1685 68 l 1717 17 q 1688 1 1706 7 q 1640 -4 1671 -4 m 1867 -4 q 1768 19 1801 -4 q 1735 100 1735 42 l 1735 293 l 1838 293 l 1838 92 q 1845 72 1838 81 q 1869 64 1853 64 q 1896 69 1886 64 l 1896 293 l 1999 293 l 1999 18 q 1944 1 1976 7 q 1867 -4 1911 -4 m 2036 0 l 2036 428 l 2139 428 l 2139 0 l 2036 0 m 2300 -4 q 2163 90 2163 -4 q 2176 137 2163 118 q 2212 167 2189 156 q 2264 185 2235 179 q 2326 194 2293 192 l 2326 207 q 2315 230 2326 224 q 2282 236 2303 236 q 2238 231 2260 236 q 2201 218 2217 225 l 2181 276 q 2228 292 2197 283 q 2301 300 2258 300 q 2389 274 2356 300 q 2422 186 2422 249 l 2422 17 q 2372 1 2403 7 q 2300 -4 2342 -4 m 2326 149 q 2277 135 2296 146 q 2258 94 2258 125 q 2304 51 2258 51 q 2326 56 2318 51 l 2326 149 m 2476 0 q 2465 5 2469 0 q 2460 17 2460 10 q 2465 28 2460 24 q 2476 33 2469 33 q 2489 28 2483 33 q 2494 17 2494 24 q 2476 0 2494 0 m 2572 207 l 2572 0 l 2551 0 l 2551 206 l 2525 206 l 2525 218 l 2551 218 l 2551 254 q 2567 300 2551 282 q 2614 318 2582 318 l 2614 304 q 2585 292 2597 301 q 2572 257 2572 283 l 2572 218 l 2614 218 l 2614 207 l 2572 207 m 2717 204 q 2686 206 2701 207 q 2663 199 2671 206 l 2663 0 l 2640 0 l 2640 208 q 2671 219 2656 215 q 2722 222 2686 222 l 2717 204 m 717 99 q 667 110 693 106 q 614 113 643 113 q 553 107 585 114 q 469 83 501 96 q 410 63 438 71 q 354 55 383 56 q 278 67 325 54 q 228 86 254 72 q 174 117 201 100 q 120 155 147 135 q 68 196 93 175 q -49 301 10 243 q 39 272 -4 286 q 114 251 75 261 q 181 239 153 240 q 250 243 208 238 q 340 255 292 249 q 435 265 388 261 q 524 264 483 268 q 596 231 561 257 q 658 175 631 204 q 717 99 690 140 m 636 236 q 617 254 628 246 q 594 269 607 261 q 565 282 582 276 q 519 293 538 290 q 485 299 500 296 q 456 310 469 303 q 426 336 443 318 q 397 387 410 354 q 375 451 383 419 q 358 531 365 489 q 388 494 372 511 q 415 464 400 479 q 440 442 429 449 q 474 425 453 433 q 519 407 494 417 q 566 386 543 397 q 606 363 589 375 q 627 328 621 349 q 636 286 633 307 q 636 236 639 261 m 706 76 q 674 57 689 67 q 644 36 660 47 q 615 10 628 25 q 583 -31 594 -14 q 562 -60 572 -47 q 537 -84 551 -74 q 493 -103 522 -94 q 417 -112 463 -112 q 329 -108 372 -112 q 224 -94 279 -103 q 281 -81 254 -87 q 327 -65 304 -74 q 365 -49 350 -57 q 394 -26 379 -40 q 425 5 408 -11 q 460 36 442 21 q 501 63 478 51 q 569 81 533 76 q 636 83 606 85 q 706 76 672 82 z "},"(":{"ha":2767,"x_min":-49,"x_max":2722,"o":"m 882 226 q 829 231 856 240 l 829 0 l 726 0 l 726 276 q 794 295 753 289 q 900 299 836 301 l 882 226 m 999 113 q 1060 64 1007 64 q 1106 69 1086 64 q 1138 81 1126 74 l 1161 17 q 1115 1 1142 7 q 1047 -4 1088 -4 q 938 38 974 -4 q 901 147 901 81 q 936 257 901 214 q 1040 300 971 300 q 1142 256 1110 300 q 1169 135 1174 211 l 999 113 m 1035 239 q 1000 219 1011 239 q 992 161 989 199 l 1075 174 q 1035 239 1075 239 m 1310 -4 q 1238 22 1261 -4 q 1214 86 1214 47 l 1214 226 l 1183 226 l 1183 293 l 1214 293 l 1214 354 l 1317 379 l 1317 293 l 1360 293 l 1360 226 l 1317 226 l 1317 94 q 1339 64 1317 64 q 1360 69 1349 64 l 1360 4 q 1340 -1 1353 1 q 1310 -4 1328 -4 m 1438 332 q 1399 345 1414 332 q 1383 378 1383 358 q 1399 411 1383 397 q 1438 425 1414 425 q 1475 411 1460 425 q 1490 378 1490 397 q 1475 345 1490 358 q 1438 332 1460 332 m 1385 0 l 1385 293 l 1488 293 l 1488 0 l 1385 0 m 1640 -4 q 1551 35 1588 -4 q 1515 149 1515 74 q 1553 262 1515 224 q 1639 300 1590 300 q 1685 294 1667 300 q 1715 278 1704 288 l 1694 221 q 1664 231 1682 231 q 1619 149 1619 231 q 1664 68 1619 68 q 1694 79 1685 68 l 1717 17 q 1688 1 1706 7 q 1640 -4 1671 -4 m 1867 -4 q 1768 19 1801 -4 q 1735 100 1735 42 l 1735 293 l 1838 293 l 1838 92 q 1845 72 1838 81 q 1869 64 1853 64 q 1896 69 1886 64 l 1896 293 l 1999 293 l 1999 18 q 1944 1 1976 7 q 1867 -4 1911 -4 m 2036 0 l 2036 428 l 2139 428 l 2139 0 l 2036 0 m 2300 -4 q 2163 90 2163 -4 q 2176 137 2163 118 q 2212 167 2189 156 q 2264 185 2235 179 q 2326 194 2293 192 l 2326 207 q 2315 230 2326 224 q 2282 236 2303 236 q 2238 231 2260 236 q 2201 218 2217 225 l 2181 276 q 2228 292 2197 283 q 2301 300 2258 300 q 2389 274 2356 300 q 2422 186 2422 249 l 2422 17 q 2372 1 2403 7 q 2300 -4 2342 -4 m 2326 149 q 2277 135 2296 146 q 2258 94 2258 125 q 2304 51 2258 51 q 2326 56 2318 51 l 2326 149 m 2476 0 q 2465 5 2469 0 q 2460 17 2460 10 q 2465 28 2460 24 q 2476 33 2469 33 q 2489 28 2483 33 q 2494 17 2494 24 q 2476 0 2494 0 m 2572 207 l 2572 0 l 2551 0 l 2551 206 l 2525 206 l 2525 218 l 2551 218 l 2551 254 q 2567 300 2551 282 q 2614 318 2582 318 l 2614 304 q 2585 292 2597 301 q 2572 257 2572 283 l 2572 218 l 2614 218 l 2614 207 l 2572 207 m 2717 204 q 2686 206 2701 207 q 2663 199 2671 206 l 2663 0 l 2640 0 l 2640 208 q 2671 219 2656 215 q 2722 222 2686 222 l 2717 204 m 717 99 q 667 110 693 106 q 614 113 643 113 q 553 107 585 114 q 469 83 501 96 q 410 63 438 71 q 354 55 383 56 q 278 67 325 54 q 228 86 254 72 q 174 117 201 100 q 120 155 147 135 q 68 196 93 175 q -49 301 10 243 q 39 272 -4 286 q 114 251 75 261 q 181 239 153 240 q 250 243 208 238 q 340 255 292 249 q 435 265 388 261 q 524 264 483 268 q 596 231 561 257 q 658 175 631 204 q 717 99 690 140 m 636 236 q 617 254 628 246 q 594 269 607 261 q 565 282 582 276 q 519 293 538 290 q 485 299 500 296 q 456 310 469 303 q 426 336 443 318 q 397 387 410 354 q 375 451 383 419 q 358 531 365 489 q 388 494 372 511 q 415 464 400 479 q 440 442 429 449 q 474 425 453 433 q 519 407 494 417 q 566 386 543 397 q 606 363 589 375 q 627 328 621 349 q 636 286 633 307 q 636 236 639 261 m 706 76 q 674 57 689 67 q 644 36 660 47 q 615 10 628 25 q 583 -31 594 -14 q 562 -60 572 -47 q 537 -84 551 -74 q 493 -103 522 -94 q 417 -112 463 -112 q 329 -108 372 -112 q 224 -94 279 -103 q 281 -81 254 -87 q 327 -65 304 -74 q 365 -49 350 -57 q 394 -26 379 -40 q 425 5 408 -11 q 460 36 442 21 q 501 63 478 51 q 569 81 533 76 q 636 83 606 85 q 706 76 672 82 z "},")":{"ha":2767,"x_min":-49,"x_max":2722,"o":"m 882 226 q 829 231 856 240 l 829 0 l 726 0 l 726 276 q 794 295 753 289 q 900 299 836 301 l 882 226 m 999 113 q 1060 64 1007 64 q 1106 69 1086 64 q 1138 81 1126 74 l 1161 17 q 1115 1 1142 7 q 1047 -4 1088 -4 q 938 38 974 -4 q 901 147 901 81 q 936 257 901 214 q 1040 300 971 300 q 1142 256 1110 300 q 1169 135 1174 211 l 999 113 m 1035 239 q 1000 219 1011 239 q 992 161 989 199 l 1075 174 q 1035 239 1075 239 m 1310 -4 q 1238 22 1261 -4 q 1214 86 1214 47 l 1214 226 l 1183 226 l 1183 293 l 1214 293 l 1214 354 l 1317 379 l 1317 293 l 1360 293 l 1360 226 l 1317 226 l 1317 94 q 1339 64 1317 64 q 1360 69 1349 64 l 1360 4 q 1340 -1 1353 1 q 1310 -4 1328 -4 m 1438 332 q 1399 345 1414 332 q 1383 378 1383 358 q 1399 411 1383 397 q 1438 425 1414 425 q 1475 411 1460 425 q 1490 378 1490 397 q 1475 345 1490 358 q 1438 332 1460 332 m 1385 0 l 1385 293 l 1488 293 l 1488 0 l 1385 0 m 1640 -4 q 1551 35 1588 -4 q 1515 149 1515 74 q 1553 262 1515 224 q 1639 300 1590 300 q 1685 294 1667 300 q 1715 278 1704 288 l 1694 221 q 1664 231 1682 231 q 1619 149 1619 231 q 1664 68 1619 68 q 1694 79 1685 68 l 1717 17 q 1688 1 1706 7 q 1640 -4 1671 -4 m 1867 -4 q 1768 19 1801 -4 q 1735 100 1735 42 l 1735 293 l 1838 293 l 1838 92 q 1845 72 1838 81 q 1869 64 1853 64 q 1896 69 1886 64 l 1896 293 l 1999 293 l 1999 18 q 1944 1 1976 7 q 1867 -4 1911 -4 m 2036 0 l 2036 428 l 2139 428 l 2139 0 l 2036 0 m 2300 -4 q 2163 90 2163 -4 q 2176 137 2163 118 q 2212 167 2189 156 q 2264 185 2235 179 q 2326 194 2293 192 l 2326 207 q 2315 230 2326 224 q 2282 236 2303 236 q 2238 231 2260 236 q 2201 218 2217 225 l 2181 276 q 2228 292 2197 283 q 2301 300 2258 300 q 2389 274 2356 300 q 2422 186 2422 249 l 2422 17 q 2372 1 2403 7 q 2300 -4 2342 -4 m 2326 149 q 2277 135 2296 146 q 2258 94 2258 125 q 2304 51 2258 51 q 2326 56 2318 51 l 2326 149 m 2476 0 q 2465 5 2469 0 q 2460 17 2460 10 q 2465 28 2460 24 q 2476 33 2469 33 q 2489 28 2483 33 q 2494 17 2494 24 q 2476 0 2494 0 m 2572 207 l 2572 0 l 2551 0 l 2551 206 l 2525 206 l 2525 218 l 2551 218 l 2551 254 q 2567 300 2551 282 q 2614 318 2582 318 l 2614 304 q 2585 292 2597 301 q 2572 257 2572 283 l 2572 218 l 2614 218 l 2614 207 l 2572 207 m 2717 204 q 2686 206 2701 207 q 2663 199 2671 206 l 2663 0 l 2640 0 l 2640 208 q 2671 219 2656 215 q 2722 222 2686 222 l 2717 204 m 717 99 q 667 110 693 106 q 614 113 643 113 q 553 107 585 114 q 469 83 501 96 q 410 63 438 71 q 354 55 383 56 q 278 67 325 54 q 228 86 254 72 q 174 117 201 100 q 120 155 147 135 q 68 196 93 175 q -49 301 10 243 q 39 272 -4 286 q 114 251 75 261 q 181 239 153 240 q 250 243 208 238 q 340 255 292 249 q 435 265 388 261 q 524 264 483 268 q 596 231 561 257 q 658 175 631 204 q 717 99 690 140 m 636 236 q 617 254 628 246 q 594 269 607 261 q 565 282 582 276 q 519 293 538 290 q 485 299 500 296 q 456 310 469 303 q 426 336 443 318 q 397 387 410 354 q 375 451 383 419 q 358 531 365 489 q 388 494 372 511 q 415 464 400 479 q 440 442 429 449 q 474 425 453 433 q 519 407 494 417 q 566 386 543 397 q 606 363 589 375 q 627 328 621 349 q 636 286 633 307 q 636 236 639 261 m 706 76 q 674 57 689 67 q 644 36 660 47 q 615 10 628 25 q 583 -31 594 -14 q 562 -60 572 -47 q 537 -84 551 -74 q 493 -103 522 -94 q 417 -112 463 -112 q 329 -108 372 -112 q 224 -94 279 -103 q 281 -81 254 -87 q 327 -65 304 -74 q 365 -49 350 -57 q 394 -26 379 -40 q 425 5 408 -11 q 460 36 442 21 q 501 63 478 51 q 569 81 533 76 q 636 83 606 85 q 706 76 672 82 z "},"\"":{"ha":2767,"x_min":-49,"x_max":2722,"o":"m 882 226 q 829 231 856 240 l 829 0 l 726 0 l 726 276 q 794 295 753 289 q 900 299 836 301 l 882 226 m 999 113 q 1060 64 1007 64 q 1106 69 1086 64 q 1138 81 1126 74 l 1161 17 q 1115 1 1142 7 q 1047 -4 1088 -4 q 938 38 974 -4 q 901 147 901 81 q 936 257 901 214 q 1040 300 971 300 q 1142 256 1110 300 q 1169 135 1174 211 l 999 113 m 1035 239 q 1000 219 1011 239 q 992 161 989 199 l 1075 174 q 1035 239 1075 239 m 1310 -4 q 1238 22 1261 -4 q 1214 86 1214 47 l 1214 226 l 1183 226 l 1183 293 l 1214 293 l 1214 354 l 1317 379 l 1317 293 l 1360 293 l 1360 226 l 1317 226 l 1317 94 q 1339 64 1317 64 q 1360 69 1349 64 l 1360 4 q 1340 -1 1353 1 q 1310 -4 1328 -4 m 1438 332 q 1399 345 1414 332 q 1383 378 1383 358 q 1399 411 1383 397 q 1438 425 1414 425 q 1475 411 1460 425 q 1490 378 1490 397 q 1475 345 1490 358 q 1438 332 1460 332 m 1385 0 l 1385 293 l 1488 293 l 1488 0 l 1385 0 m 1640 -4 q 1551 35 1588 -4 q 1515 149 1515 74 q 1553 262 1515 224 q 1639 300 1590 300 q 1685 294 1667 300 q 1715 278 1704 288 l 1694 221 q 1664 231 1682 231 q 1619 149 1619 231 q 1664 68 1619 68 q 1694 79 1685 68 l 1717 17 q 1688 1 1706 7 q 1640 -4 1671 -4 m 1867 -4 q 1768 19 1801 -4 q 1735 100 1735 42 l 1735 293 l 1838 293 l 1838 92 q 1845 72 1838 81 q 1869 64 1853 64 q 1896 69 1886 64 l 1896 293 l 1999 293 l 1999 18 q 1944 1 1976 7 q 1867 -4 1911 -4 m 2036 0 l 2036 428 l 2139 428 l 2139 0 l 2036 0 m 2300 -4 q 2163 90 2163 -4 q 2176 137 2163 118 q 2212 167 2189 156 q 2264 185 2235 179 q 2326 194 2293 192 l 2326 207 q 2315 230 2326 224 q 2282 236 2303 236 q 2238 231 2260 236 q 2201 218 2217 225 l 2181 276 q 2228 292 2197 283 q 2301 300 2258 300 q 2389 274 2356 300 q 2422 186 2422 249 l 2422 17 q 2372 1 2403 7 q 2300 -4 2342 -4 m 2326 149 q 2277 135 2296 146 q 2258 94 2258 125 q 2304 51 2258 51 q 2326 56 2318 51 l 2326 149 m 2476 0 q 2465 5 2469 0 q 2460 17 2460 10 q 2465 28 2460 24 q 2476 33 2469 33 q 2489 28 2483 33 q 2494 17 2494 24 q 2476 0 2494 0 m 2572 207 l 2572 0 l 2551 0 l 2551 206 l 2525 206 l 2525 218 l 2551 218 l 2551 254 q 2567 300 2551 282 q 2614 318 2582 318 l 2614 304 q 2585 292 2597 301 q 2572 257 2572 283 l 2572 218 l 2614 218 l 2614 207 l 2572 207 m 2717 204 q 2686 206 2701 207 q 2663 199 2671 206 l 2663 0 l 2640 0 l 2640 208 q 2671 219 2656 215 q 2722 222 2686 222 l 2717 204 m 717 99 q 667 110 693 106 q 614 113 643 113 q 553 107 585 114 q 469 83 501 96 q 410 63 438 71 q 354 55 383 56 q 278 67 325 54 q 228 86 254 72 q 174 117 201 100 q 120 155 147 135 q 68 196 93 175 q -49 301 10 243 q 39 272 -4 286 q 114 251 75 261 q 181 239 153 240 q 250 243 208 238 q 340 255 292 249 q 435 265 388 261 q 524 264 483 268 q 596 231 561 257 q 658 175 631 204 q 717 99 690 140 m 636 236 q 617 254 628 246 q 594 269 607 261 q 565 282 582 276 q 519 293 538 290 q 485 299 500 296 q 456 310 469 303 q 426 336 443 318 q 397 387 410 354 q 375 451 383 419 q 358 531 365 489 q 388 494 372 511 q 415 464 400 479 q 440 442 429 449 q 474 425 453 433 q 519 407 494 417 q 566 386 543 397 q 606 363 589 375 q 627 328 621 349 q 636 286 633 307 q 636 236 639 261 m 706 76 q 674 57 689 67 q 644 36 660 47 q 615 10 628 25 q 583 -31 594 -14 q 562 -60 572 -47 q 537 -84 551 -74 q 493 -103 522 -94 q 417 -112 463 -112 q 329 -108 372 -112 q 224 -94 279 -103 q 281 -81 254 -87 q 327 -65 304 -74 q 365 -49 350 -57 q 394 -26 379 -40 q 425 5 408 -11 q 460 36 442 21 q 501 63 478 51 q 569 81 533 76 q 636 83 606 85 q 706 76 672 82 z "},"$":{"ha":897,"x_min":49,"x_max":832,"o":"m 469 599 l 469 532 q 495 525 482 529 q 524 517 508 521 l 532 514 q 618 485 576 501 q 692 444 660 469 q 744 384 724 419 q 768 299 765 349 l 753 297 q 731 377 750 344 q 680 433 711 410 q 609 472 649 457 q 528 500 569 488 l 519 503 q 488 511 503 507 q 460 519 474 515 q 419 532 438 526 q 383 543 400 538 q 310 576 339 560 q 262 612 281 592 q 235 656 243 632 q 228 713 228 681 l 228 717 q 265 805 228 761 q 379 864 301 849 l 379 913 q 237 845 290 897 q 178 714 183 793 l 163 714 q 228 858 168 801 q 385 929 288 915 l 394 931 l 394 851 l 388 850 q 323 829 350 843 q 278 797 296 815 q 251 758 260 779 q 243 717 243 738 l 243 713 q 249 665 243 686 q 269 626 254 644 q 314 591 285 607 q 389 558 343 575 q 419 548 404 553 q 454 536 435 543 l 454 599 l 454 796 l 454 869 l 463 869 q 532 860 500 867 q 690 796 606 846 l 683 783 q 529 844 600 831 q 469 853 497 851 l 469 796 l 469 599 m 621 271 q 597 212 621 236 q 532 178 574 188 l 522 175 l 522 372 l 533 368 q 601 328 582 349 q 621 274 621 307 l 621 271 m 538 194 q 606 271 606 214 l 606 274 q 593 315 606 297 q 538 350 581 332 l 538 194 m 379 399 q 256 440 310 417 q 166 497 203 464 q 110 578 129 531 q 90 692 90 625 l 90 694 q 110 804 90 754 q 168 893 131 854 q 259 956 206 932 q 379 989 313 981 l 379 1060 l 538 1060 l 538 985 q 800 868 683 963 l 790 857 q 529 971 676 947 l 522 972 l 522 1044 l 394 1044 l 394 976 l 388 975 q 272 945 324 968 q 183 885 219 922 q 126 800 146 849 q 106 694 106 751 l 106 692 q 124 585 106 629 q 176 508 142 540 q 261 454 210 476 q 379 414 313 432 l 379 471 q 307 497 343 482 q 241 533 271 511 q 190 585 211 554 q 164 658 169 615 l 179 660 q 238 555 189 596 q 389 483 286 514 l 394 482 l 394 404 l 394 179 l 385 182 q 181 290 283 204 l 190 303 q 379 199 286 222 l 379 399 m 301 714 q 323 768 301 746 q 385 800 344 790 l 394 803 l 394 611 l 383 615 q 319 654 338 633 q 301 711 301 675 l 301 714 m 379 783 q 333 756 350 774 q 317 714 317 738 l 317 711 q 328 668 317 686 q 379 633 339 650 l 379 783 m 538 586 q 658 544 604 568 q 751 487 713 521 q 810 406 789 453 q 832 293 832 358 l 832 290 q 754 85 832 164 q 538 -12 676 6 l 538 -137 l 379 -137 l 379 -10 q 205 41 288 3 q 54 140 122 79 l 49 146 l 139 253 l 144 250 q 274 177 215 204 q 388 138 333 150 q 421 131 404 133 q 454 126 438 129 l 454 179 l 454 385 l 454 465 l 464 463 q 501 451 483 456 q 533 440 518 446 q 614 407 582 424 q 665 370 646 390 q 693 325 685 350 q 701 267 701 300 l 701 263 q 692 215 701 239 q 662 172 682 192 q 610 135 642 151 q 538 114 579 119 l 538 65 q 681 124 625 76 q 750 244 738 171 l 765 242 q 689 110 751 163 q 531 49 626 58 q 511 47 521 47 q 492 47 501 47 l 461 47 q 423 52 442 50 q 385 58 404 54 q 131 164 256 86 l 139 176 q 388 74 265 99 q 426 67 407 69 q 463 63 444 65 l 492 63 q 507 63 499 63 q 522 64 515 63 l 522 126 l 529 128 q 599 147 569 133 q 649 180 629 161 q 677 220 668 199 q 686 263 686 242 l 686 267 q 681 316 686 294 q 658 356 675 338 q 610 392 642 375 q 528 426 579 408 q 500 435 514 431 q 469 444 486 440 l 469 385 l 469 179 l 469 111 l 461 111 q 423 115 442 113 q 385 122 404 118 q 271 162 329 135 q 142 233 213 189 l 69 147 q 217 53 136 89 q 388 4 297 17 l 394 4 l 394 -122 l 522 -122 l 522 -14 q 497 -16 510 -15 q 469 -17 483 -17 l 469 -71 l 454 -71 l 454 -1 l 465 -1 q 529 3 497 -1 q 741 94 665 18 q 817 290 817 169 l 817 293 q 796 401 817 356 q 738 478 775 446 q 647 533 700 511 q 528 572 593 556 l 522 574 l 522 792 l 532 789 q 606 759 568 778 q 682 713 643 740 l 751 813 q 640 870 697 846 q 529 907 582 894 q 494 913 511 910 q 461 917 476 915 l 454 917 l 454 992 l 469 992 l 469 932 q 500 927 485 929 q 532 921 515 925 q 650 883 590 908 q 765 821 710 857 l 772 817 l 686 692 l 681 696 q 538 771 606 749 l 538 586 z "},"!":{"ha":450,"x_min":97,"x_max":358,"o":"m 297 49 l 158 49 l 158 189 l 201 189 l 201 174 l 174 174 l 174 64 l 282 64 l 282 174 l 256 174 l 256 189 l 297 189 l 297 49 m 346 0 l 110 0 l 110 239 l 346 239 l 346 144 l 331 144 l 331 224 l 125 224 l 125 15 l 331 15 l 331 96 l 346 96 l 346 0 m 254 93 l 203 93 l 203 144 l 254 144 l 254 93 m 218 108 l 239 108 l 239 129 l 218 129 l 218 108 m 294 336 l 279 338 l 343 947 l 343 968 l 197 968 l 197 947 l 217 388 l 201 386 l 182 947 l 182 983 l 358 983 l 358 947 l 294 336 m 254 329 l 164 329 l 97 947 l 97 975 l 113 975 l 113 947 l 178 344 l 239 344 l 260 926 l 275 925 l 254 329 z "},"#":{"ha":972,"x_min":42,"x_max":929,"o":"m 358 378 l 397 603 l 613 603 l 574 378 l 358 378 m 376 393 l 561 393 l 594 588 l 410 588 l 376 393 m 779 603 l 921 603 l 921 588 l 792 588 l 758 393 l 871 393 l 871 378 l 740 378 l 779 603 m 192 378 l 50 378 l 50 393 l 179 393 l 211 588 l 100 588 l 100 603 l 229 603 l 192 378 m 810 261 l 675 261 l 631 0 l 493 0 l 528 201 l 343 201 l 310 6 l 294 8 l 331 217 l 546 217 l 511 15 l 618 15 l 663 276 l 810 276 l 810 261 m 599 261 l 293 261 l 249 0 l 111 0 l 146 201 l 42 201 l 42 329 l 228 329 l 285 651 l 92 651 l 92 779 l 244 779 l 279 975 l 293 972 l 258 764 l 107 764 l 107 667 l 303 667 l 197 56 l 182 58 l 217 261 l 111 261 l 111 276 l 219 276 l 225 314 l 57 314 l 57 217 l 164 217 l 129 15 l 236 15 l 281 276 l 617 276 l 579 56 l 564 58 l 599 261 m 161 721 l 296 721 l 340 982 l 478 982 l 443 779 l 628 779 l 661 975 l 676 972 l 640 764 l 425 764 l 460 967 l 354 967 l 308 706 l 161 706 l 161 721 m 929 779 l 929 651 l 743 651 l 688 329 l 879 329 l 879 201 l 726 201 l 693 6 l 678 8 l 713 217 l 864 217 l 864 314 l 668 314 l 729 661 l 774 925 l 789 924 l 754 721 l 860 721 l 860 706 l 751 706 l 746 667 l 914 667 l 914 764 l 807 764 l 842 967 l 736 967 l 690 706 l 354 706 l 392 925 l 407 924 l 372 721 l 678 721 l 722 982 l 860 982 l 825 779 l 929 779 m 286 314 l 349 667 l 685 667 l 624 314 l 286 314 m 306 329 l 610 329 l 667 651 l 361 651 l 306 329 z "},"":{"ha":397,"x_min":36,"x_max":318,"o":"m 224 94 l 172 94 l 172 146 l 224 146 l 224 94 m 188 110 l 208 110 l 208 131 l 188 131 l 188 110 m 38 -135 l 36 -119 q 83 -111 58 -118 q 126 -90 107 -104 q 156 -54 144 -76 q 165 1 167 -32 l 79 1 l 79 238 l 181 238 l 181 222 l 94 222 l 94 17 l 179 17 l 179 10 q 149 -90 186 -53 q 38 -135 113 -128 m 92 -171 l 89 -156 q 151 -138 124 -150 q 197 -104 179 -126 q 225 -47 215 -82 q 235 44 235 -11 l 235 50 l 128 50 l 128 189 l 268 189 l 268 86 l 253 86 l 253 174 l 143 174 l 143 65 l 250 65 l 250 44 q 240 -53 250 -14 q 208 -115 229 -92 q 158 -151 188 -139 q 92 -171 129 -164 m 49 -222 l 36 -161 l 51 -158 l 61 -207 q 244 -142 186 -203 q 303 44 303 -82 l 303 222 l 224 222 l 224 238 l 318 238 l 318 44 q 56 -222 318 -218 l 49 -222 z "},"":{"ha":397,"x_min":43,"x_max":325,"o":"m 179 829 l 179 881 l 231 881 l 231 829 l 179 829 m 215 844 l 215 865 l 194 865 l 194 844 l 215 844 m 44 600 l 43 615 q 90 624 65 617 q 133 644 114 631 q 163 681 151 658 q 172 736 174 703 l 86 736 l 86 972 l 188 972 l 188 957 l 101 957 l 101 751 l 186 751 l 186 744 q 156 644 193 682 q 44 600 119 607 m 99 564 l 96 579 q 158 597 131 585 q 204 631 186 608 q 232 688 222 653 q 242 779 242 724 l 242 785 l 135 785 l 135 924 l 275 924 l 275 821 l 260 821 l 260 908 l 150 908 l 150 800 l 257 800 l 257 779 q 247 682 257 721 q 215 619 236 643 q 165 583 194 596 q 99 564 136 571 m 56 513 l 43 574 l 58 576 l 68 528 q 251 592 193 532 q 310 779 310 653 l 310 957 l 231 957 l 231 972 l 325 972 l 325 779 q 63 513 325 517 l 56 513 z "},"":{"ha":397,"x_min":74,"x_max":356,"o":"m 219 668 l 219 617 l 168 617 l 168 668 l 219 668 m 183 653 l 183 632 l 204 632 l 204 653 l 183 653 m 354 897 l 356 882 q 308 873 332 879 q 266 853 285 867 q 236 817 247 839 q 226 761 225 794 l 313 761 l 313 525 l 211 525 l 211 540 l 297 540 l 297 746 l 213 746 l 213 753 q 242 853 206 815 q 354 897 279 890 m 300 933 l 303 918 q 240 900 267 911 q 194 867 213 889 q 167 809 176 844 q 157 718 157 774 l 157 713 l 264 713 l 264 574 l 124 574 l 124 676 l 139 676 l 139 589 l 249 589 l 249 697 l 142 697 l 142 718 q 152 815 142 776 q 183 878 163 854 q 233 914 204 901 q 300 933 263 926 m 343 985 l 356 924 l 340 921 l 331 969 q 147 905 206 965 q 89 718 89 844 l 89 540 l 168 540 l 168 525 l 74 525 l 74 718 q 336 985 74 981 l 343 985 z "},"'":{"ha":397,"x_min":43,"x_max":325,"o":"m 179 829 l 179 881 l 231 881 l 231 829 l 179 829 m 215 844 l 215 865 l 194 865 l 194 844 l 215 844 m 44 600 l 43 615 q 90 624 65 617 q 133 644 114 631 q 163 681 151 658 q 172 736 174 703 l 86 736 l 86 972 l 188 972 l 188 957 l 101 957 l 101 751 l 186 751 l 186 744 q 156 644 193 682 q 44 600 119 607 m 99 564 l 96 579 q 158 597 131 585 q 204 631 186 608 q 232 688 222 653 q 242 779 242 724 l 242 785 l 135 785 l 135 924 l 275 924 l 275 821 l 260 821 l 260 908 l 150 908 l 150 800 l 257 800 l 257 779 q 247 682 257 721 q 215 619 236 643 q 165 583 194 596 q 99 564 136 571 m 56 513 l 43 574 l 58 576 l 68 528 q 251 592 193 532 q 310 779 310 653 l 310 957 l 231 957 l 231 972 l 325 972 l 325 779 q 63 513 325 517 l 56 513 z "},"<":{"ha":2767,"x_min":-49,"x_max":2722,"o":"m 882 226 q 829 231 856 240 l 829 0 l 726 0 l 726 276 q 794 295 753 289 q 900 299 836 301 l 882 226 m 999 113 q 1060 64 1007 64 q 1106 69 1086 64 q 1138 81 1126 74 l 1161 17 q 1115 1 1142 7 q 1047 -4 1088 -4 q 938 38 974 -4 q 901 147 901 81 q 936 257 901 214 q 1040 300 971 300 q 1142 256 1110 300 q 1169 135 1174 211 l 999 113 m 1035 239 q 1000 219 1011 239 q 992 161 989 199 l 1075 174 q 1035 239 1075 239 m 1310 -4 q 1238 22 1261 -4 q 1214 86 1214 47 l 1214 226 l 1183 226 l 1183 293 l 1214 293 l 1214 354 l 1317 379 l 1317 293 l 1360 293 l 1360 226 l 1317 226 l 1317 94 q 1339 64 1317 64 q 1360 69 1349 64 l 1360 4 q 1340 -1 1353 1 q 1310 -4 1328 -4 m 1438 332 q 1399 345 1414 332 q 1383 378 1383 358 q 1399 411 1383 397 q 1438 425 1414 425 q 1475 411 1460 425 q 1490 378 1490 397 q 1475 345 1490 358 q 1438 332 1460 332 m 1385 0 l 1385 293 l 1488 293 l 1488 0 l 1385 0 m 1640 -4 q 1551 35 1588 -4 q 1515 149 1515 74 q 1553 262 1515 224 q 1639 300 1590 300 q 1685 294 1667 300 q 1715 278 1704 288 l 1694 221 q 1664 231 1682 231 q 1619 149 1619 231 q 1664 68 1619 68 q 1694 79 1685 68 l 1717 17 q 1688 1 1706 7 q 1640 -4 1671 -4 m 1867 -4 q 1768 19 1801 -4 q 1735 100 1735 42 l 1735 293 l 1838 293 l 1838 92 q 1845 72 1838 81 q 1869 64 1853 64 q 1896 69 1886 64 l 1896 293 l 1999 293 l 1999 18 q 1944 1 1976 7 q 1867 -4 1911 -4 m 2036 0 l 2036 428 l 2139 428 l 2139 0 l 2036 0 m 2300 -4 q 2163 90 2163 -4 q 2176 137 2163 118 q 2212 167 2189 156 q 2264 185 2235 179 q 2326 194 2293 192 l 2326 207 q 2315 230 2326 224 q 2282 236 2303 236 q 2238 231 2260 236 q 2201 218 2217 225 l 2181 276 q 2228 292 2197 283 q 2301 300 2258 300 q 2389 274 2356 300 q 2422 186 2422 249 l 2422 17 q 2372 1 2403 7 q 2300 -4 2342 -4 m 2326 149 q 2277 135 2296 146 q 2258 94 2258 125 q 2304 51 2258 51 q 2326 56 2318 51 l 2326 149 m 2476 0 q 2465 5 2469 0 q 2460 17 2460 10 q 2465 28 2460 24 q 2476 33 2469 33 q 2489 28 2483 33 q 2494 17 2494 24 q 2476 0 2494 0 m 2572 207 l 2572 0 l 2551 0 l 2551 206 l 2525 206 l 2525 218 l 2551 218 l 2551 254 q 2567 300 2551 282 q 2614 318 2582 318 l 2614 304 q 2585 292 2597 301 q 2572 257 2572 283 l 2572 218 l 2614 218 l 2614 207 l 2572 207 m 2717 204 q 2686 206 2701 207 q 2663 199 2671 206 l 2663 0 l 2640 0 l 2640 208 q 2671 219 2656 215 q 2722 222 2686 222 l 2717 204 m 717 99 q 667 110 693 106 q 614 113 643 113 q 553 107 585 114 q 469 83 501 96 q 410 63 438 71 q 354 55 383 56 q 278 67 325 54 q 228 86 254 72 q 174 117 201 100 q 120 155 147 135 q 68 196 93 175 q -49 301 10 243 q 39 272 -4 286 q 114 251 75 261 q 181 239 153 240 q 250 243 208 238 q 340 255 292 249 q 435 265 388 261 q 524 264 483 268 q 596 231 561 257 q 658 175 631 204 q 717 99 690 140 m 636 236 q 617 254 628 246 q 594 269 607 261 q 565 282 582 276 q 519 293 538 290 q 485 299 500 296 q 456 310 469 303 q 426 336 443 318 q 397 387 410 354 q 375 451 383 419 q 358 531 365 489 q 388 494 372 511 q 415 464 400 479 q 440 442 429 449 q 474 425 453 433 q 519 407 494 417 q 566 386 543 397 q 606 363 589 375 q 627 328 621 349 q 636 286 633 307 q 636 236 639 261 m 706 76 q 674 57 689 67 q 644 36 660 47 q 615 10 628 25 q 583 -31 594 -14 q 562 -60 572 -47 q 537 -84 551 -74 q 493 -103 522 -94 q 417 -112 463 -112 q 329 -108 372 -112 q 224 -94 279 -103 q 281 -81 254 -87 q 327 -65 304 -74 q 365 -49 350 -57 q 394 -26 379 -40 q 425 5 408 -11 q 460 36 442 21 q 501 63 478 51 q 569 81 533 76 q 636 83 606 85 q 706 76 672 82 z "},">":{"ha":2767,"x_min":-49,"x_max":2722,"o":"m 882 226 q 829 231 856 240 l 829 0 l 726 0 l 726 276 q 794 295 753 289 q 900 299 836 301 l 882 226 m 999 113 q 1060 64 1007 64 q 1106 69 1086 64 q 1138 81 1126 74 l 1161 17 q 1115 1 1142 7 q 1047 -4 1088 -4 q 938 38 974 -4 q 901 147 901 81 q 936 257 901 214 q 1040 300 971 300 q 1142 256 1110 300 q 1169 135 1174 211 l 999 113 m 1035 239 q 1000 219 1011 239 q 992 161 989 199 l 1075 174 q 1035 239 1075 239 m 1310 -4 q 1238 22 1261 -4 q 1214 86 1214 47 l 1214 226 l 1183 226 l 1183 293 l 1214 293 l 1214 354 l 1317 379 l 1317 293 l 1360 293 l 1360 226 l 1317 226 l 1317 94 q 1339 64 1317 64 q 1360 69 1349 64 l 1360 4 q 1340 -1 1353 1 q 1310 -4 1328 -4 m 1438 332 q 1399 345 1414 332 q 1383 378 1383 358 q 1399 411 1383 397 q 1438 425 1414 425 q 1475 411 1460 425 q 1490 378 1490 397 q 1475 345 1490 358 q 1438 332 1460 332 m 1385 0 l 1385 293 l 1488 293 l 1488 0 l 1385 0 m 1640 -4 q 1551 35 1588 -4 q 1515 149 1515 74 q 1553 262 1515 224 q 1639 300 1590 300 q 1685 294 1667 300 q 1715 278 1704 288 l 1694 221 q 1664 231 1682 231 q 1619 149 1619 231 q 1664 68 1619 68 q 1694 79 1685 68 l 1717 17 q 1688 1 1706 7 q 1640 -4 1671 -4 m 1867 -4 q 1768 19 1801 -4 q 1735 100 1735 42 l 1735 293 l 1838 293 l 1838 92 q 1845 72 1838 81 q 1869 64 1853 64 q 1896 69 1886 64 l 1896 293 l 1999 293 l 1999 18 q 1944 1 1976 7 q 1867 -4 1911 -4 m 2036 0 l 2036 428 l 2139 428 l 2139 0 l 2036 0 m 2300 -4 q 2163 90 2163 -4 q 2176 137 2163 118 q 2212 167 2189 156 q 2264 185 2235 179 q 2326 194 2293 192 l 2326 207 q 2315 230 2326 224 q 2282 236 2303 236 q 2238 231 2260 236 q 2201 218 2217 225 l 2181 276 q 2228 292 2197 283 q 2301 300 2258 300 q 2389 274 2356 300 q 2422 186 2422 249 l 2422 17 q 2372 1 2403 7 q 2300 -4 2342 -4 m 2326 149 q 2277 135 2296 146 q 2258 94 2258 125 q 2304 51 2258 51 q 2326 56 2318 51 l 2326 149 m 2476 0 q 2465 5 2469 0 q 2460 17 2460 10 q 2465 28 2460 24 q 2476 33 2469 33 q 2489 28 2483 33 q 2494 17 2494 24 q 2476 0 2494 0 m 2572 207 l 2572 0 l 2551 0 l 2551 206 l 2525 206 l 2525 218 l 2551 218 l 2551 254 q 2567 300 2551 282 q 2614 318 2582 318 l 2614 304 q 2585 292 2597 301 q 2572 257 2572 283 l 2572 218 l 2614 218 l 2614 207 l 2572 207 m 2717 204 q 2686 206 2701 207 q 2663 199 2671 206 l 2663 0 l 2640 0 l 2640 208 q 2671 219 2656 215 q 2722 222 2686 222 l 2717 204 m 717 99 q 667 110 693 106 q 614 113 643 113 q 553 107 585 114 q 469 83 501 96 q 410 63 438 71 q 354 55 383 56 q 278 67 325 54 q 228 86 254 72 q 174 117 201 100 q 120 155 147 135 q 68 196 93 175 q -49 301 10 243 q 39 272 -4 286 q 114 251 75 261 q 181 239 153 240 q 250 243 208 238 q 340 255 292 249 q 435 265 388 261 q 524 264 483 268 q 596 231 561 257 q 658 175 631 204 q 717 99 690 140 m 636 236 q 617 254 628 246 q 594 269 607 261 q 565 282 582 276 q 519 293 538 290 q 485 299 500 296 q 456 310 469 303 q 426 336 443 318 q 397 387 410 354 q 375 451 383 419 q 358 531 365 489 q 388 494 372 511 q 415 464 400 479 q 440 442 429 449 q 474 425 453 433 q 519 407 494 417 q 566 386 543 397 q 606 363 589 375 q 627 328 621 349 q 636 286 633 307 q 636 236 639 261 m 706 76 q 674 57 689 67 q 644 36 660 47 q 615 10 628 25 q 583 -31 594 -14 q 562 -60 572 -47 q 537 -84 551 -74 q 493 -103 522 -94 q 417 -112 463 -112 q 329 -108 372 -112 q 224 -94 279 -103 q 281 -81 254 -87 q 327 -65 304 -74 q 365 -49 350 -57 q 394 -26 379 -40 q 425 5 408 -11 q 460 36 442 21 q 501 63 478 51 q 569 81 533 76 q 636 83 606 85 q 706 76 672 82 z "}}}
